<svg id="Layer_1" data-name="Layer 1" xmlns="http://www.w3.org/2000/svg" xmlns:xlink="http://www.w3.org/1999/xlink" viewBox="0 0 1899.74 1048.29"><defs><style>.cls-1,.cls-11,.cls-2,.cls-5{fill:none;}.cls-2{stroke:#231f20;stroke-miterlimit:11;stroke-width:3.41px;}.cls-3{fill:#231f20;}.cls-4{clip-path:url(#clip-path);}.cls-5{stroke:#333;stroke-linecap:round;stroke-linejoin:round;stroke-width:6.82px;}.cls-6{fill:#fff;}.cls-7{fill:#171717;}.cls-8{fill:#f4ba36;}.cls-9{fill:#e50695;}.cls-10{clip-path:url(#clip-path-3);}.cls-11{stroke:#fff;stroke-width:7.61px;}</style><clipPath id="clip-path" transform="translate(-51.26 -222.15)"><rect class="cls-1" x="51.26" y="222.15" width="1899.74" height="1048.3"/></clipPath><clipPath id="clip-path-3" transform="translate(-51.26 -222.15)"><rect class="cls-1" x="837.99" y="995.26" width="272.5" height="275.18"/></clipPath></defs><line class="cls-2" x1="1367.29" y1="353.92" x2="1015.02" y2="706.19"/><polygon class="cls-3" points="1006.01 715.19 1025.55 714.48 1006.73 695.66 1006.01 715.19"/><g class="cls-4"><path class="cls-3" d="M1886.24,593.66h6.33a7,7,0,0,1,5,1.55,5.78,5.78,0,0,1,1.61,4.34q0,5.84-6.6,5.84h-6.33Zm20.89,32-9.6-15.38a12,12,0,0,0,7-3.93,12.27,12.27,0,0,0-1.09-15.93q-3.51-3.27-10.23-3.27h-14.67v38.51h7.69v-15h3.39l9,15Zm-34.25-32.4v-6.11h-23v38.51h23v-6.17h-15.27V609.15h13.63v-5.89h-13.63v-10Zm-28.63,21.87a10.12,10.12,0,0,0-1.64-6,10.64,10.64,0,0,0-4-3.44,56.06,56.06,0,0,0-6-2.45,43,43,0,0,1-4.23-1.58,7.53,7.53,0,0,1-2.56-1.83,4,4,0,0,1-1-2.81,4,4,0,0,1,1.31-3.24,5.08,5.08,0,0,1,3.43-1.12,5.44,5.44,0,0,1,3.88,1.33,5.84,5.84,0,0,1,1.74,3.41h8.29a11.11,11.11,0,0,0-4.12-7.85q-3.61-2.94-9.73-3-5.89,0-9.46,2.87a9.47,9.47,0,0,0-3.58,7.82,9.8,9.8,0,0,0,1.61,5.84,10.84,10.84,0,0,0,3.9,3.41,43.53,43.53,0,0,0,5.89,2.37c1.86.62,3.31,1.17,4.37,1.64a7.55,7.55,0,0,1,2.61,1.88,4.32,4.32,0,0,1,1,3,4.47,4.47,0,0,1-1.28,3.3,5,5,0,0,1-3.68,1.28,5.9,5.9,0,0,1-4.29-1.55,6.27,6.27,0,0,1-1.88-3.9h-8.18a11.57,11.57,0,0,0,2.21,6.11,12.44,12.44,0,0,0,5.15,4,18.43,18.43,0,0,0,7.31,1.39,15.16,15.16,0,0,0,7-1.5,10.35,10.35,0,0,0,5.84-9.41m-63.93-28v22.58q0,8,4.15,12.16t11.07,4.15a17.31,17.31,0,0,0,8-1.8,12.89,12.89,0,0,0,5.51-5.48,18.86,18.86,0,0,0,2-9V587.17h-7.64v22.58q0,4.53-2,6.79a8.38,8.38,0,0,1-11.45,0q-2-2.26-2-6.79V587.17Z" transform="translate(-51.26 -222.15)"/><path class="cls-3" d="M1184.39,343.25,1174.09,332l10.06-11.17h-4.54l-8.47,9.78V313h-3.72v30.27h3.72v-10.1l8.59,10.1Zm-31.45-22.83a8.8,8.8,0,0,0-5.06,1.48,7.64,7.64,0,0,0-3,4.21v-5.32h-3.73v22.46h3.73v-11.9a8.2,8.2,0,0,1,1.84-5.79,6.39,6.39,0,0,1,4.91-2,6.15,6.15,0,0,1,4.66,1.8,7.16,7.16,0,0,1,1.72,5.16v12.72h3.72V330.2q0-4.74-2.41-7.26a8.39,8.39,0,0,0-6.34-2.52m-21.52,22.83h3.72V320.79h-3.72Zm-.66-29a2.14,2.14,0,0,0,.7,1.65,3,3,0,0,0,3.68,0,2.31,2.31,0,0,0,0-3.31,3,3,0,0,0-3.68,0,2.14,2.14,0,0,0-.7,1.66m-9,29h3.73V313h-3.73ZM1104.79,340a3.84,3.84,0,0,1-2.76-.8,4.21,4.21,0,0,1-.8-3V324H1107v-3.23h-5.81v-5.6h-3.76v5.6h-3.36V324h3.36v12.11c0,2.57.56,4.39,1.69,5.48a7.18,7.18,0,0,0,5.14,1.64h2.78V340Zm-22.91-19.56a8.77,8.77,0,0,0-5.05,1.48,7.61,7.61,0,0,0-3,4.21v-5.32h-3.72v22.46h3.72v-11.9a8.25,8.25,0,0,1,1.84-5.79,6.4,6.4,0,0,1,4.91-2,6.13,6.13,0,0,1,4.66,1.8,7.16,7.16,0,0,1,1.72,5.16v12.72h3.73V330.2q0-4.74-2.42-7.26a8.38,8.38,0,0,0-6.34-2.52M1061.43,331h-14.36a7.64,7.64,0,0,1,2.25-5.58,7.37,7.37,0,0,1,5.16-1.91,8,8,0,0,1,3.56.82,6.07,6.07,0,0,1,2.57,2.5,7.61,7.61,0,0,1,.82,4.17m3.76-.25a10.44,10.44,0,0,0-1.28-5.15,9.53,9.53,0,0,0-3.73-3.72,11.25,11.25,0,0,0-5.7-1.39,11.52,11.52,0,0,0-5.73,1.39,9.75,9.75,0,0,0-3.91,4,14,14,0,0,0,0,12.25,9.89,9.89,0,0,0,3.91,4,11.63,11.63,0,0,0,5.73,1.39,12,12,0,0,0,5.07-1,9.39,9.39,0,0,0,3.66-2.86,9.55,9.55,0,0,0,1.82-4.17h-4a5.65,5.65,0,0,1-2.23,3.66,7.32,7.32,0,0,1-4.52,1.37,7.15,7.15,0,0,1-5-1.92,7.86,7.86,0,0,1-2.19-5.77h18a11.07,11.07,0,0,0,.16-2.05m-35.13-10.35a8.71,8.71,0,0,0-5,1.5,8.1,8.1,0,0,0-3.15,4.23,7.83,7.83,0,0,0-3-4.27,9.09,9.09,0,0,0-9.82,0,7.26,7.26,0,0,0-2.92,4.07v-5.12h-3.73v22.46h3.73v-11.9a8.18,8.18,0,0,1,1.78-5.71,6.11,6.11,0,0,1,4.76-1.94,5.71,5.71,0,0,1,4.42,1.76,7.17,7.17,0,0,1,1.64,5.07v12.72h3.72v-11.9a8.18,8.18,0,0,1,1.78-5.71,6.07,6.07,0,0,1,4.72-1.94,5.71,5.71,0,0,1,4.44,1.76,7.21,7.21,0,0,1,1.62,5.07v12.72h3.72V330.2q0-4.74-2.39-7.26a8.33,8.33,0,0,0-6.32-2.52m-53.35.37,9.45,22.09-4.66,11h4.21l13.34-33.1h-4.13l-6.75,17.67-7.28-17.67Zm-14.68,3a7.7,7.7,0,0,1,3.94,1,7,7,0,0,1,2.73,2.89,9.27,9.27,0,0,1,1,4.33,9.17,9.17,0,0,1-1,4.32,7.16,7.16,0,0,1-2.73,2.88,7.61,7.61,0,0,1-3.94,1,7.22,7.22,0,0,1-5.5-2.18,9.83,9.83,0,0,1,0-12.07,7.19,7.19,0,0,1,5.5-2.19M961,320.51a10.12,10.12,0,0,0-5.31,1.39,9.53,9.53,0,0,0-3.67,4,14.87,14.87,0,0,0,0,12.25,9.66,9.66,0,0,0,3.67,4,10.21,10.21,0,0,0,5.31,1.39,9.25,9.25,0,0,0,5.55-1.64,8.54,8.54,0,0,0,3.17-4.38v5.73h3.72V320.79h-3.72v5.73a8.54,8.54,0,0,0-3.17-4.38,9.25,9.25,0,0,0-5.55-1.63m-25.44,3.31a7.24,7.24,0,0,1,5.54,2.19,9.83,9.83,0,0,1,0,12.07,7.27,7.27,0,0,1-5.54,2.18,7.7,7.7,0,0,1-3.93-1,7.11,7.11,0,0,1-2.74-2.88,9.17,9.17,0,0,1-1-4.32,9.27,9.27,0,0,1,1-4.33,7,7,0,0,1,2.74-2.89,7.79,7.79,0,0,1,3.93-1m1.06-3.31a9.16,9.16,0,0,0-5.54,1.65,8.45,8.45,0,0,0-3.13,4.36v-5.73h-3.72v33.1h3.72V337.52a8.41,8.41,0,0,0,3.13,4.36,9.17,9.17,0,0,0,5.54,1.66,10.25,10.25,0,0,0,5.32-1.39,9.57,9.57,0,0,0,3.66-4,14.77,14.77,0,0,0,0-12.25,9.45,9.45,0,0,0-3.66-4,10.15,10.15,0,0,0-5.32-1.39m-39.8,3.31a7.76,7.76,0,0,1,4,1,7,7,0,0,1,2.72,2.89,9.27,9.27,0,0,1,1,4.33,9.17,9.17,0,0,1-1,4.32,7.13,7.13,0,0,1-2.72,2.88,7.67,7.67,0,0,1-4,1,7.24,7.24,0,0,1-5.5-2.18,9.83,9.83,0,0,1,0-12.07,7.21,7.21,0,0,1,5.5-2.19m-1.06-3.31a10.15,10.15,0,0,0-5.32,1.39,9.45,9.45,0,0,0-3.66,4,14.77,14.77,0,0,0,0,12.25,9.57,9.57,0,0,0,3.66,4,10.25,10.25,0,0,0,5.32,1.39,9.22,9.22,0,0,0,5.54-1.64,8.54,8.54,0,0,0,3.17-4.38v5.73h3.72V320.79h-3.72v5.73a8.54,8.54,0,0,0-3.17-4.38,9.22,9.22,0,0,0-5.54-1.63m-33.79-.09a8.75,8.75,0,0,0-5,1.48,7.61,7.61,0,0,0-3,4.21V313h-3.72v30.27h3.72v-11.9a8.2,8.2,0,0,1,1.84-5.79,6.39,6.39,0,0,1,4.91-2,6.13,6.13,0,0,1,4.66,1.8,7.16,7.16,0,0,1,1.72,5.16v12.72h3.72V330.2q0-4.74-2.41-7.26a8.38,8.38,0,0,0-6.34-2.52M843.27,340a3.86,3.86,0,0,1-2.76-.8,4.21,4.21,0,0,1-.79-3V324h5.8v-3.23h-5.8v-5.6H836v5.6H832.6V324H836v12.11c0,2.57.57,4.39,1.7,5.48a7.13,7.13,0,0,0,5.13,1.64h2.79V340Zm-18.12,3.27h3.73V320.79h-3.73Zm-.65-29a2.13,2.13,0,0,0,.69,1.65,3,3,0,0,0,3.69,0,2.33,2.33,0,0,0,0-3.31,3,3,0,0,0-3.69,0,2.14,2.14,0,0,0-.69,1.66m-6.38,6.58-4.83,18.86L807,320.79h-3.88l-6.22,18.9-4.79-18.9h-3.76l6.38,22.46h4L805,325l6.18,18.29h4l6.46-22.46Zm-49.37,4.54v-4.54H765v22.46h3.73V331.43c0-2.48.66-4.26,2-5.34a7.93,7.93,0,0,1,5.15-1.62h1.15v-4.05a9.6,9.6,0,0,0-5.07,1.29,8.24,8.24,0,0,0-3.23,3.62M756.39,331H742a7.64,7.64,0,0,1,2.25-5.58,7.37,7.37,0,0,1,5.16-1.91,7.93,7.93,0,0,1,3.56.82,6,6,0,0,1,2.57,2.5,7.61,7.61,0,0,1,.82,4.17m3.76-.25a10.44,10.44,0,0,0-1.28-5.15,9.46,9.46,0,0,0-3.73-3.72,11.25,11.25,0,0,0-5.7-1.39,11.52,11.52,0,0,0-5.73,1.39,9.75,9.75,0,0,0-3.91,4,14,14,0,0,0,0,12.25,9.89,9.89,0,0,0,3.91,4,11.63,11.63,0,0,0,5.73,1.39,12,12,0,0,0,5.07-1,9.37,9.37,0,0,0,5.48-7h-4a5.61,5.61,0,0,1-2.23,3.66,7.32,7.32,0,0,1-4.52,1.37,7.15,7.15,0,0,1-5-1.92,7.86,7.86,0,0,1-2.19-5.77h18a11.07,11.07,0,0,0,.16-2.05m-34.77-10.26a8.64,8.64,0,0,0-5.68,1.73,5.66,5.66,0,0,0-2.09,4.57,5.12,5.12,0,0,0,1,3.37,6.19,6.19,0,0,0,2.54,1.82,32.78,32.78,0,0,0,4,1.15,26.21,26.21,0,0,1,3.15.86,5.06,5.06,0,0,1,1.92,1.18,2.83,2.83,0,0,1,.78,2.09,3.3,3.3,0,0,1-1.08,2.57,4.32,4.32,0,0,1-3,1,6.44,6.44,0,0,1-4.15-1.27,4.67,4.67,0,0,1-1.78-3.31h-3.6a7.64,7.64,0,0,0,3,5.35,10.51,10.51,0,0,0,6.55,1.93,8.36,8.36,0,0,0,5.5-1.72,5.53,5.53,0,0,0,2.07-4.46,5.37,5.37,0,0,0-1.09-3.52,6.23,6.23,0,0,0-2.62-1.9,30.42,30.42,0,0,0-4-1.17,31.52,31.52,0,0,1-3.08-.84,4.86,4.86,0,0,1-1.89-1.14,2.69,2.69,0,0,1-.75-2,3.23,3.23,0,0,1,1.12-2.6,4.69,4.69,0,0,1,3.13-1,5.41,5.41,0,0,1,3.79,1.29,5.1,5.1,0,0,1,1.65,3.29h3.56a8.36,8.36,0,0,0-2.8-5.34,9.08,9.08,0,0,0-6.12-2m-16.73.28v11.95a8.23,8.23,0,0,1-1.84,5.79,6.37,6.37,0,0,1-4.91,2,6.12,6.12,0,0,1-4.66-1.82,7.23,7.23,0,0,1-1.72-5.18V320.79H691.8v13.09q0,4.71,2.41,7.22a8.33,8.33,0,0,0,6.3,2.52,9.08,9.08,0,0,0,5.1-1.45,7.59,7.59,0,0,0,3-4.2v5.28h3.73V320.79Z" transform="translate(-51.26 -222.15)"/><path class="cls-3" d="M1201.7,271.42a8.62,8.62,0,0,0-5.69,1.74,5.65,5.65,0,0,0-2.08,4.56,5.05,5.05,0,0,0,1,3.37,6.06,6.06,0,0,0,2.54,1.82,30.38,30.38,0,0,0,4,1.15,26.21,26.21,0,0,1,3.15.86,5.15,5.15,0,0,1,1.93,1.18,2.86,2.86,0,0,1,.77,2.09,3.34,3.34,0,0,1-1.08,2.58,4.34,4.34,0,0,1-3,1,6.4,6.4,0,0,1-4.15-1.27,4.71,4.71,0,0,1-1.78-3.31h-3.6a7.7,7.7,0,0,0,3,5.36,10.54,10.54,0,0,0,6.54,1.92,8.33,8.33,0,0,0,5.51-1.72,5.55,5.55,0,0,0,2.06-4.46,5.38,5.38,0,0,0-1.08-3.52,6.44,6.44,0,0,0-2.62-1.9,31.07,31.07,0,0,0-4-1.16,31.05,31.05,0,0,1-3.09-.84,4.77,4.77,0,0,1-1.88-1.15,2.64,2.64,0,0,1-.76-2,3.25,3.25,0,0,1,1.13-2.6,4.67,4.67,0,0,1,3.13-1,5.38,5.38,0,0,1,3.78,1.29,5.18,5.18,0,0,1,1.66,3.29h3.56a8.32,8.32,0,0,0-2.81-5.34,9.07,9.07,0,0,0-6.11-2M1186,281.93h-14.36a7.66,7.66,0,0,1,2.25-5.58,7.37,7.37,0,0,1,5.16-1.91,7.93,7.93,0,0,1,3.56.82,6,6,0,0,1,2.57,2.5,7.63,7.63,0,0,1,.82,4.17m3.76-.24a10.47,10.47,0,0,0-1.28-5.16,9.6,9.6,0,0,0-3.73-3.72,11.25,11.25,0,0,0-5.7-1.39,11.52,11.52,0,0,0-5.73,1.39,9.81,9.81,0,0,0-3.91,4,14,14,0,0,0,0,12.25,9.89,9.89,0,0,0,3.91,4,11.63,11.63,0,0,0,5.73,1.39,12.15,12.15,0,0,0,5.07-1,9.4,9.4,0,0,0,5.48-7h-4a5.61,5.61,0,0,1-2.23,3.66,7.32,7.32,0,0,1-4.52,1.37,7.15,7.15,0,0,1-5.05-1.92,7.86,7.86,0,0,1-2.19-5.77h18a11,11,0,0,0,.16-2m-38-7a7.83,7.83,0,0,1,4,1,6.91,6.91,0,0,1,2.72,2.89,9.15,9.15,0,0,1,1,4.33,9.06,9.06,0,0,1-1,4.32,7.07,7.07,0,0,1-2.72,2.88,7.65,7.65,0,0,1-4,1,7.21,7.21,0,0,1-5.5-2.19,9.87,9.87,0,0,1,0-12.07,7.21,7.21,0,0,1,5.5-2.19m-1.06-3.31a10.18,10.18,0,0,0-5.32,1.39,9.64,9.64,0,0,0-3.66,4,14.77,14.77,0,0,0,0,12.25,9.7,9.7,0,0,0,3.66,4,10.27,10.27,0,0,0,5.32,1.39,9.22,9.22,0,0,0,5.54-1.64,8.48,8.48,0,0,0,3.17-4.38v5.73h3.73V263.89h-3.73v13.54a8.48,8.48,0,0,0-3.17-4.38,9.22,9.22,0,0,0-5.54-1.63m-18.9,22.74h3.72V271.7h-3.72Zm-.65-29a2.13,2.13,0,0,0,.69,1.65,2.61,2.61,0,0,0,1.84.64,2.58,2.58,0,0,0,1.84-.64,2.31,2.31,0,0,0,0-3.31,2.62,2.62,0,0,0-1.84-.63,2.65,2.65,0,0,0-1.84.63,2.15,2.15,0,0,0-.69,1.66m-21,6.58h-4l8.8,22.46h4.41l8.8-22.46h-4l-7,18.49Zm-17.79,3a7.79,7.79,0,0,1,3.7.9,6.8,6.8,0,0,1,2.74,2.76,9.37,9.37,0,0,1,1,4.6,9.26,9.26,0,0,1-1,4.56,6.77,6.77,0,0,1-2.74,2.77,8.08,8.08,0,0,1-7.41,0,6.77,6.77,0,0,1-2.74-2.77,9.26,9.26,0,0,1-1-4.56,9.37,9.37,0,0,1,1-4.6,6.8,6.8,0,0,1,2.74-2.76,7.83,7.83,0,0,1,3.71-.9m0-3.27a11.86,11.86,0,0,0-5.79,1.39,10,10,0,0,0-4,4,13.5,13.5,0,0,0,0,12.25,10.11,10.11,0,0,0,4,4,12.73,12.73,0,0,0,11.57,0,9.94,9.94,0,0,0,4-4,13.58,13.58,0,0,0,0-12.25,9.86,9.86,0,0,0-4-4,11.85,11.85,0,0,0-5.78-1.39m-22.17,4.82V271.7h-3.72v22.46h3.72V282.34q0-3.72,2-5.34a7.94,7.94,0,0,1,5.16-1.61h1.14v-4.05a9.67,9.67,0,0,0-5.07,1.28,8.24,8.24,0,0,0-3.23,3.62m-20-1.51a7.27,7.27,0,0,1,5.54,2.19,9.87,9.87,0,0,1,0,12.07,7.27,7.27,0,0,1-5.54,2.19,7.68,7.68,0,0,1-3.93-1,7,7,0,0,1-2.74-2.88,9.06,9.06,0,0,1-1-4.32,9.15,9.15,0,0,1,1-4.33,6.89,6.89,0,0,1,2.74-2.89,7.87,7.87,0,0,1,3.93-1m1.06-3.31a9.14,9.14,0,0,0-5.54,1.65,8.4,8.4,0,0,0-3.13,4.36V271.7H1039v33.1h3.73V288.43a8.36,8.36,0,0,0,3.13,4.36,9.08,9.08,0,0,0,5.54,1.66,10.27,10.27,0,0,0,5.32-1.39,9.7,9.7,0,0,0,3.66-4,14.77,14.77,0,0,0,0-12.25,9.64,9.64,0,0,0-3.66-4,10.18,10.18,0,0,0-5.32-1.39m-37-.08a8.84,8.84,0,0,0-5,1.47,7.61,7.61,0,0,0-3.05,4.21V271.7h-3.72v22.46h3.72v-11.9a8.2,8.2,0,0,1,1.84-5.79,6.38,6.38,0,0,1,4.91-2,6.13,6.13,0,0,1,4.66,1.8,7.14,7.14,0,0,1,1.72,5.15v12.72h3.72V281.11q0-4.74-2.41-7.26a8.37,8.37,0,0,0-6.34-2.51m-27.94,3.35a7.76,7.76,0,0,1,3.7.9,6.74,6.74,0,0,1,2.74,2.76,9.26,9.26,0,0,1,1.05,4.6,9.15,9.15,0,0,1-1.05,4.56,6.71,6.71,0,0,1-2.74,2.77,8.06,8.06,0,0,1-7.4,0,6.71,6.71,0,0,1-2.74-2.77,9.15,9.15,0,0,1-1-4.56,9.26,9.26,0,0,1,1-4.6,6.74,6.74,0,0,1,2.74-2.76,7.76,7.76,0,0,1,3.7-.9m0-3.27a11.92,11.92,0,0,0-5.79,1.39,10.1,10.1,0,0,0-4,4,13.5,13.5,0,0,0,0,12.25,10.17,10.17,0,0,0,4,4,12.75,12.75,0,0,0,11.58,0,10.06,10.06,0,0,0,4-4,13.66,13.66,0,0,0,0-12.25,10,10,0,0,0-4-4,11.92,11.92,0,0,0-5.79-1.39m-19.88,22.74h3.72V271.7h-3.72Zm-.66-29a2.14,2.14,0,0,0,.7,1.65,3,3,0,0,0,3.68,0,2.31,2.31,0,0,0,0-3.31,3,3,0,0,0-3.68,0,2.16,2.16,0,0,0-.7,1.66m-6.17,25.77a3.84,3.84,0,0,1-2.76-.8,4.15,4.15,0,0,1-.8-3V274.94H962V271.7h-5.81v-5.6h-3.76v5.6h-3.36v3.24h3.36V287c0,2.57.56,4.39,1.69,5.49a7.16,7.16,0,0,0,5.14,1.63H962v-3.27ZM934,274.73a7.8,7.8,0,0,1,3.94,1,6.91,6.91,0,0,1,2.72,2.89,9.16,9.16,0,0,1,1,4.33,9.06,9.06,0,0,1-1,4.32,7.07,7.07,0,0,1-2.72,2.88,7.62,7.62,0,0,1-3.94,1,7.19,7.19,0,0,1-5.5-2.19,9.83,9.83,0,0,1,0-12.07,7.19,7.19,0,0,1,5.5-2.19m-1.07-3.31a10.12,10.12,0,0,0-5.31,1.39,9.59,9.59,0,0,0-3.67,4,14.77,14.77,0,0,0,0,12.25,9.66,9.66,0,0,0,3.67,4,10.21,10.21,0,0,0,5.31,1.39,9.25,9.25,0,0,0,5.55-1.64,8.54,8.54,0,0,0,3.17-4.38v5.73h3.72V271.7h-3.72v5.73a8.54,8.54,0,0,0-3.17-4.38,9.25,9.25,0,0,0-5.55-1.63m-24.66,0a11.52,11.52,0,0,0-5.73,1.39,9.81,9.81,0,0,0-3.91,4,14,14,0,0,0,0,12.25,9.89,9.89,0,0,0,3.91,4,11.63,11.63,0,0,0,5.73,1.39,11,11,0,0,0,7.11-2.27,9.62,9.62,0,0,0,3.48-6.16h-3.93a5.8,5.8,0,0,1-2.23,3.81,7.81,7.81,0,0,1-8.09.49,6.51,6.51,0,0,1-2.6-2.76,11.31,11.31,0,0,1,0-9.21,6.51,6.51,0,0,1,2.6-2.76,7.2,7.2,0,0,1,3.57-.9,7.32,7.32,0,0,1,4.52,1.37,5.71,5.71,0,0,1,2.23,3.78h3.93a9.64,9.64,0,0,0-3.48-6.13,10.89,10.89,0,0,0-7.11-2.29m-19.64,22.74h3.72V271.7h-3.72Zm-.65-29a2.13,2.13,0,0,0,.69,1.65,2.61,2.61,0,0,0,1.84.64,2.58,2.58,0,0,0,1.84-.64,2.31,2.31,0,0,0,0-3.31,2.62,2.62,0,0,0-1.84-.63,2.65,2.65,0,0,0-1.84.63,2.15,2.15,0,0,0-.69,1.66m-9,29h3.72V263.89H879Zm-16.24-19.43a7.27,7.27,0,0,1,5.54,2.19,9.87,9.87,0,0,1,0,12.07,7.27,7.27,0,0,1-5.54,2.19,7.68,7.68,0,0,1-3.93-1,7,7,0,0,1-2.74-2.88,9.06,9.06,0,0,1-1-4.32,9.15,9.15,0,0,1,1-4.33,6.89,6.89,0,0,1,2.74-2.89,7.87,7.87,0,0,1,3.93-1m1.06-3.31a9.16,9.16,0,0,0-5.54,1.65,8.4,8.4,0,0,0-3.13,4.36V271.7h-3.72v33.1h3.72V288.43a8.36,8.36,0,0,0,3.13,4.36,9.1,9.1,0,0,0,5.54,1.66,10.27,10.27,0,0,0,5.32-1.39,9.7,9.7,0,0,0,3.66-4,14.77,14.77,0,0,0,0-12.25,9.64,9.64,0,0,0-3.66-4,10.18,10.18,0,0,0-5.32-1.39m-28.64,3.31a7.28,7.28,0,0,1,5.55,2.19,9.87,9.87,0,0,1,0,12.07,7.28,7.28,0,0,1-5.55,2.19,7.67,7.67,0,0,1-3.92-1,7,7,0,0,1-2.74-2.88,9.06,9.06,0,0,1-1-4.32,9.15,9.15,0,0,1,1-4.33,6.89,6.89,0,0,1,2.74-2.89,7.85,7.85,0,0,1,3.92-1m1.07-3.31a9.16,9.16,0,0,0-5.54,1.65,8.4,8.4,0,0,0-3.13,4.36V271.7H823.8v33.1h3.73V288.43a8.36,8.36,0,0,0,3.13,4.36,9.1,9.1,0,0,0,5.54,1.66,10.27,10.27,0,0,0,5.32-1.39,9.7,9.7,0,0,0,3.66-4,14.77,14.77,0,0,0,0-12.25,9.64,9.64,0,0,0-3.66-4,10.18,10.18,0,0,0-5.32-1.39m-29.7,3.31a7.86,7.86,0,0,1,4,1,7,7,0,0,1,2.72,2.89,9.27,9.27,0,0,1,1,4.33,9.17,9.17,0,0,1-1,4.32,7.13,7.13,0,0,1-2.72,2.88,7.68,7.68,0,0,1-4,1A7.21,7.21,0,0,1,801,289a9.83,9.83,0,0,1,0-12.07,7.21,7.21,0,0,1,5.5-2.19m-1.06-3.31a10.15,10.15,0,0,0-5.32,1.39,9.51,9.51,0,0,0-3.66,4,14.77,14.77,0,0,0,0,12.25,9.57,9.57,0,0,0,3.66,4,10.25,10.25,0,0,0,5.32,1.39,9.22,9.22,0,0,0,5.54-1.64,8.54,8.54,0,0,0,3.17-4.38v5.73h3.72V271.7h-3.72v5.73a8.54,8.54,0,0,0-3.17-4.38,9.22,9.22,0,0,0-5.54-1.63m-35.55,3.31a7.24,7.24,0,0,1,5.54,2.19,9.83,9.83,0,0,1,0,12.07,7.24,7.24,0,0,1-5.54,2.19,7.68,7.68,0,0,1-3.93-1,7.11,7.11,0,0,1-2.74-2.88,9.17,9.17,0,0,1-1-4.32,9.27,9.27,0,0,1,1-4.33,7,7,0,0,1,2.74-2.89,7.87,7.87,0,0,1,3.93-1m1.07-3.31a9.19,9.19,0,0,0-5.55,1.65,8.51,8.51,0,0,0-3.13,4.36V263.89h-3.72v30.27h3.72v-5.73a8.47,8.47,0,0,0,3.13,4.36,9.13,9.13,0,0,0,5.55,1.66,10.23,10.23,0,0,0,5.31-1.39,9.57,9.57,0,0,0,3.66-4,14.77,14.77,0,0,0,0-12.25,9.51,9.51,0,0,0-3.66-4,10.14,10.14,0,0,0-5.31-1.39m-21,10.51H735.57a7.66,7.66,0,0,1,2.25-5.58,7.37,7.37,0,0,1,5.16-1.91,7.88,7.88,0,0,1,3.55.82,6,6,0,0,1,2.58,2.5,7.63,7.63,0,0,1,.82,4.17m3.76-.24a10.48,10.48,0,0,0-1.29-5.16,9.64,9.64,0,0,0-3.72-3.72,11.25,11.25,0,0,0-5.7-1.39,11.52,11.52,0,0,0-5.73,1.39,9.75,9.75,0,0,0-3.91,4,14,14,0,0,0,0,12.25,9.82,9.82,0,0,0,3.91,4,11.63,11.63,0,0,0,5.73,1.39,12.15,12.15,0,0,0,5.07-1,9.4,9.4,0,0,0,5.48-7h-4a5.61,5.61,0,0,1-2.23,3.66,7.32,7.32,0,0,1-4.52,1.37,7.15,7.15,0,0,1-5-1.92,7.86,7.86,0,0,1-2.19-5.77h18a11,11,0,0,0,.16-2m-29.12-16.37L719,289.74l-6.83-24.42H708l-6.83,24.51-5.52-24.51h-4.14l7.37,28.84h4.54l6.67-23.56,6.66,23.56h4.55l7.32-28.84Zm-50.24,28.84h4.5v-4.38h-4.5Zm-13.09-29.61a10,10,0,0,0-7,2.31,9.06,9.06,0,0,0-2.84,6.4h3.64a6,6,0,0,1,2-4.15,6.2,6.2,0,0,1,4.13-1.41A5.41,5.41,0,0,1,665,269a4.65,4.65,0,0,1,1.39,3.52q0,5-7.53,5h-1v3.11h1a10.72,10.72,0,0,1,6,1.41,4.64,4.64,0,0,1,2.11,4.11,4.87,4.87,0,0,1-1.47,3.67,5.86,5.86,0,0,1-4.22,1.41,6.43,6.43,0,0,1-4.6-1.6,6.92,6.92,0,0,1-2.06-4.29h-3.69a9.84,9.84,0,0,0,3.26,6.77,10.86,10.86,0,0,0,7.22,2.31q4.46,0,6.83-2.25a7.66,7.66,0,0,0,2.37-5.81,6.29,6.29,0,0,0-1.78-4.75,10.91,10.91,0,0,0-4.93-2.53v-.25a6.83,6.83,0,0,0,4.6-2.21,6.73,6.73,0,0,0,1.58-4.54,7.44,7.44,0,0,0-1-3.88,7,7,0,0,0-3-2.7,10.72,10.72,0,0,0-4.79-1" transform="translate(-51.26 -222.15)"/><path class="cls-3" d="M1869.49,855.31a3.84,3.84,0,0,1-2.76-.8,4.21,4.21,0,0,1-.8-3V839.35h5.81v-3.23h-5.81v-5.6h-3.76v5.6h-3.35v3.23h3.35v12.11c0,2.57.57,4.39,1.7,5.48a7.09,7.09,0,0,0,5.13,1.64h2.78v-3.27Zm-22.9-19.56a8.88,8.88,0,0,0-5.06,1.48,7.6,7.6,0,0,0-3,4.21v-5.32h-3.73v22.46h3.73v-11.9a8.2,8.2,0,0,1,1.84-5.79,6.37,6.37,0,0,1,4.91-2,6.15,6.15,0,0,1,4.66,1.8,7.21,7.21,0,0,1,1.72,5.16v12.72h3.72V845.53q0-4.74-2.41-7.26a8.39,8.39,0,0,0-6.34-2.52m-20.46,10.6h-14.36a7.66,7.66,0,0,1,2.25-5.58,7.37,7.37,0,0,1,5.16-1.91,7.93,7.93,0,0,1,3.56.82,6,6,0,0,1,2.57,2.5,7.63,7.63,0,0,1,.82,4.17m3.77-.25a10.44,10.44,0,0,0-1.29-5.15,9.53,9.53,0,0,0-3.73-3.72,11.25,11.25,0,0,0-5.7-1.39,11.52,11.52,0,0,0-5.73,1.39,9.81,9.81,0,0,0-3.91,4,14,14,0,0,0,0,12.25,10,10,0,0,0,3.91,4,11.63,11.63,0,0,0,5.73,1.39,12,12,0,0,0,5.07-1,9.37,9.37,0,0,0,5.48-7h-4a5.61,5.61,0,0,1-2.23,3.66,7.32,7.32,0,0,1-4.52,1.37,7.15,7.15,0,0,1-5-1.92,7.94,7.94,0,0,1-2.19-5.77h18a10.92,10.92,0,0,0,.17-2m-35.14-10.35a8.66,8.66,0,0,0-5,1.5,3.24,3.24,0,1,1-6.16,0,9.09,9.09,0,0,0-9.82,0,7.26,7.26,0,0,0-2.92,4.07v-5.12h-3.73v22.46h3.73v-11.9a8.18,8.18,0,0,1,1.78-5.71,6.14,6.14,0,0,1,4.76-1.94,5.71,5.71,0,0,1,4.42,1.76,7.17,7.17,0,0,1,1.64,5.07v12.72h3.72v-11.9A8.18,8.18,0,0,1,1789,841a6.1,6.1,0,0,1,4.72-1.94,5.71,5.71,0,0,1,4.44,1.76,7.21,7.21,0,0,1,1.62,5.07v12.72h3.72V845.53q0-4.74-2.39-7.26a8.33,8.33,0,0,0-6.32-2.52m-53.34.37,9.45,22.09-4.67,11h4.22l13.33-33.1h-4.13l-6.75,17.67-7.28-17.67Zm-14.69,3a7.76,7.76,0,0,1,4,1,6.91,6.91,0,0,1,2.72,2.89,9.27,9.27,0,0,1,1,4.33,9.17,9.17,0,0,1-1,4.32,7.07,7.07,0,0,1-2.72,2.88,7.67,7.67,0,0,1-4,1,7.2,7.2,0,0,1-5.5-2.18,9.83,9.83,0,0,1,0-12.07,7.21,7.21,0,0,1,5.5-2.19m-1.06-3.31a10.15,10.15,0,0,0-5.32,1.39,9.58,9.58,0,0,0-3.66,4,14.77,14.77,0,0,0,0,12.25,9.7,9.7,0,0,0,3.66,4,10.25,10.25,0,0,0,5.32,1.39,9.22,9.22,0,0,0,5.54-1.64,8.54,8.54,0,0,0,3.17-4.38v5.73h3.72V836.12h-3.72v5.73a8.54,8.54,0,0,0-3.17-4.38,9.22,9.22,0,0,0-5.54-1.63m-25.45,3.31a7.28,7.28,0,0,1,5.55,2.19,9.87,9.87,0,0,1,0,12.07,7.27,7.27,0,0,1-5.55,2.18,7.67,7.67,0,0,1-3.92-1,7,7,0,0,1-2.74-2.88,9.06,9.06,0,0,1-1-4.32,9.16,9.16,0,0,1,1-4.33,6.83,6.83,0,0,1,2.74-2.89,7.75,7.75,0,0,1,3.92-1m1.07-3.31a9.21,9.21,0,0,0-5.55,1.65,8.44,8.44,0,0,0-3.12,4.36v-5.73h-3.73v33.1h3.73V852.85a8.4,8.4,0,0,0,3.12,4.36,9.15,9.15,0,0,0,5.55,1.66,10.27,10.27,0,0,0,5.32-1.39,9.7,9.7,0,0,0,3.66-4,14.77,14.77,0,0,0,0-12.25,9.58,9.58,0,0,0-3.66-4,10.18,10.18,0,0,0-5.32-1.39m-31.13,10.51H1655.8a7.66,7.66,0,0,1,2.25-5.58,7.36,7.36,0,0,1,5.15-1.91,7.89,7.89,0,0,1,3.56.82,6,6,0,0,1,2.58,2.5,7.63,7.63,0,0,1,.82,4.17m3.76-.25a10.44,10.44,0,0,0-1.29-5.15,9.57,9.57,0,0,0-3.72-3.72,11.26,11.26,0,0,0-5.71-1.39,11.51,11.51,0,0,0-5.72,1.39,9.69,9.69,0,0,0-3.91,4,14,14,0,0,0,0,12.25,9.82,9.82,0,0,0,3.91,4,11.62,11.62,0,0,0,5.72,1.39,12,12,0,0,0,5.08-1,9.39,9.39,0,0,0,3.66-2.86,9.55,9.55,0,0,0,1.82-4.17h-4a5.65,5.65,0,0,1-2.23,3.66,7.32,7.32,0,0,1-4.52,1.37,7.15,7.15,0,0,1-5-1.92,7.86,7.86,0,0,1-2.19-5.77h18a11,11,0,0,0,.16-2m-35.14-10.35a8.85,8.85,0,0,0-5,1.48,7.66,7.66,0,0,0-3,4.21V828.31H1627v30.27h3.72v-11.9a8.25,8.25,0,0,1,1.84-5.79,6.4,6.4,0,0,1,4.91-2,6.15,6.15,0,0,1,4.67,1.8,7.2,7.2,0,0,1,1.71,5.16v12.72h3.73V845.53q0-4.74-2.42-7.26a8.38,8.38,0,0,0-6.34-2.52m-18.65,19.56a3.84,3.84,0,0,1-2.76-.8,4.21,4.21,0,0,1-.8-3V839.35h5.81v-3.23h-5.81v-5.6h-3.76v5.6h-3.36v3.23h3.36v12.11c0,2.57.56,4.39,1.69,5.48a7.13,7.13,0,0,0,5.14,1.64h2.78v-3.27Zm-27.16-9h-14.36a7.66,7.66,0,0,1,2.25-5.58,7.36,7.36,0,0,1,5.15-1.91,7.93,7.93,0,0,1,3.56.82,6,6,0,0,1,2.58,2.5,7.63,7.63,0,0,1,.82,4.17m3.76-.25a10.44,10.44,0,0,0-1.29-5.15,9.57,9.57,0,0,0-3.72-3.72,11.29,11.29,0,0,0-5.71-1.39,11.51,11.51,0,0,0-5.72,1.39,9.69,9.69,0,0,0-3.91,4,14,14,0,0,0,0,12.25,9.82,9.82,0,0,0,3.91,4,11.62,11.62,0,0,0,5.72,1.39,12,12,0,0,0,5.07-1,9.35,9.35,0,0,0,5.49-7h-4a5.65,5.65,0,0,1-2.23,3.66,7.32,7.32,0,0,1-4.52,1.37,7.13,7.13,0,0,1-5-1.92,7.86,7.86,0,0,1-2.19-5.77h18a11,11,0,0,0,.16-2m-27.49,9.21a3.84,3.84,0,0,1-2.76-.8,4.21,4.21,0,0,1-.8-3V839.35h5.81v-3.23h-5.81v-5.6h-3.76v5.6h-3.36v3.23h3.36v12.11c0,2.57.56,4.39,1.7,5.48a7.09,7.09,0,0,0,5.13,1.64h2.78v-3.27Zm-17-9h-14.36a7.62,7.62,0,0,1,2.25-5.58,7.36,7.36,0,0,1,5.15-1.91,7.93,7.93,0,0,1,3.56.82,6,6,0,0,1,2.58,2.5,7.72,7.72,0,0,1,.82,4.17m3.76-.25a10.44,10.44,0,0,0-1.29-5.15,9.57,9.57,0,0,0-3.72-3.72,11.29,11.29,0,0,0-5.71-1.39,11.55,11.55,0,0,0-5.73,1.39,9.73,9.73,0,0,0-3.9,4,14,14,0,0,0,0,12.25,9.86,9.86,0,0,0,3.9,4,11.66,11.66,0,0,0,5.73,1.39,12,12,0,0,0,5.07-1,9.41,9.41,0,0,0,5.49-7h-4a5.69,5.69,0,0,1-2.23,3.66,7.34,7.34,0,0,1-4.52,1.37,7.13,7.13,0,0,1-5-1.92,7.86,7.86,0,0,1-2.19-5.77h18a11.93,11.93,0,0,0,.16-2m-30.35,12.48h3.72V828.31h-3.72Zm-16.24-19.43a7.27,7.27,0,0,1,5.54,2.19,9.87,9.87,0,0,1,0,12.07,7.26,7.26,0,0,1-5.54,2.18,7.68,7.68,0,0,1-3.93-1,7,7,0,0,1-2.74-2.88,9.06,9.06,0,0,1-1-4.32,9.15,9.15,0,0,1,1-4.33,6.89,6.89,0,0,1,2.74-2.89,7.76,7.76,0,0,1,3.93-1m1.06-3.31a9.16,9.16,0,0,0-5.54,1.65,8.4,8.4,0,0,0-3.13,4.36v-5.73H1498v33.1h3.73V852.85a8.36,8.36,0,0,0,3.13,4.36,9.1,9.1,0,0,0,5.54,1.66,10.27,10.27,0,0,0,5.32-1.39,9.7,9.7,0,0,0,3.66-4,14.77,14.77,0,0,0,0-12.25,9.58,9.58,0,0,0-3.66-4,10.18,10.18,0,0,0-5.32-1.39m-26.88-.09a8.7,8.7,0,0,0-5,1.5,8.1,8.1,0,0,0-3.15,4.23,7.92,7.92,0,0,0-3-4.27,9.09,9.09,0,0,0-9.82,0,7.27,7.27,0,0,0-2.93,4.07v-5.12h-3.72v22.46h3.72v-11.9a8.22,8.22,0,0,1,1.78-5.71,6.18,6.18,0,0,1,4.77-1.94,5.73,5.73,0,0,1,4.42,1.76,7.17,7.17,0,0,1,1.63,5.07v12.72H1476v-11.9a8.18,8.18,0,0,1,1.78-5.71,6.1,6.1,0,0,1,4.72-1.94,5.71,5.71,0,0,1,4.44,1.76,7.21,7.21,0,0,1,1.61,5.07v12.72h3.73V845.53q0-4.74-2.4-7.26a8.3,8.3,0,0,0-6.32-2.52m-43.73,3.36a7.83,7.83,0,0,1,3.71.9,6.8,6.8,0,0,1,2.74,2.76,9.37,9.37,0,0,1,1,4.6,9.26,9.26,0,0,1-1,4.56,6.8,6.8,0,0,1-2.74,2.76,8.08,8.08,0,0,1-7.41,0,6.8,6.8,0,0,1-2.74-2.76,9.26,9.26,0,0,1-1-4.56,9.37,9.37,0,0,1,1-4.6,6.8,6.8,0,0,1,2.74-2.76,7.79,7.79,0,0,1,3.7-.9m0-3.27a11.85,11.85,0,0,0-5.78,1.39,10,10,0,0,0-4,4,13.41,13.41,0,0,0,0,12.25,10.11,10.11,0,0,0,4,4,12.73,12.73,0,0,0,11.57,0,10,10,0,0,0,4-4,13.66,13.66,0,0,0,0-12.25,9.86,9.86,0,0,0-4-4,11.86,11.86,0,0,0-5.79-1.39m-25.64,0a11.52,11.52,0,0,0-5.73,1.39,9.69,9.69,0,0,0-3.91,4,14,14,0,0,0,0,12.25,9.82,9.82,0,0,0,3.91,4,11.63,11.63,0,0,0,5.73,1.39,11,11,0,0,0,7.11-2.27,9.7,9.7,0,0,0,3.48-6.16h-3.93a5.75,5.75,0,0,1-2.23,3.8,7.81,7.81,0,0,1-8.1.5,6.52,6.52,0,0,1-2.59-2.77,11.18,11.18,0,0,1,0-9.2,6.55,6.55,0,0,1,2.59-2.76,7.24,7.24,0,0,1,3.58-.9,7.32,7.32,0,0,1,4.52,1.37,5.69,5.69,0,0,1,2.23,3.78h3.93a9.71,9.71,0,0,0-3.48-6.13,10.89,10.89,0,0,0-7.11-2.29" transform="translate(-51.26 -222.15)"/><path class="cls-3" d="M1745.55,790a7.76,7.76,0,0,1,3.7.9,6.74,6.74,0,0,1,2.74,2.76,10.54,10.54,0,0,1,0,9.17,6.74,6.74,0,0,1-2.74,2.76,8.06,8.06,0,0,1-7.4,0,6.74,6.74,0,0,1-2.74-2.76,10.54,10.54,0,0,1,0-9.17,6.74,6.74,0,0,1,2.74-2.76,7.76,7.76,0,0,1,3.7-.9m0-3.27a11.89,11.89,0,0,0-5.79,1.39,10.1,10.1,0,0,0-4,4,13.5,13.5,0,0,0,0,12.25,10.17,10.17,0,0,0,4,4,12.75,12.75,0,0,0,11.58,0,10.06,10.06,0,0,0,4-4,13.66,13.66,0,0,0,0-12.25,10,10,0,0,0-4-4,11.92,11.92,0,0,0-5.79-1.39m-17,19.47a3.84,3.84,0,0,1-2.76-.8,4.2,4.2,0,0,1-.8-3V790.27h5.81V787H1725v-5.61h-3.76V787h-3.35v3.23h3.35v12.11q0,3.84,1.7,5.48a7.13,7.13,0,0,0,5.13,1.63h2.78v-3.27Zm-27.16-9H1687a7.68,7.68,0,0,1,2.25-5.58,7.36,7.36,0,0,1,5.16-1.9,7.88,7.88,0,0,1,3.55.81,6,6,0,0,1,2.58,2.5,7.63,7.63,0,0,1,.82,4.17m3.76-.24a10.48,10.48,0,0,0-1.29-5.16,9.57,9.57,0,0,0-3.72-3.72,11.25,11.25,0,0,0-5.7-1.39,11.52,11.52,0,0,0-5.73,1.39,9.75,9.75,0,0,0-3.91,4,14,14,0,0,0,0,12.25,9.82,9.82,0,0,0,3.91,4,11.52,11.52,0,0,0,5.73,1.39,12.15,12.15,0,0,0,5.07-1,9.5,9.5,0,0,0,3.66-2.87,9.34,9.34,0,0,0,1.82-4.17h-4a5.61,5.61,0,0,1-2.23,3.66,7.25,7.25,0,0,1-4.52,1.37,7.15,7.15,0,0,1-5-1.92,7.84,7.84,0,0,1-2.19-5.77h18a11,11,0,0,0,.16-2m-38-7a7.86,7.86,0,0,1,3.95,1,7,7,0,0,1,2.72,2.89,9.27,9.27,0,0,1,1,4.33,9.17,9.17,0,0,1-1,4.32,7.13,7.13,0,0,1-2.72,2.88,7.58,7.58,0,0,1-3.95,1,7.21,7.21,0,0,1-5.5-2.19,9.83,9.83,0,0,1,0-12.07,7.21,7.21,0,0,1,5.5-2.19m-1.06-3.31a10.15,10.15,0,0,0-5.32,1.39,9.64,9.64,0,0,0-3.66,4,14.77,14.77,0,0,0,0,12.25,9.7,9.7,0,0,0,3.66,4,10.15,10.15,0,0,0,5.32,1.39,9.22,9.22,0,0,0,5.54-1.64,8.56,8.56,0,0,0,3.17-4.37v6.09a7.24,7.24,0,0,1-2,5.42,6.87,6.87,0,0,1-5,1.94,8,8,0,0,1-4.69-1.28,6.36,6.36,0,0,1-2.47-3.54H1657a9.62,9.62,0,0,0,3.64,5.91,11.83,11.83,0,0,0,7.4,2.19,11,11,0,0,0,5.52-1.35,9.4,9.4,0,0,0,3.68-3.77,11.32,11.32,0,0,0,1.31-5.52V787h-3.72v5.72a8.58,8.58,0,0,0-3.17-4.38,9.22,9.22,0,0,0-5.54-1.63m-26.51,3.31a7.86,7.86,0,0,1,4,1,7,7,0,0,1,2.72,2.89,9.27,9.27,0,0,1,1,4.33,9.17,9.17,0,0,1-1,4.32,7.13,7.13,0,0,1-2.72,2.88,7.58,7.58,0,0,1-4,1,7.21,7.21,0,0,1-5.5-2.19,9.83,9.83,0,0,1,0-12.07,7.21,7.21,0,0,1,5.5-2.19m-1.06-3.31a10.15,10.15,0,0,0-5.32,1.39,9.51,9.51,0,0,0-3.66,4,14.77,14.77,0,0,0,0,12.25,9.57,9.57,0,0,0,3.66,4,10.15,10.15,0,0,0,5.32,1.39,9.22,9.22,0,0,0,5.54-1.64,8.56,8.56,0,0,0,3.17-4.37v5.72H1651V787h-3.72v5.72a8.58,8.58,0,0,0-3.17-4.38,9.22,9.22,0,0,0-5.54-1.63m-25.45,3.31a7.28,7.28,0,0,1,5.55,2.19,9.87,9.87,0,0,1,0,12.07,7.28,7.28,0,0,1-5.55,2.19,7.58,7.58,0,0,1-3.92-1,7.07,7.07,0,0,1-2.75-2.88,9.17,9.17,0,0,1-1-4.32,9.27,9.27,0,0,1,1-4.33,6.92,6.92,0,0,1,2.75-2.89,7.85,7.85,0,0,1,3.92-1m1.07-3.31a9.13,9.13,0,0,0-5.55,1.66,8.44,8.44,0,0,0-3.13,4.35V787h-3.72v33.09h3.72V803.77a8.44,8.44,0,0,0,3.13,4.35,9.13,9.13,0,0,0,5.55,1.66,10.12,10.12,0,0,0,5.31-1.39,9.66,9.66,0,0,0,3.67-4,14.87,14.87,0,0,0,0-12.25,9.59,9.59,0,0,0-3.67-4,10.12,10.12,0,0,0-5.31-1.39m-29.33,19.47a3.88,3.88,0,0,1-2.77-.8,4.2,4.2,0,0,1-.79-3V790.27h5.81V787h-5.81v-5.61h-3.77V787h-3.35v3.23h3.35v12.11q0,3.84,1.7,5.48a7.13,7.13,0,0,0,5.13,1.63h2.79v-3.27Zm-22.91-19.55a8.82,8.82,0,0,0-5.05,1.47,7.65,7.65,0,0,0-3,4.21V787h-3.72v22.45h3.72v-11.9a8.25,8.25,0,0,1,1.84-5.79,6.4,6.4,0,0,1,4.91-2,6.13,6.13,0,0,1,4.66,1.8,7.14,7.14,0,0,1,1.72,5.15v12.72h3.73v-13q0-4.74-2.42-7.26a8.4,8.4,0,0,0-6.34-2.51m-20.45,10.59h-14.36a7.68,7.68,0,0,1,2.25-5.58,7.35,7.35,0,0,1,5.15-1.9,7.89,7.89,0,0,1,3.56.81,6,6,0,0,1,2.58,2.5,7.63,7.63,0,0,1,.82,4.17m3.76-.24a10.48,10.48,0,0,0-1.29-5.16,9.64,9.64,0,0,0-3.72-3.72,11.26,11.26,0,0,0-5.71-1.39,11.51,11.51,0,0,0-5.72,1.39,9.75,9.75,0,0,0-3.91,4,14,14,0,0,0,0,12.25,9.82,9.82,0,0,0,3.91,4,11.51,11.51,0,0,0,5.72,1.39,12.16,12.16,0,0,0,5.08-1,9.4,9.4,0,0,0,5.48-7h-4a5.65,5.65,0,0,1-2.23,3.66,7.25,7.25,0,0,1-4.52,1.37,7.15,7.15,0,0,1-5-1.92,7.84,7.84,0,0,1-2.19-5.77h18a11,11,0,0,0,.16-2m-35.14-10.35a8.67,8.67,0,0,0-5,1.49,8.18,8.18,0,0,0-3.15,4.23,7.92,7.92,0,0,0-3-4.27,9.14,9.14,0,0,0-9.82,0,7.3,7.3,0,0,0-2.93,4.07V787h-3.72v22.45h3.72v-11.9a8.22,8.22,0,0,1,1.78-5.71,6.18,6.18,0,0,1,4.77-1.94,5.78,5.78,0,0,1,4.42,1.76,7.17,7.17,0,0,1,1.63,5.07v12.72h3.72v-11.9a8.22,8.22,0,0,1,1.78-5.71,6.14,6.14,0,0,1,4.73-1.94,5.75,5.75,0,0,1,4.44,1.76,7.26,7.26,0,0,1,1.61,5.07v12.72h3.73v-13q0-4.74-2.4-7.26a8.33,8.33,0,0,0-6.32-2.51m-53.34.37,9.45,22.08-4.66,11h4.21L1479.08,787H1475l-6.75,17.67L1460.92,787Zm-14.69,3a7.83,7.83,0,0,1,4,1,6.91,6.91,0,0,1,2.72,2.89,9.15,9.15,0,0,1,1,4.33,9.06,9.06,0,0,1-1,4.32,7.07,7.07,0,0,1-2.72,2.88,7.56,7.56,0,0,1-4,1,7.21,7.21,0,0,1-5.5-2.19,9.87,9.87,0,0,1,0-12.07,7.21,7.21,0,0,1,5.5-2.19m-1.06-3.31a10.18,10.18,0,0,0-5.32,1.39,9.64,9.64,0,0,0-3.66,4,14.77,14.77,0,0,0,0,12.25,9.7,9.7,0,0,0,3.66,4,10.18,10.18,0,0,0,5.32,1.39,9.22,9.22,0,0,0,5.54-1.64,8.5,8.5,0,0,0,3.17-4.37v5.72h3.73V787h-3.73v5.72a8.52,8.52,0,0,0-3.17-4.38,9.22,9.22,0,0,0-5.54-1.63m-25.44,3.31a7.27,7.27,0,0,1,5.54,2.19,9.87,9.87,0,0,1,0,12.07,7.27,7.27,0,0,1-5.54,2.19,7.59,7.59,0,0,1-3.93-1,7,7,0,0,1-2.74-2.88,9.06,9.06,0,0,1-1-4.32,9.15,9.15,0,0,1,1-4.33,6.89,6.89,0,0,1,2.74-2.89,7.87,7.87,0,0,1,3.93-1m1.06-3.31a9.1,9.1,0,0,0-5.54,1.66,8.33,8.33,0,0,0-3.13,4.35V787h-3.73v33.09H1408V803.77a8.33,8.33,0,0,0,3.13,4.35,9.1,9.1,0,0,0,5.54,1.66,10.18,10.18,0,0,0,5.32-1.39,9.7,9.7,0,0,0,3.66-4,14.77,14.77,0,0,0,0-12.25,9.64,9.64,0,0,0-3.66-4,10.18,10.18,0,0,0-5.32-1.39" transform="translate(-51.26 -222.15)"/><path class="cls-3" d="M1795.78,740.93a7.76,7.76,0,0,1,3.7.9,6.74,6.74,0,0,1,2.74,2.76,9.27,9.27,0,0,1,1,4.61,9.15,9.15,0,0,1-1,4.56,6.74,6.74,0,0,1-2.74,2.76,8.06,8.06,0,0,1-7.4,0,6.74,6.74,0,0,1-2.74-2.76,9.15,9.15,0,0,1-1-4.56,9.27,9.27,0,0,1,1-4.61,6.74,6.74,0,0,1,2.74-2.76,7.76,7.76,0,0,1,3.7-.9m0-3.27a11.92,11.92,0,0,0-5.79,1.39,10.1,10.1,0,0,0-4,4,12.34,12.34,0,0,0-1.47,6.14,12.2,12.2,0,0,0,1.47,6.11,10.17,10.17,0,0,0,4,4,12.75,12.75,0,0,0,11.58,0,10.06,10.06,0,0,0,4-4,12.3,12.3,0,0,0,1.45-6.11,12.44,12.44,0,0,0-1.45-6.14,10,10,0,0,0-4-4,11.92,11.92,0,0,0-5.79-1.39m-17,19.47a3.79,3.79,0,0,1-2.76-.8,4.2,4.2,0,0,1-.8-3V741.18H1781V738h-5.81v-5.61h-3.76V738h-3.35v3.23h3.35v12.11q0,3.84,1.7,5.48a7.13,7.13,0,0,0,5.13,1.63h2.78v-3.27ZM1742.93,741a7.76,7.76,0,0,1,4,1,7,7,0,0,1,2.72,2.88,9.29,9.29,0,0,1,1,4.34,9.16,9.16,0,0,1-1,4.31,7.22,7.22,0,0,1-2.72,2.89,7.67,7.67,0,0,1-4,1,7.19,7.19,0,0,1-5.5-2.19,9.83,9.83,0,0,1,0-12.07,7.19,7.19,0,0,1,5.5-2.19m-1.06-3.31a10.13,10.13,0,0,0-5.32,1.39,9.51,9.51,0,0,0-3.66,4,13.36,13.36,0,0,0-1.33,6.14,13.2,13.2,0,0,0,1.33,6.11,9.57,9.57,0,0,0,3.66,4,10.13,10.13,0,0,0,5.32,1.39,9.18,9.18,0,0,0,5.54-1.64,8.56,8.56,0,0,0,3.17-4.37v5.72h3.72V730.13h-3.72v13.54a8.56,8.56,0,0,0-3.17-4.37,9.24,9.24,0,0,0-5.54-1.64M1724,748.17h-14.36a7.68,7.68,0,0,1,2.25-5.58,7.36,7.36,0,0,1,5.16-1.9,7.75,7.75,0,0,1,3.55.82,5.9,5.9,0,0,1,2.58,2.49,7.63,7.63,0,0,1,.82,4.17m3.76-.24a10.51,10.51,0,0,0-1.29-5.16,9.57,9.57,0,0,0-3.72-3.72,11.25,11.25,0,0,0-5.7-1.39,11.52,11.52,0,0,0-5.73,1.39,9.75,9.75,0,0,0-3.91,4,12.77,12.77,0,0,0-1.41,6.14,12.62,12.62,0,0,0,1.41,6.11,9.82,9.82,0,0,0,3.91,4,11.52,11.52,0,0,0,5.73,1.39,12.15,12.15,0,0,0,5.07-1,9.4,9.4,0,0,0,5.48-7h-4a5.61,5.61,0,0,1-2.23,3.66,7.25,7.25,0,0,1-4.52,1.37,7.15,7.15,0,0,1-5.05-1.92,7.84,7.84,0,0,1-2.19-5.77h18a11,11,0,0,0,.16-2m-27.48,9.2a3.79,3.79,0,0,1-2.76-.8,4.15,4.15,0,0,1-.8-3V741.18h5.81V738h-5.81v-5.61H1693V738h-3.35v3.23H1693v12.11q0,3.84,1.7,5.48a7.16,7.16,0,0,0,5.14,1.63h2.78v-3.27Zm-23.89-19.47a11.52,11.52,0,0,0-5.73,1.39,9.81,9.81,0,0,0-3.91,4,12.77,12.77,0,0,0-1.41,6.14,12.62,12.62,0,0,0,1.41,6.11,9.89,9.89,0,0,0,3.91,4,11.52,11.52,0,0,0,5.73,1.39,11,11,0,0,0,7.12-2.27,9.62,9.62,0,0,0,3.47-6.16h-3.92a5.88,5.88,0,0,1-2.23,3.81,7.83,7.83,0,0,1-8.1.49,6.51,6.51,0,0,1-2.6-2.76,11.31,11.31,0,0,1,0-9.21,6.51,6.51,0,0,1,2.6-2.76,7.21,7.21,0,0,1,3.58-.9,7.34,7.34,0,0,1,4.52,1.37,5.81,5.81,0,0,1,2.23,3.79H1687a9.67,9.67,0,0,0-3.47-6.14,10.94,10.94,0,0,0-7.12-2.29m-18.57,10.51h-14.36a7.68,7.68,0,0,1,2.25-5.58,7.35,7.35,0,0,1,5.15-1.9,7.8,7.8,0,0,1,3.56.82A6,6,0,0,1,1657,744a7.72,7.72,0,0,1,.82,4.17m3.76-.24a10.51,10.51,0,0,0-1.29-5.16,9.64,9.64,0,0,0-3.72-3.72,11.29,11.29,0,0,0-5.71-1.39,11.58,11.58,0,0,0-5.73,1.39,9.79,9.79,0,0,0-3.9,4,12.77,12.77,0,0,0-1.41,6.14,12.62,12.62,0,0,0,1.41,6.11,9.86,9.86,0,0,0,3.9,4,11.58,11.58,0,0,0,5.73,1.39,12.15,12.15,0,0,0,5.07-1,9.39,9.39,0,0,0,5.49-7h-4a5.69,5.69,0,0,1-2.23,3.66,7.27,7.27,0,0,1-4.52,1.37,7.13,7.13,0,0,1-5-1.92,7.84,7.84,0,0,1-2.19-5.77h18a11.89,11.89,0,0,0,.16-2M1629,742.49V738h-3.73V760.4H1629V748.58c0-2.48.66-4.26,2-5.34a8,8,0,0,1,5.15-1.61h1.15v-4a9.6,9.6,0,0,0-5.07,1.29,8.18,8.18,0,0,0-3.23,3.62m-13.42,17.91h3.72V738h-3.72Zm-.66-29a2.17,2.17,0,0,0,.7,1.66,3,3,0,0,0,3.68,0,2.32,2.32,0,0,0,0-3.32,3,3,0,0,0-3.68,0,2.17,2.17,0,0,0-.7,1.66M1598.24,741a7.74,7.74,0,0,1,4,1,6.89,6.89,0,0,1,2.72,2.88,9.17,9.17,0,0,1,1,4.34,9,9,0,0,1-1,4.31,7.16,7.16,0,0,1-2.72,2.89,7.65,7.65,0,0,1-4,1,7.21,7.21,0,0,1-5.5-2.19,9.87,9.87,0,0,1,0-12.07,7.21,7.21,0,0,1,5.5-2.19m-1.06-3.31a10.18,10.18,0,0,0-5.32,1.39,9.64,9.64,0,0,0-3.66,4,13.48,13.48,0,0,0-1.33,6.14,13.33,13.33,0,0,0,1.33,6.11,9.7,9.7,0,0,0,3.66,4,10.18,10.18,0,0,0,5.32,1.39,9.16,9.16,0,0,0,5.54-1.64,8.5,8.5,0,0,0,3.17-4.37v5.72h3.73V730.13h-3.73v13.54a8.5,8.5,0,0,0-3.17-4.37,9.22,9.22,0,0,0-5.54-1.64m-17.83,10.51H1565a7.68,7.68,0,0,1,2.25-5.58,7.35,7.35,0,0,1,5.15-1.9,7.8,7.8,0,0,1,3.56.82,6,6,0,0,1,2.58,2.49,7.72,7.72,0,0,1,.82,4.17m3.76-.24a10.51,10.51,0,0,0-1.29-5.16,9.64,9.64,0,0,0-3.72-3.72,11.31,11.31,0,0,0-5.71-1.39,11.58,11.58,0,0,0-5.73,1.39,9.79,9.79,0,0,0-3.9,4,12.77,12.77,0,0,0-1.41,6.14,12.62,12.62,0,0,0,1.41,6.11,9.86,9.86,0,0,0,3.9,4,11.58,11.58,0,0,0,5.73,1.39,12.15,12.15,0,0,0,5.07-1,9.41,9.41,0,0,0,3.66-2.87,9.23,9.23,0,0,0,1.82-4.17h-4a5.69,5.69,0,0,1-2.23,3.66,7.27,7.27,0,0,1-4.52,1.37,7.13,7.13,0,0,1-5-1.92A7.84,7.84,0,0,1,1565,750h18a10.88,10.88,0,0,0,.17-2m-32.65-5.44V738h-3.72V760.4h3.72V748.58q0-3.72,2-5.34a8,8,0,0,1,5.15-1.61h1.15v-4a9.58,9.58,0,0,0-5.07,1.29,8.26,8.26,0,0,0-3.24,3.62m-27.93-4.83a8.62,8.62,0,0,0-5.69,1.74,5.66,5.66,0,0,0-2.09,4.56,5.05,5.05,0,0,0,1,3.37,6.11,6.11,0,0,0,2.53,1.83,31.28,31.28,0,0,0,4,1.14,28.24,28.24,0,0,1,3.15.86,5,5,0,0,1,1.92,1.19,2.79,2.79,0,0,1,.78,2.08,3.32,3.32,0,0,1-1.08,2.58,4.36,4.36,0,0,1-3,1,6.39,6.39,0,0,1-4.15-1.27,4.65,4.65,0,0,1-1.78-3.31h-3.6a7.67,7.67,0,0,0,3,5.36,10.59,10.59,0,0,0,6.55,1.92,8.31,8.31,0,0,0,5.5-1.72,5.51,5.51,0,0,0,2.07-4.46,5.28,5.28,0,0,0-1.09-3.51,6.28,6.28,0,0,0-2.61-1.91,31.55,31.55,0,0,0-4-1.16,31.05,31.05,0,0,1-3.09-.84,4.77,4.77,0,0,1-1.88-1.15,2.64,2.64,0,0,1-.76-2,3.24,3.24,0,0,1,1.12-2.6,4.69,4.69,0,0,1,3.13-1,5.39,5.39,0,0,1,3.79,1.29,5.14,5.14,0,0,1,1.65,3.29h3.56a8.36,8.36,0,0,0-2.8-5.34,9.07,9.07,0,0,0-6.11-2m-16.74,22.74h3.73V738h-3.73Zm-.65-29a2.14,2.14,0,0,0,.7,1.66,2.62,2.62,0,0,0,1.84.63,2.65,2.65,0,0,0,1.84-.63,2.34,2.34,0,0,0,0-3.32,2.65,2.65,0,0,0-1.84-.63,2.62,2.62,0,0,0-1.84.63,2.14,2.14,0,0,0-.7,1.66m-21.43,11.13V738H1480V760.4h3.72V748.58q0-3.72,2-5.34a8,8,0,0,1,5.16-1.61H1492v-4a9.58,9.58,0,0,0-5.07,1.29,8.18,8.18,0,0,0-3.23,3.62m-12.36,5.68H1457a7.64,7.64,0,0,1,2.25-5.58,7.34,7.34,0,0,1,5.15-1.9,7.8,7.8,0,0,1,3.56.82,6,6,0,0,1,2.58,2.49,7.63,7.63,0,0,1,.81,4.17m3.77-.24a10.51,10.51,0,0,0-1.29-5.16,9.64,9.64,0,0,0-3.72-3.72,11.31,11.31,0,0,0-5.71-1.39,11.58,11.58,0,0,0-5.73,1.39,9.79,9.79,0,0,0-3.9,4,12.77,12.77,0,0,0-1.41,6.14,12.62,12.62,0,0,0,1.41,6.11,9.86,9.86,0,0,0,3.9,4,11.58,11.58,0,0,0,5.73,1.39,12.15,12.15,0,0,0,5.07-1,9.4,9.4,0,0,0,5.48-7h-4a5.69,5.69,0,0,1-2.23,3.66,7.27,7.27,0,0,1-4.52,1.37,7.17,7.17,0,0,1-5.06-1.92A7.88,7.88,0,0,1,1457,750h18a10.88,10.88,0,0,0,.17-2m-34.77-10.27a8.62,8.62,0,0,0-5.69,1.74,5.66,5.66,0,0,0-2.09,4.56,5.05,5.05,0,0,0,1,3.37,6.11,6.11,0,0,0,2.53,1.83,31.28,31.28,0,0,0,4,1.14,28.24,28.24,0,0,1,3.15.86,4.93,4.93,0,0,1,1.92,1.19,2.79,2.79,0,0,1,.78,2.08,3.32,3.32,0,0,1-1.08,2.58,4.34,4.34,0,0,1-3,1,6.39,6.39,0,0,1-4.15-1.27,4.69,4.69,0,0,1-1.78-3.31h-3.6a7.68,7.68,0,0,0,3,5.36,10.54,10.54,0,0,0,6.54,1.92,8.29,8.29,0,0,0,5.5-1.72,5.51,5.51,0,0,0,2.07-4.46,5.28,5.28,0,0,0-1.09-3.51,6.28,6.28,0,0,0-2.61-1.91,31.55,31.55,0,0,0-4-1.16,31.05,31.05,0,0,1-3.09-.84,4.77,4.77,0,0,1-1.88-1.15,2.64,2.64,0,0,1-.76-2,3.25,3.25,0,0,1,1.13-2.6,4.66,4.66,0,0,1,3.12-1,5.39,5.39,0,0,1,3.79,1.29,5.2,5.2,0,0,1,1.66,3.29h3.55a8.36,8.36,0,0,0-2.8-5.34,9.07,9.07,0,0,0-6.11-2m-34.28-6.09v17.3q0,5.89,2.92,8.86a11.8,11.8,0,0,0,15.63,0q2.93-3,2.92-8.86v-17.3h-3.72v17.3c0,2.81-.61,4.89-1.84,6.26a6.54,6.54,0,0,1-5.11,2,6.76,6.76,0,0,1-5.2-2q-1.87-2-1.88-6.28v-17.3Zm-18.66,28.83h4.5V756h-4.5Zm-10-9.85H1366l11.37-14.65Zm-.24,3.23v6.62h3.76v-6.62h4.25v-3.23h-4.25V731.36h-4l-14.81,19.31v3.11Z" transform="translate(-51.26 -222.15)"/></g><line class="cls-2" x1="536.39" y1="201.76" x2="1296.83" y2="201.76"/><polygon class="cls-3" points="1309.56 201.76 1295.25 188.45 1295.25 215.07 1309.56 201.76"/><g class="cls-4"><path class="cls-5" d="M338.56,434.52h11.33m0,20H338.56m11.33,39.71H338.56m0-19.86h11.33m0-59.74H338.56M446,494.18H392.85m0-19.86H446m-.13-19.85h-53m0-20h53m7.37,113.77h6.39a10.17,10.17,0,0,0,10.23-10.22V519.75m-100.91,0v18.32a10.19,10.19,0,0,0,10.23,10.22h6.39m67.67,9.8v-9.8H385.6v9.8m-70.9-38.34v18.32a10.17,10.17,0,0,0,10.22,10.22h6.4m18.57,0H331.32v9.8m18.57-163.45h-25a10.18,10.18,0,0,0-10.22,10V519.75h35.19m96-105.17h-53m53-19.94h-53M369,379.3V519.75H469.89V379.3a10.19,10.19,0,0,0-10.23-10.23H379.21A10.21,10.21,0,0,0,369,379.3Zm138.58,169H489m35.19-28.54H489m0-65.28h11.33m0-20H489m11.33,39.8H489m0,19.86h11.33M489,394.64h25a10.18,10.18,0,0,1,10.22,10V538.07A10.17,10.17,0,0,1,514,548.29h-6.39v9.8M489,414.58h11.33M517,375.38a39,39,0,0,0-33.11-36.52,24,24,0,0,0,.85-6.6,23.54,23.54,0,0,0-38-18.54,48.31,48.31,0,0,0-7.88-10.22,47,47,0,0,0-80.2,33.19v1.83a38.93,38.93,0,0,0-37,36.86" transform="translate(-51.26 -222.15)"/><path class="cls-6" d="M1947.86,513.73c-.38-2.7-.9-5.34-1.52-7.89a81.92,81.92,0,0,0-5.78-16.11,79.54,79.54,0,0,0-4.39-7.89,74.85,74.85,0,0,0-13.41-16.12,73.85,73.85,0,0,0-9-7.05,69.37,69.37,0,0,0-28.49-11.22,70.79,70.79,0,0,0-10.79-.83h-63.34a77,77,0,0,0-10.74.78,70.3,70.3,0,0,0-28.54,11.27,73,73,0,0,0-9,7.05,77.28,77.28,0,0,0-13.42,16.12,69.82,69.82,0,0,0-4.29,7.89,78.37,78.37,0,0,0-5.83,16.11c-.62,2.55-1.14,5.19-1.52,7.89a80.83,80.83,0,0,0-.91,12.34v3.83h211.83v-3.83a80.83,80.83,0,0,0-.91-12.34" transform="translate(-51.26 -222.15)"/><path class="cls-7" d="M1739.17,527.6h207.36v-1.52a77.79,77.79,0,0,0-.88-12,76.49,76.49,0,0,0-1.48-7.69,79.61,79.61,0,0,0-5.61-15.66,77.82,77.82,0,0,0-4.26-7.65,75,75,0,0,0-21.74-22.51,67,67,0,0,0-27.6-10.86,68.44,68.44,0,0,0-10.46-.81h-63.34a73.56,73.56,0,0,0-10.44.76,67.84,67.84,0,0,0-27.61,10.91,70.85,70.85,0,0,0-8.71,6.85,74.91,74.91,0,0,0-13,15.65,66.3,66.3,0,0,0-4.15,7.61,78.62,78.62,0,0,0-7.16,23.37,78.44,78.44,0,0,0-.89,12Zm209.6,4.59H1736.94a2.27,2.27,0,0,1-2.23-2.3v-3.81a83.4,83.4,0,0,1,.93-12.71c.37-2.63.9-5.36,1.56-8.08a81.84,81.84,0,0,1,6-16.6,70.93,70.93,0,0,1,4.4-8.08,79.81,79.81,0,0,1,13.82-16.6,76.84,76.84,0,0,1,9.24-7.27,72.31,72.31,0,0,1,29.42-11.61,78.49,78.49,0,0,1,11.08-.81h63.34a73.27,73.27,0,0,1,11.12.86A71.25,71.25,0,0,1,1915,456.75a79.59,79.59,0,0,1,23,23.86,83.06,83.06,0,0,1,4.5,8.09,84.08,84.08,0,0,1,5.94,16.59c.67,2.72,1.2,5.45,1.58,8.11a84,84,0,0,1,.92,12.68v3.81a2.27,2.27,0,0,1-2.23,2.3" transform="translate(-51.26 -222.15)"/><path class="cls-7" d="M1936.17,484.39H1749.49a77.55,77.55,0,0,1,13.41-16.12h159.86a74.56,74.56,0,0,1,13.41,16.12" transform="translate(-51.26 -222.15)"/><path class="cls-7" d="M1913.78,458.67h-141.9a69.89,69.89,0,0,1,39.28-12.05h63.34a69.65,69.65,0,0,1,39.28,12.05" transform="translate(-51.26 -222.15)"/><path class="cls-7" d="M1946.34,508.39h-207a78.37,78.37,0,0,1,5.83-16.11h195.36a81.92,81.92,0,0,1,5.78,16.11" transform="translate(-51.26 -222.15)"/><path class="cls-7" d="M1948.77,528.63v3.72H1736.94v-3.72a80.86,80.86,0,0,1,.91-12.35h210a80.86,80.86,0,0,1,.91,12.35" transform="translate(-51.26 -222.15)"/><path class="cls-8" d="M1923,309.77c0,45-35.56,81.47-79.43,81.47s-79.38-36.5-79.38-81.47c0-32,18-59.72,44.11-73a77.49,77.49,0,0,1,68.4-1c27.3,12.83,46.3,41.2,46.3,74.07" transform="translate(-51.26 -222.15)"/><path class="cls-7" d="M1843.56,230.54a74.34,74.34,0,0,0-34.27,8.23c-26.45,13.48-42.87,40.68-42.87,71,0,43.66,34.6,79.18,77.14,79.18s77.19-35.52,77.19-79.18c0-30.88-17.66-59.14-45-72a74.3,74.3,0,0,0-32.2-7.24m0,163c-45,0-81.61-37.57-81.61-83.76,0-32.07,17.38-60.85,45.35-75.1a79.72,79.72,0,0,1,70.33-1c28.9,13.59,47.59,43.48,47.59,76.15,0,46.19-36.63,83.76-81.66,83.76" transform="translate(-51.26 -222.15)"/><path class="cls-6" d="M1792.69,341.51a18.06,18.06,0,1,1-18-18.52,18.3,18.3,0,0,1,18,18.52" transform="translate(-51.26 -222.15)"/><path class="cls-7" d="M1774.64,325.28a16.24,16.24,0,1,0,15.82,16.24,16.06,16.06,0,0,0-15.82-16.24m0,37.05c-11.18,0-20.28-9.34-20.28-20.81s9.1-20.82,20.28-20.82,20.29,9.33,20.29,20.82-9.1,20.81-20.29,20.81" transform="translate(-51.26 -222.15)"/><path class="cls-6" d="M1927.33,341.51a18.05,18.05,0,1,1-18-18.52,18.3,18.3,0,0,1,18,18.52" transform="translate(-51.26 -222.15)"/><path class="cls-7" d="M1909.29,325.28a16.24,16.24,0,1,0,15.81,16.24,16.06,16.06,0,0,0-15.81-16.24m0,37.05c-11.19,0-20.29-9.34-20.29-20.81s9.1-20.82,20.29-20.82,20.28,9.33,20.28,20.82-9.1,20.81-20.28,20.81" transform="translate(-51.26 -222.15)"/><path class="cls-6" d="M1885.29,447.45a70.69,70.69,0,0,0-10.79-.83h-1.15a32.12,32.12,0,0,0,.32-4.3V378.84H1812v63.48a33.86,33.86,0,0,0,.31,4.3h-1.17a77.12,77.12,0,0,0-10.74.78c-4.1,4.7-6.49,10.09-6.49,15.87,0,17.59,21.91,31.84,48.92,31.84s48.93-14.25,48.93-31.84a23.72,23.72,0,0,0-6.49-15.82" transform="translate(-51.26 -222.15)"/><path class="cls-7" d="M1801.55,449.55c-3.58,4.33-5.39,8.94-5.39,13.72,0,16.3,20.95,29.55,46.69,29.55s46.7-13.25,46.7-29.55a21.24,21.24,0,0,0-5.39-13.68,69.83,69.83,0,0,0-9.66-.68h-1.15a2.21,2.21,0,0,1-1.68-.79,2.3,2.3,0,0,1-.53-1.82,29,29,0,0,0,.29-4V381.14h-57.18v61.18a29,29,0,0,0,.3,4,2.38,2.38,0,0,1-.53,1.82,2.22,2.22,0,0,1-1.68.79h-1.18a74.89,74.89,0,0,0-9.61.64m41.3,47.86c-28.21,0-51.16-15.31-51.16-34.14,0-6.09,2.45-12.11,7.07-17.4a2.15,2.15,0,0,1,1.36-.74,79.84,79.84,0,0,1,9.73-.8c0-.7-.07-1.36-.07-2V378.84a2.26,2.26,0,0,1,2.23-2.29h61.66a2.26,2.26,0,0,1,2.23,2.29v63.48c0,.65,0,1.32-.07,2a73.51,73.51,0,0,1,9.79.85,2.26,2.26,0,0,1,1.32.72,26,26,0,0,1,7.07,17.37c0,18.83-23,34.14-51.16,34.14" transform="translate(-51.26 -222.15)"/><path class="cls-6" d="M1842.84,426.2h0c-36.69,0-66.44-30.54-66.44-68.2V312.11c0-37.66,29.75-68.19,66.44-68.19s66.45,30.53,66.45,68.19V358c0,37.66-29.75,68.2-66.45,68.2" transform="translate(-51.26 -222.15)"/><path class="cls-7" d="M1842.84,246.21c-35.4,0-64.21,29.56-64.21,65.9V358c0,36.34,28.81,65.91,64.21,65.91s64.21-29.57,64.21-65.91V312.11c0-36.34-28.8-65.9-64.21-65.9m0,182.28c-37.87,0-68.67-31.62-68.67-70.49V312.11c0-38.87,30.8-70.49,68.67-70.49s68.68,31.62,68.68,70.49V358c0,38.87-30.81,70.49-68.68,70.49" transform="translate(-51.26 -222.15)"/><path class="cls-8" d="M1776.41,358c0,37.67,29.75,68.2,66.44,68.2s66.45-30.53,66.45-68.2Z" transform="translate(-51.26 -222.15)"/><path class="cls-7" d="M1842.86,428.49c-37.87,0-68.69-31.62-68.69-70.49h4.47c0,36.34,28.81,65.91,64.21,65.91s64.22-29.57,64.22-65.91h4.46c0,38.87-30.8,70.49-68.67,70.49" transform="translate(-51.26 -222.15)"/><path class="cls-7" d="M1849.37,362.33h-14.74v-4.58h11.89c-1.69-7.26-5.91-26.45-5.91-37.7h4.47c0,13.2,6.39,39.16,6.46,39.42a2.31,2.31,0,0,1-.41,2,2.2,2.2,0,0,1-1.76.89" transform="translate(-51.26 -222.15)"/><path class="cls-7" d="M1817.58,336.35a6.59,6.59,0,1,1-6.59-6.76,6.67,6.67,0,0,1,6.59,6.76" transform="translate(-51.26 -222.15)"/><path class="cls-7" d="M1820.89,324.35c-.05-.05-4.57-4.69-10.32-4.69h0c-3.32,0-6.49,1.59-9.43,4.68l-3.2-3.2c3.82-4,8.08-6.07,12.66-6.07,7.66,0,13.28,5.82,13.51,6.07Z" transform="translate(-51.26 -222.15)"/><path class="cls-7" d="M1881.37,336.35a6.59,6.59,0,1,1-6.59-6.76,6.68,6.68,0,0,1,6.59,6.76" transform="translate(-51.26 -222.15)"/><path class="cls-7" d="M1884.67,324.34c-.05,0-4.57-4.68-10.32-4.68h0c-3.32,0-6.49,1.58-9.43,4.68l-3.2-3.2c3.83-4,8.08-6.07,12.66-6.07h0c7.66,0,13.27,5.82,13.51,6.07Z" transform="translate(-51.26 -222.15)"/><path class="cls-8" d="M1869.59,224.45h-77.7c-6.5,0-11.77,6.61-11.77,14.77v8.24c0,25.7,15.81,48,36.28,48.78,18.16.71,33.49-14.83,37.56-35.88h12.24c18.31,0,25.45-25.79,9.16-34.37a12.34,12.34,0,0,0-5.77-1.54" transform="translate(-51.26 -222.15)"/><path class="cls-7" d="M1791.89,226.74c-5.26,0-9.54,5.6-9.54,12.48v8.24c0,24.91,15.31,45.77,34.14,46.49,16.44.57,31.34-13.67,35.28-34a2.24,2.24,0,0,1,2.19-1.84h12.24c8.65,0,14-6.47,15.55-12.87,1.34-5.71.1-13.21-7.41-17.17a10.21,10.21,0,0,0-4.75-1.29Zm25.66,71.82-1.23,0c-21.19-.82-38.44-23.73-38.44-51.08v-8.24c0-9.41,6.28-17.07,14-17.07h77.7a14.59,14.59,0,0,1,6.79,1.8c8.09,4.26,11.9,13,9.72,22.32-1.92,8.15-8.82,16.38-19.9,16.38h-10.44c-4.79,21.11-20.51,35.91-38.21,35.91" transform="translate(-51.26 -222.15)"/><path class="cls-6" d="M1860.32,386.24c0,7-7.68,12.71-17.15,12.71S1826,393.26,1826,386.24s7.68-12.7,17.15-12.7,17.15,5.68,17.15,12.7" transform="translate(-51.26 -222.15)"/><path class="cls-7" d="M1843.17,375.83c-8.22,0-14.92,4.67-14.92,10.41s6.7,10.41,14.92,10.41,14.92-4.67,14.92-10.41-6.69-10.41-14.92-10.41m0,25.41c-10.69,0-19.39-6.73-19.39-15s8.7-15,19.39-15,19.39,6.73,19.39,15-8.7,15-19.39,15" transform="translate(-51.26 -222.15)"/><path class="cls-8" d="M1854.63,368.11l-.32-.05a1,1,0,0,0-.17,0h-.08a10.41,10.41,0,0,0-1.69-.17h-19a10.41,10.41,0,0,0-1.69.17h-.09l-.16,0-.32.05c-12.83,1.5-21.94,21.72-21.94,21.72h24.2a10.63,10.63,0,0,0,9.51-6.06,10.66,10.66,0,0,0,9.52,6.06h24.2s-9.11-20.22-21.94-21.72" transform="translate(-51.26 -222.15)"/><path class="cls-7" d="M1842.85,381.48a2.25,2.25,0,0,1,2,1.25,8.39,8.39,0,0,0,7.52,4.81h20.49c-3-5.51-10-16.16-18.48-17.15l-.2,0,.41-2.26-.5,2.24a14,14,0,0,0-1.72-.19h-19a8.45,8.45,0,0,0-1.34.15l-.27,0-.2,0c-8.64,1-15.63,11.67-18.69,17.18h20.5a8.39,8.39,0,0,0,7.52-4.81,2.22,2.22,0,0,1,2-1.25m33.72,10.64h-24.2a12.67,12.67,0,0,1-9.52-4.33,12.65,12.65,0,0,1-9.51,4.33h-24.2a2.22,2.22,0,0,1-1.88-1.06,2.33,2.33,0,0,1-.15-2.19c.39-.88,9.8-21.41,23.71-23l.74-.1a10.82,10.82,0,0,1,1.78-.17h19a11.74,11.74,0,0,1,1.88.18h.16l-.05.32.27,2,.25-2.28c13.92,1.63,23.33,22.16,23.72,23a2.33,2.33,0,0,1-.15,2.19,2.22,2.22,0,0,1-1.88,1.06" transform="translate(-51.26 -222.15)"/></g><rect class="cls-7" x="1783.37" y="183.71" width="17.9" height="4.58"/><rect class="cls-9" x="786.73" y="773.11" width="272.5" height="275.18"/><g class="cls-10"><path class="cls-6" d="M907.63,1040.86a11.2,11.2,0,1,0-11.35-11.2,11.28,11.28,0,0,0,11.35,11.2" transform="translate(-51.26 -222.15)"/><path class="cls-6" d="M1041.65,1041.13a11.47,11.47,0,1,0-11.36-11.47,11.41,11.41,0,0,0,11.36,11.47" transform="translate(-51.26 -222.15)"/><path class="cls-11" d="M907.43,1030.48c0,37.36,30,67.64,67,67.64s67-30.28,67-67.64" transform="translate(-51.26 -222.15)"/><path class="cls-6" d="M1068.57,1208.15v-38.77h-5.21v-6.66h12.23v38.77h5.15v6.66Zm-15.32,0-.12-2.75V1182h-5v-6.67h12.05v26.18h4.91v6.66Zm5.63-38.52a4.37,4.37,0,0,1-6.18,0,4.54,4.54,0,0,1-1.27-3.12,4.31,4.31,0,0,1,1.27-3.18,4.35,4.35,0,0,1,6.18,0,4.52,4.52,0,0,1,1.27,3.12,4.34,4.34,0,0,1-1.27,3.18m-21.13,25.56a17.74,17.74,0,0,0-2.49-1.1,10.06,10.06,0,0,0-3.57-.61,8.71,8.71,0,0,0-2.82.39,4.7,4.7,0,0,0-1.78,1.07,4.33,4.33,0,0,0-1.52,3.37,3.92,3.92,0,0,0,1.16,2.75,3.71,3.71,0,0,0,1.33.85,5.42,5.42,0,0,0,2,.31,9.61,9.61,0,0,0,4.29-1.16,12.79,12.79,0,0,0,3.4-2.45Zm0,13V1206a20.37,20.37,0,0,1-4,1.9,13.79,13.79,0,0,1-4.39.73,10.45,10.45,0,0,1-7.75-3.12,10.4,10.4,0,0,1,.54-15.29,10.64,10.64,0,0,1,4-2.29,16.79,16.79,0,0,1,5-.7,17.82,17.82,0,0,1,4.48.61l1,.27a10.34,10.34,0,0,1,1.09.4v-3.79a4.39,4.39,0,0,0-.34-1.9,2.65,2.65,0,0,0-.88-1,5.8,5.8,0,0,0-1.81-.76,11.27,11.27,0,0,0-2.67-.28,9.23,9.23,0,0,0-1.81.22,18.44,18.44,0,0,0-2.09.55c-.71.22-1.38.45-2,.67l-1.6.58-2.19-5.44c1.42-.57,2.63-1,3.64-1.38s2.08-.66,3.21-.94a12.12,12.12,0,0,1,3-.43,20.27,20.27,0,0,1,5.06.58,12.43,12.43,0,0,1,4,1.8,8.44,8.44,0,0,1,2.66,3.37,10.86,10.86,0,0,1,.85,4.4v16.82h4.78v6.66Zm-21.68-26.29a14.65,14.65,0,0,0-4.82.67,8.93,8.93,0,0,0-3,1.71,6.78,6.78,0,0,0-1.7,2.33,9.91,9.91,0,0,0-.61,3.91v11h5.88v6.66h-12.9V1182h-5.45v-6.67h12.47v3.43a11.06,11.06,0,0,0,1.09-.71,15.05,15.05,0,0,1,1.7-1,14.22,14.22,0,0,1,7.45-1.66l3,.07v6.42Zm-31.25,27a9.74,9.74,0,0,1-3.06-.45,5.91,5.91,0,0,1-2.39-1.56,5.53,5.53,0,0,1-1.42-2.42,10.88,10.88,0,0,1-.39-3V1182h-5.09v-6.67h5.09v-6.42l7-.18v6.6h6V1182h-6v18.83a2.54,2.54,0,0,0,.18,1.23h.3l5.51-.92v6.73ZM964.17,1182l-14.65,39.14h-6.84l5.51-15.66L938.68,1182h-5.39v-6.67h10.05l1.52,4,6.84,16.94L957,1182h-3.7v-6.67h15.81V1182Zm-41.72,13.21a18.16,18.16,0,0,0-2.48-1.1,10.06,10.06,0,0,0-3.57-.61,8.67,8.67,0,0,0-2.82.39,4.74,4.74,0,0,0-1.79,1.07,4.32,4.32,0,0,0-1.51,3.37,3.91,3.91,0,0,0,1.15,2.75,3.8,3.8,0,0,0,1.33.85,5.46,5.46,0,0,0,2,.31,9.65,9.65,0,0,0,4.3-1.16,12.9,12.9,0,0,0,3.39-2.45Zm0,13V1206a19.86,19.86,0,0,1-4,1.9,13.7,13.7,0,0,1-4.39.73,10.45,10.45,0,0,1-7.75-3.12,10.39,10.39,0,0,1,.55-15.29,10.57,10.57,0,0,1,4-2.29,16.72,16.72,0,0,1,5-.7,17.76,17.76,0,0,1,4.48.61l1,.27a9.58,9.58,0,0,1,1.09.4v-3.79a4.41,4.41,0,0,0-.33-1.9,2.74,2.74,0,0,0-.88-1,5.77,5.77,0,0,0-1.82-.76,11.12,11.12,0,0,0-2.66-.28,9.33,9.33,0,0,0-1.82.22,19.62,19.62,0,0,0-2.09.55c-.7.22-1.37.45-2,.67l-1.61.58-2.18-5.44q2.11-.86,3.63-1.38c1-.34,2.08-.66,3.21-.94a12.13,12.13,0,0,1,3-.43,20.33,20.33,0,0,1,5.06.58,12.47,12.47,0,0,1,4,1.8,8.56,8.56,0,0,1,2.67,3.37,11,11,0,0,1,.85,4.4v16.82h4.78v6.66Zm-26.88-34.7a5.85,5.85,0,0,0-1.4-2.23,6.29,6.29,0,0,0-2.6-1.35,16.25,16.25,0,0,0-4.42-.49h-6.24v15h6.24a14.89,14.89,0,0,0,4.15-.49,8,8,0,0,0,2.75-1.34,5.37,5.37,0,0,0,1.52-2,8.17,8.17,0,0,0,.54-3.21,11.1,11.1,0,0,0-.54-3.82m6.78,9.2a12.42,12.42,0,0,1-3.15,4.59,13.42,13.42,0,0,1-4.85,2.87,18.68,18.68,0,0,1-6,.92h-7.45v17.12H868.19v-6.66h5.45v-32.11h-5.45v-6.66h19.56a21.48,21.48,0,0,1,6.33.88,13.34,13.34,0,0,1,5.06,2.85,12.06,12.06,0,0,1,3.21,4.55,16,16,0,0,1,1,5.9,15.76,15.76,0,0,1-1,5.75" transform="translate(-51.26 -222.15)"/><path class="cls-6" d="M984.59,1227.64c4.13,0,7.18,2.72,7.18,7v3.65c0,5-3.21,7.28-7.54,7.28a20.07,20.07,0,0,1-6.6-1.19.51.51,0,0,1-.39-.56V1222a.44.44,0,0,1,.49-.5h2.82a.44.44,0,0,1,.5.5v6.36a9.11,9.11,0,0,1,3.54-.73m3.31,10.7v-3.68c0-2.51-1.34-3.61-3.71-3.61a5.78,5.78,0,0,0-3.14.86v9.78a8.65,8.65,0,0,0,3.08.46c2.36,0,3.77-1,3.77-3.81" transform="translate(-51.26 -222.15)"/><path class="cls-6" d="M1005.65,1228.5c0-.3.16-.46.49-.46H1009c.33,0,.49.16.49.46v15.6c0,5.1-2.29,7.72-7.31,7.72a9.26,9.26,0,0,1-6.43-2.09c-.26-.19-.26-.39-.1-.66l1.41-2a.4.4,0,0,1,.62-.16,7.72,7.72,0,0,0,4.47,1.52c2.26,0,3.7-1,3.57-4.31a12.06,12.06,0,0,1-3.51.6c-3.41,0-7-2.19-7-6.76v-9.44a.44.44,0,0,1,.49-.46h2.86a.42.42,0,0,1,.46.46v9.28c0,2.55,1.77,3.44,3.73,3.44a6.11,6.11,0,0,0,3-.66Z" transform="translate(-51.26 -222.15)"/><path class="cls-6" d="M1021.16,1245.2a.44.44,0,0,1-.49-.5v-15.17a.62.62,0,0,1,.36-.6,16.61,16.61,0,0,1,6.53-1.29c4.52,0,7.61,2.12,7.61,7.42v9.64c0,.33-.17.5-.46.5h-2.86a.45.45,0,0,1-.49-.5v-9.57c0-3.12-1.41-4-3.8-4a13.38,13.38,0,0,0-3.09.36v13.25a.44.44,0,0,1-.49.5Z" transform="translate(-51.26 -222.15)"/><path class="cls-6" d="M1052.91,1237.78c0,.29-.16.46-.49.46h-10v.93c0,2,1.38,3,3.48,3a7.7,7.7,0,0,0,4.62-1.53.45.45,0,0,1,.66.1l1.34,1.82a.44.44,0,0,1-.1.7,10.26,10.26,0,0,1-6.66,2.28c-3.7,0-7.18-2-7.18-6.46v-4.7c0-4.87,3.61-6.79,7.22-6.79s7.08,1.92,7.08,6.79Zm-7.08-6.76a3,3,0,0,0-3.38,3.38v.86h6.75v-.86a3.08,3.08,0,0,0-3.37-3.38" transform="translate(-51.26 -222.15)"/><path class="cls-6" d="M1062.62,1242.08c.3,0,.82,0,1.35-.06.32,0,.52.16.52.46V1245a.49.49,0,0,1-.46.53c-.56,0-1.24.06-1.74.06-3.41,0-6.07-1.75-6.07-6.12v-15.14a.44.44,0,0,1,.5-.47h2.49a.47.47,0,0,1,.49.44l.3,4h3.51a.44.44,0,0,1,.49.46v2.42a.45.45,0,0,1-.49.47H1060v7.58c0,1.82.92,2.88,2.59,2.88" transform="translate(-51.26 -222.15)"/><path class="cls-6" d="M1073.08,1245.59a11.13,11.13,0,0,1-6.65-2.15c-.3-.16-.3-.4-.14-.66l1.25-2.15c.17-.3.36-.34.66-.14a8.36,8.36,0,0,0,5,1.69c1.71,0,3-.66,3-1.92s-1.57-1.69-3-2c-2.46-.47-6.63-1.49-6.63-5.5,0-3.68,3.45-5.2,7-5.2a11.73,11.73,0,0,1,5.71,1.52.43.43,0,0,1,.16.66l-1.25,2.12a.46.46,0,0,1-.65.17,8.92,8.92,0,0,0-4.17-1.09c-1.93,0-3,.73-3,1.82,0,1.36,1.47,1.69,3.64,2.12,2.69.49,6.1,1.36,6.1,5.17s-3,5.49-7,5.49" transform="translate(-51.26 -222.15)"/></g><g class="cls-4"><path class="cls-5" d="M1503,367.31l-45.77,42.22m154.87,82.61H1470.55m32.43-53h-45.72m177.85,75.75h24.75v2.92a17,17,0,0,1-16.92,17H1440.13a16.4,16.4,0,0,1-11.35-4.32l-.65-.65a16.43,16.43,0,0,1-5-12v-3H1448M1559.29,406.5l50.25,36.23L1584,449.6l-18.59,18.65ZM1503,340.92l-45.77,42.23m-23-61.2V459.06a8.53,8.53,0,0,0,2.65,6.27,8.64,8.64,0,0,0,6.32,2.65h73.87a8.67,8.67,0,0,0,6.33-2.65,8.48,8.48,0,0,0,2.59-6.27V322a8.84,8.84,0,0,0-8.92-8.92h-73.87a8.95,8.95,0,0,0-9,8.92ZM1448,493v21.9l187.09.06-.06-123.7a9.55,9.55,0,0,0-3-7,9.35,9.35,0,0,0-6.92-3h-74.57" transform="translate(-51.26 -222.15)"/></g><line class="cls-2" x1="546.6" y1="362.92" x2="898.87" y2="715.19"/><polygon class="cls-3" points="537.6 353.92 557.13 354.63 538.31 373.45 537.6 353.92"/><line class="cls-2" x1="477.53" y1="353.92" x2="829.8" y2="706.19"/><polygon class="cls-3" points="838.8 715.19 819.26 714.48 838.09 695.66 838.8 715.19"/><g class="cls-4"><path class="cls-3" d="M333.11,855.31a3.88,3.88,0,0,1-2.77-.8,4.2,4.2,0,0,1-.79-3v-12.2h5.81v-3.23h-5.81v-5.6h-3.77v5.6h-3.35v3.23h3.35v12.11c0,2.57.57,4.39,1.7,5.48a7.09,7.09,0,0,0,5.13,1.64h2.79v-3.27Zm-22.54-19.47a8.62,8.62,0,0,0-5.69,1.74,5.63,5.63,0,0,0-2.09,4.56,5.07,5.07,0,0,0,1,3.37,6.09,6.09,0,0,0,2.53,1.82,31.07,31.07,0,0,0,4,1.15,26.21,26.21,0,0,1,3.15.86,5,5,0,0,1,1.92,1.18,2.83,2.83,0,0,1,.78,2.09,3.34,3.34,0,0,1-1.08,2.58,4.36,4.36,0,0,1-3,1A6.39,6.39,0,0,1,308,854.9a4.71,4.71,0,0,1-1.78-3.31h-3.6a7.62,7.62,0,0,0,3,5.35,10.48,10.48,0,0,0,6.54,1.93,8.36,8.36,0,0,0,5.5-1.72,5.53,5.53,0,0,0,2.07-4.46,5.33,5.33,0,0,0-1.09-3.52,6.35,6.35,0,0,0-2.61-1.9,33.06,33.06,0,0,0-4-1.17,31.48,31.48,0,0,1-3.09-.83,4.77,4.77,0,0,1-1.88-1.15,2.66,2.66,0,0,1-.76-2,3.24,3.24,0,0,1,1.12-2.6,4.69,4.69,0,0,1,3.13-1,5.39,5.39,0,0,1,3.79,1.29,5.12,5.12,0,0,1,1.65,3.29h3.56a8.31,8.31,0,0,0-2.8-5.34,9.07,9.07,0,0,0-6.11-2M294.9,846.35H280.54a7.66,7.66,0,0,1,2.25-5.58,7.36,7.36,0,0,1,5.15-1.91,7.89,7.89,0,0,1,3.56.82,6,6,0,0,1,2.58,2.5,7.63,7.63,0,0,1,.82,4.17m3.76-.25a10.44,10.44,0,0,0-1.29-5.15,9.64,9.64,0,0,0-3.72-3.72,11.26,11.26,0,0,0-5.71-1.39,11.51,11.51,0,0,0-5.72,1.39,9.75,9.75,0,0,0-3.91,4,14,14,0,0,0,0,12.25,9.82,9.82,0,0,0,3.91,4,11.62,11.62,0,0,0,5.72,1.39,12,12,0,0,0,5.08-1,9.37,9.37,0,0,0,5.48-7h-4a5.65,5.65,0,0,1-2.23,3.66,7.32,7.32,0,0,1-4.52,1.37,7.15,7.15,0,0,1-5-1.92,7.86,7.86,0,0,1-2.19-5.77h18a11,11,0,0,0,.16-2m-30.35-10v12a8.23,8.23,0,0,1-1.84,5.79,6.4,6.4,0,0,1-4.91,2A6.11,6.11,0,0,1,256.9,854a7.22,7.22,0,0,1-1.72-5.17V836.12h-3.72v13.09q0,4.71,2.41,7.22a8.33,8.33,0,0,0,6.3,2.52,9,9,0,0,0,5.09-1.45,7.55,7.55,0,0,0,3.05-4.2v5.28H272V836.12Zm-33.54,3a7.58,7.58,0,0,1,3.86,1,7.27,7.27,0,0,1,2.76,2.87,9.81,9.81,0,0,1,0,8.71,7.24,7.24,0,0,1-2.76,2.86,7.59,7.59,0,0,1-3.86,1,7.31,7.31,0,0,1-5.49-2.15,8.31,8.31,0,0,1-2.08-6,8.4,8.4,0,0,1,2.1-6.07,7.26,7.26,0,0,1,5.47-2.19m-.82-3.23a10.43,10.43,0,0,0-5.4,1.43,10.09,10.09,0,0,0-3.79,4,14,14,0,0,0,0,12.07,9.91,9.91,0,0,0,3.79,4,10.51,10.51,0,0,0,5.4,1.41,8.81,8.81,0,0,0,5.25-1.56,8.94,8.94,0,0,0,3.21-4.21v16.12h3.73v-33.1h-3.73v5.32a8.44,8.44,0,0,0-3.17-4,9.17,9.17,0,0,0-5.29-1.49m-18.08,10.43H201.51a7.66,7.66,0,0,1,2.25-5.58,7.36,7.36,0,0,1,5.15-1.91,7.93,7.93,0,0,1,3.56.82,6,6,0,0,1,2.58,2.5,7.63,7.63,0,0,1,.82,4.17m3.76-.25a10.44,10.44,0,0,0-1.29-5.15,9.64,9.64,0,0,0-3.72-3.72,11.29,11.29,0,0,0-5.71-1.39,11.58,11.58,0,0,0-5.73,1.39,9.79,9.79,0,0,0-3.9,4,14,14,0,0,0,0,12.25,9.86,9.86,0,0,0,3.9,4,11.68,11.68,0,0,0,5.73,1.39,12,12,0,0,0,5.07-1,9.35,9.35,0,0,0,5.49-7h-4a5.65,5.65,0,0,1-2.23,3.66,7.34,7.34,0,0,1-4.52,1.37,7.13,7.13,0,0,1-5.05-1.92,7.86,7.86,0,0,1-2.19-5.77h18a11,11,0,0,0,.16-2M187,840.66v-4.54h-3.72v22.46H187V846.76q0-3.72,2-5.34a7.94,7.94,0,0,1,5.16-1.62h1.14v-4a9.6,9.6,0,0,0-5.07,1.28,8.3,8.3,0,0,0-3.23,3.62m-37.51-10.92v3h8.14v25.81h3.72V832.77h8.14v-3Zm-2.66,21.36a7.4,7.4,0,0,0-1.19-4.4,7.57,7.57,0,0,0-2.88-2.48,37.58,37.58,0,0,0-4.48-1.72,36.18,36.18,0,0,1-3.6-1.32,6.31,6.31,0,0,1-2.19-1.64,4.67,4.67,0,0,1,.47-6,5.3,5.3,0,0,1,3.6-1.17,5.56,5.56,0,0,1,3.89,1.31,5.44,5.44,0,0,1,1.76,3h4a7.91,7.91,0,0,0-2.9-5.26,10.23,10.23,0,0,0-6.75-2.07,11.29,11.29,0,0,0-4.76.94,7.15,7.15,0,0,0-3.11,2.66,7.24,7.24,0,0,0-1.09,4,6.93,6.93,0,0,0,1.17,4.21,7.5,7.5,0,0,0,2.82,2.4,37.76,37.76,0,0,0,4.4,1.7,29.73,29.73,0,0,1,3.68,1.37,6.51,6.51,0,0,1,2.27,1.73,4.37,4.37,0,0,1,.92,2.87,4.54,4.54,0,0,1-1.31,3.35,5.06,5.06,0,0,1-3.76,1.31,6.3,6.3,0,0,1-3.21-.76,5.62,5.62,0,0,1-2.89-4.31h-4a8,8,0,0,0,1.53,4.15,9,9,0,0,0,3.56,2.86,11.78,11.78,0,0,0,5.09,1,10.12,10.12,0,0,0,4.95-1.11,7.38,7.38,0,0,0,3-2.86,7.71,7.71,0,0,0,1-3.8m-23-18.33v-3H107.88v28.84h15.91v-3H111.6V845.49h11v-2.86h-11v-9.86Zm-36,.2h5.44q6.34,0,6.34,5.57t-6.34,5.56H87.75Zm15.79,25.61-7.86-11.9a9.2,9.2,0,0,0,5.69-2.68,8.06,8.06,0,0,0,2-5.67,8.23,8.23,0,0,0-2.45-6.24c-1.64-1.56-4.09-2.35-7.36-2.35H84v28.84h3.72V846.8h4l7.53,11.78Z" transform="translate(-51.26 -222.15)"/><path class="cls-3" d="M601.25,790.06a7.8,7.8,0,0,1,3.94,1,6.91,6.91,0,0,1,2.72,2.89,9.16,9.16,0,0,1,1,4.33,9.06,9.06,0,0,1-1,4.32,7.07,7.07,0,0,1-2.72,2.88,7.52,7.52,0,0,1-3.94,1,7.19,7.19,0,0,1-5.5-2.19,9.83,9.83,0,0,1,0-12.07,7.19,7.19,0,0,1,5.5-2.19m-1.07-3.31a10.12,10.12,0,0,0-5.31,1.39,9.59,9.59,0,0,0-3.67,4,14.77,14.77,0,0,0,0,12.25,9.66,9.66,0,0,0,3.67,4,10.12,10.12,0,0,0,5.31,1.39,9.25,9.25,0,0,0,5.55-1.64,8.56,8.56,0,0,0,3.17-4.37v5.72h3.72V787H608.9v5.72a8.58,8.58,0,0,0-3.17-4.38,9.25,9.25,0,0,0-5.55-1.63m-33.79-.08a8.86,8.86,0,0,0-5,1.47,7.7,7.7,0,0,0-3.05,4.21V779.22h-3.72v30.27h3.72v-11.9a8.2,8.2,0,0,1,1.85-5.79,6.36,6.36,0,0,1,4.9-2,6.15,6.15,0,0,1,4.67,1.8,7.18,7.18,0,0,1,1.72,5.15v12.72h3.72v-13q0-4.74-2.42-7.26a8.39,8.39,0,0,0-6.34-2.51m-18.65,19.55a3.84,3.84,0,0,1-2.76-.8,4.2,4.2,0,0,1-.8-3V790.27H550V787h-5.81v-5.61h-3.76V787h-3.36v3.23h3.36v12.11c0,2.56.56,4.39,1.7,5.48a7.13,7.13,0,0,0,5.13,1.63H550v-3.27Zm-18.12,3.27h3.72V787h-3.72Zm-.66-29a2.17,2.17,0,0,0,.7,1.66,3,3,0,0,0,3.68,0,2.32,2.32,0,0,0,0-3.32,3,3,0,0,0-3.68,0,2.16,2.16,0,0,0-.7,1.66M522.58,787l-4.82,18.85L511.5,787h-3.89l-6.22,18.89L496.61,787h-3.77l6.39,22.45h4l6.22-18.28,6.18,18.28h4L526.14,787ZM475.5,809.49h3.72V779.22H475.5Zm-9.7,0h3.73V787H465.8Zm-.65-29a2.14,2.14,0,0,0,.7,1.66,2.62,2.62,0,0,0,1.84.63,2.65,2.65,0,0,0,1.84-.63,2.34,2.34,0,0,0,0-3.32,2.65,2.65,0,0,0-1.84-.63,2.62,2.62,0,0,0-1.84.63,2.12,2.12,0,0,0-.7,1.66m-16.65,9.61a7.86,7.86,0,0,1,3.95,1,7,7,0,0,1,2.72,2.89,9.27,9.27,0,0,1,1,4.33,9.17,9.17,0,0,1-1,4.32,7.13,7.13,0,0,1-2.72,2.88,7.58,7.58,0,0,1-3.95,1,7.21,7.21,0,0,1-5.5-2.19,9.83,9.83,0,0,1,0-12.07,7.21,7.21,0,0,1,5.5-2.19m-1.06-3.31a10.15,10.15,0,0,0-5.32,1.39,9.51,9.51,0,0,0-3.66,4,14.77,14.77,0,0,0,0,12.25,9.57,9.57,0,0,0,3.66,4,10.15,10.15,0,0,0,5.32,1.39,9.22,9.22,0,0,0,5.54-1.64,8.56,8.56,0,0,0,3.17-4.37v5.72h3.72V787h-3.72v5.72a8.58,8.58,0,0,0-3.17-4.38,9.22,9.22,0,0,0-5.54-1.63m-21.19,4.83V787h-3.73v22.45h3.73V797.67q0-3.72,2-5.34a8,8,0,0,1,5.16-1.61h1.14v-4.05a9.6,9.6,0,0,0-5.07,1.29,8.13,8.13,0,0,0-3.23,3.62M415.7,806.22a3.84,3.84,0,0,1-2.76-.8,4.15,4.15,0,0,1-.8-3V790.27H418V787h-5.81v-5.61h-3.77V787H405v3.23h3.35v12.11q0,3.84,1.7,5.48a7.14,7.14,0,0,0,5.14,1.63H418v-3.27ZM381.54,787,391,809.12l-4.66,11h4.21L403.87,787h-4.13L393,804.71,385.71,787Zm-14.69,3a7.83,7.83,0,0,1,3.95,1,6.91,6.91,0,0,1,2.72,2.89,9.15,9.15,0,0,1,1,4.33,9.06,9.06,0,0,1-1,4.32,7.07,7.07,0,0,1-2.72,2.88,7.56,7.56,0,0,1-3.95,1,7.21,7.21,0,0,1-5.5-2.19,9.87,9.87,0,0,1,0-12.07,7.21,7.21,0,0,1,5.5-2.19m-1.06-3.31a10.18,10.18,0,0,0-5.32,1.39,9.64,9.64,0,0,0-3.66,4,14.77,14.77,0,0,0,0,12.25,9.7,9.7,0,0,0,3.66,4,10.18,10.18,0,0,0,5.32,1.39,9.22,9.22,0,0,0,5.54-1.64,8.5,8.5,0,0,0,3.17-4.37v5.72h3.73V787H374.5v5.72a8.52,8.52,0,0,0-3.17-4.38,9.22,9.22,0,0,0-5.54-1.63m-23.73,8H337v-11h5.11q3.4,0,4.89,1.41a6.3,6.3,0,0,1,0,8.16q-1.49,1.44-4.89,1.44m.33,3.11q4.78,0,7.32-2.28a8,8,0,0,0,2.54-6.32A8.3,8.3,0,0,0,349.8,783q-2.46-2.31-7.41-2.31h-9.16v28.84H337V797.88ZM307,790a7.79,7.79,0,0,1,3.7.9,6.8,6.8,0,0,1,2.74,2.76,10.63,10.63,0,0,1,0,9.17,6.8,6.8,0,0,1-2.74,2.76,8.08,8.08,0,0,1-7.41,0,6.8,6.8,0,0,1-2.74-2.76,10.63,10.63,0,0,1,0-9.17,6.8,6.8,0,0,1,2.74-2.76A7.83,7.83,0,0,1,307,790m0-3.27a11.86,11.86,0,0,0-5.79,1.39,10,10,0,0,0-4,4,13.5,13.5,0,0,0,0,12.25,10.11,10.11,0,0,0,4,4,12.75,12.75,0,0,0,11.58,0,10,10,0,0,0,4-4,13.58,13.58,0,0,0,0-12.25,9.9,9.9,0,0,0-4-4,11.92,11.92,0,0,0-5.79-1.39m-17,19.47a3.84,3.84,0,0,1-2.76-.8,4.2,4.2,0,0,1-.8-3V790.27h5.81V787h-5.81v-5.61h-3.76V787h-3.36v3.23h3.36v12.11q0,3.84,1.69,5.48a7.18,7.18,0,0,0,5.14,1.63h2.78v-3.27Zm-25.36,0a3.84,3.84,0,0,1-2.76-.8,4.15,4.15,0,0,1-.8-3V790.27h5.81V787h-5.81v-5.61H257.3V787H254v3.23h3.35v12.11q0,3.84,1.7,5.48a7.16,7.16,0,0,0,5.14,1.63h2.78v-3.27Zm-22.91-19.55a8.84,8.84,0,0,0-5.05,1.47,7.7,7.7,0,0,0-3,4.21V787H229.9v22.45h3.72v-11.9a8.25,8.25,0,0,1,1.84-5.79,6.4,6.4,0,0,1,4.91-2,6.15,6.15,0,0,1,4.67,1.8,7.18,7.18,0,0,1,1.71,5.15v12.72h3.73v-13q0-4.74-2.42-7.26a8.4,8.4,0,0,0-6.34-2.51m-20.45,10.59H206.91a7.68,7.68,0,0,1,2.25-5.58,7.36,7.36,0,0,1,5.16-1.9,7.88,7.88,0,0,1,3.55.81,6,6,0,0,1,2.58,2.5,7.63,7.63,0,0,1,.82,4.17M225,797a10.48,10.48,0,0,0-1.29-5.16,9.57,9.57,0,0,0-3.72-3.72,11.25,11.25,0,0,0-5.7-1.39,11.52,11.52,0,0,0-5.73,1.39,9.75,9.75,0,0,0-3.91,4,14,14,0,0,0,0,12.25,9.82,9.82,0,0,0,3.91,4,11.52,11.52,0,0,0,5.73,1.39,12.15,12.15,0,0,0,5.07-1,9.5,9.5,0,0,0,3.66-2.87,9.34,9.34,0,0,0,1.82-4.17h-4a5.61,5.61,0,0,1-2.23,3.66,7.25,7.25,0,0,1-4.52,1.37,7.15,7.15,0,0,1-5.05-1.92,7.84,7.84,0,0,1-2.19-5.77h18a11,11,0,0,0,.16-2m-35.14-10.35a8.69,8.69,0,0,0-5,1.49,8.18,8.18,0,0,0-3.15,4.23,7.92,7.92,0,0,0-3-4.27,9.14,9.14,0,0,0-9.82,0,7.3,7.3,0,0,0-2.93,4.07V787h-3.72v22.45H166v-11.9a8.22,8.22,0,0,1,1.78-5.71,6.18,6.18,0,0,1,4.77-1.94A5.76,5.76,0,0,1,177,791.7a7.17,7.17,0,0,1,1.63,5.07v12.72h3.73v-11.9a8.18,8.18,0,0,1,1.78-5.71,6.1,6.1,0,0,1,4.72-1.94,5.75,5.75,0,0,1,4.44,1.76,7.21,7.21,0,0,1,1.61,5.07v12.72h3.73v-13q0-4.74-2.4-7.26a8.33,8.33,0,0,0-6.32-2.51m-53.34.37L146,809.12l-4.66,11h4.21L158.89,787h-4.14L148,804.71,140.72,787Zm-14.68,3a7.82,7.82,0,0,1,3.94,1,6.91,6.91,0,0,1,2.72,2.89,9.15,9.15,0,0,1,1,4.33,9.06,9.06,0,0,1-1,4.32,7.07,7.07,0,0,1-2.72,2.88,7.55,7.55,0,0,1-3.94,1,7.22,7.22,0,0,1-5.51-2.19,9.87,9.87,0,0,1,0-12.07,7.22,7.22,0,0,1,5.51-2.19m-1.07-3.31a10.18,10.18,0,0,0-5.32,1.39,9.64,9.64,0,0,0-3.66,4,14.77,14.77,0,0,0,0,12.25,9.7,9.7,0,0,0,3.66,4,10.18,10.18,0,0,0,5.32,1.39,9.22,9.22,0,0,0,5.54-1.64,8.5,8.5,0,0,0,3.17-4.37v5.72h3.73V787h-3.73v5.72a8.52,8.52,0,0,0-3.17-4.38,9.22,9.22,0,0,0-5.54-1.63m-25.44,3.31a7.25,7.25,0,0,1,5.54,2.19,9.83,9.83,0,0,1,0,12.07,7.25,7.25,0,0,1-5.54,2.19,7.59,7.59,0,0,1-3.93-1,7,7,0,0,1-2.74-2.88,9.17,9.17,0,0,1-1-4.32,9.27,9.27,0,0,1,1-4.33,6.89,6.89,0,0,1,2.74-2.89,7.87,7.87,0,0,1,3.93-1m1.06-3.31a9.1,9.1,0,0,0-5.54,1.66,8.33,8.33,0,0,0-3.13,4.35V787H84v33.09h3.72V803.77a8.33,8.33,0,0,0,3.13,4.35,9.1,9.1,0,0,0,5.54,1.66,10.18,10.18,0,0,0,5.32-1.39,9.7,9.7,0,0,0,3.66-4,14.77,14.77,0,0,0,0-12.25,9.64,9.64,0,0,0-3.66-4,10.18,10.18,0,0,0-5.32-1.39" transform="translate(-51.26 -222.15)"/><path class="cls-3" d="M604.85,741a7.76,7.76,0,0,1,3.95,1,7,7,0,0,1,2.72,2.88,9.29,9.29,0,0,1,1,4.34,9.16,9.16,0,0,1-1,4.31,7.29,7.29,0,0,1-2.72,2.89,7.67,7.67,0,0,1-3.95,1,7.19,7.19,0,0,1-5.5-2.19,9.83,9.83,0,0,1,0-12.07,7.19,7.19,0,0,1,5.5-2.19m-1.07-3.31a10.12,10.12,0,0,0-5.31,1.39,9.59,9.59,0,0,0-3.67,4,13.48,13.48,0,0,0-1.32,6.14,13.32,13.32,0,0,0,1.32,6.11,9.66,9.66,0,0,0,3.67,4,10.12,10.12,0,0,0,5.31,1.39,9.19,9.19,0,0,0,5.55-1.64,8.56,8.56,0,0,0,3.17-4.37v5.72h3.72V738H612.5v5.72a8.56,8.56,0,0,0-3.17-4.37,9.25,9.25,0,0,0-5.55-1.64m-33.42,0a8.59,8.59,0,0,0-5.68,1.74,5.66,5.66,0,0,0-2.09,4.56,5.1,5.1,0,0,0,1,3.37,6.15,6.15,0,0,0,2.54,1.83,30.8,30.8,0,0,0,4,1.14,29.53,29.53,0,0,1,3.15.86,5.08,5.08,0,0,1,1.92,1.19,2.79,2.79,0,0,1,.78,2.08,3.3,3.3,0,0,1-1.09,2.58,4.32,4.32,0,0,1-3,1,6.39,6.39,0,0,1-4.15-1.27,4.65,4.65,0,0,1-1.78-3.31h-3.6a7.67,7.67,0,0,0,3,5.36,10.55,10.55,0,0,0,6.55,1.92,8.31,8.31,0,0,0,5.5-1.72,5.51,5.51,0,0,0,2.07-4.46A5.34,5.34,0,0,0,578.4,751a6.25,6.25,0,0,0-2.62-1.91,30.6,30.6,0,0,0-4-1.16,30.74,30.74,0,0,1-3.08-.84,4.88,4.88,0,0,1-1.89-1.15,2.68,2.68,0,0,1-.75-2,3.24,3.24,0,0,1,1.12-2.6,4.67,4.67,0,0,1,3.13-1,5.43,5.43,0,0,1,3.79,1.29,5.14,5.14,0,0,1,1.65,3.29h3.56a8.41,8.41,0,0,0-2.8-5.34,9.08,9.08,0,0,0-6.12-2M554.7,748.17H540.34a7.68,7.68,0,0,1,2.25-5.58,7.35,7.35,0,0,1,5.15-1.9,7.8,7.8,0,0,1,3.56.82,6,6,0,0,1,2.58,2.49,7.72,7.72,0,0,1,.82,4.17m3.76-.24a10.51,10.51,0,0,0-1.29-5.16,9.64,9.64,0,0,0-3.72-3.72,11.29,11.29,0,0,0-5.71-1.39,11.58,11.58,0,0,0-5.73,1.39,9.79,9.79,0,0,0-3.9,4,12.77,12.77,0,0,0-1.41,6.14,12.62,12.62,0,0,0,1.41,6.11,9.86,9.86,0,0,0,3.9,4,11.58,11.58,0,0,0,5.73,1.39,12.15,12.15,0,0,0,5.07-1,9.39,9.39,0,0,0,5.49-7h-4a5.69,5.69,0,0,1-2.23,3.66,7.27,7.27,0,0,1-4.52,1.37,7.13,7.13,0,0,1-5.05-1.92,7.84,7.84,0,0,1-2.19-5.77h18a11.89,11.89,0,0,0,.16-2M531,757.13a3.79,3.79,0,0,1-2.76-.8,4.2,4.2,0,0,1-.8-3V741.18h5.81V738h-5.81v-5.61h-3.76V738h-3.36v3.23h3.36v12.11q0,3.84,1.69,5.48a7.18,7.18,0,0,0,5.14,1.63h2.78v-3.27ZM505.24,741a7.76,7.76,0,0,1,3.95,1,7,7,0,0,1,2.72,2.88,9.29,9.29,0,0,1,1,4.34,9.16,9.16,0,0,1-1,4.31,7.22,7.22,0,0,1-2.72,2.89,7.67,7.67,0,0,1-3.95,1,7.19,7.19,0,0,1-5.5-2.19,9.83,9.83,0,0,1,0-12.07,7.19,7.19,0,0,1,5.5-2.19m-1.06-3.31a10.13,10.13,0,0,0-5.32,1.39,9.51,9.51,0,0,0-3.66,4,13.36,13.36,0,0,0-1.33,6.14,13.2,13.2,0,0,0,1.33,6.11,9.57,9.57,0,0,0,3.66,4,10.13,10.13,0,0,0,5.32,1.39,9.18,9.18,0,0,0,5.54-1.64,8.56,8.56,0,0,0,3.17-4.37v5.72h3.72V738h-3.72v5.72a8.56,8.56,0,0,0-3.17-4.37,9.24,9.24,0,0,0-5.54-1.64m-17.84,10.51H472a7.68,7.68,0,0,1,2.25-5.58,7.36,7.36,0,0,1,5.16-1.9,7.75,7.75,0,0,1,3.55.82,5.9,5.9,0,0,1,2.58,2.49,7.63,7.63,0,0,1,.82,4.17m3.76-.24a10.51,10.51,0,0,0-1.29-5.16,9.5,9.5,0,0,0-3.72-3.72,11.25,11.25,0,0,0-5.7-1.39,11.52,11.52,0,0,0-5.73,1.39,9.81,9.81,0,0,0-3.91,4,12.77,12.77,0,0,0-1.41,6.14,12.62,12.62,0,0,0,1.41,6.11,9.89,9.89,0,0,0,3.91,4,11.52,11.52,0,0,0,5.73,1.39,12.15,12.15,0,0,0,5.07-1,9.4,9.4,0,0,0,5.48-7h-4a5.61,5.61,0,0,1-2.23,3.66,7.25,7.25,0,0,1-4.52,1.37,7.15,7.15,0,0,1-5.05-1.92A7.84,7.84,0,0,1,472,750h18a11,11,0,0,0,.16-2m-32.64-5.44V738h-3.72V760.4h3.72V748.58q0-3.72,2-5.34a8,8,0,0,1,5.16-1.61h1.14v-4a9.6,9.6,0,0,0-5.07,1.29,8.24,8.24,0,0,0-3.23,3.62m-19.18-4.83a11.52,11.52,0,0,0-5.73,1.39,9.88,9.88,0,0,0-3.91,4,12.77,12.77,0,0,0-1.41,6.14,12.62,12.62,0,0,0,1.41,6.11,10,10,0,0,0,3.91,4,11.52,11.52,0,0,0,5.73,1.39,11,11,0,0,0,7.12-2.27,9.62,9.62,0,0,0,3.47-6.16H445a5.88,5.88,0,0,1-2.23,3.81,7.83,7.83,0,0,1-8.1.49,6.51,6.51,0,0,1-2.6-2.76,11.31,11.31,0,0,1,0-9.21,6.51,6.51,0,0,1,2.6-2.76,7.21,7.21,0,0,1,3.58-.9,7.34,7.34,0,0,1,4.52,1.37,5.81,5.81,0,0,1,2.23,3.79h3.92A9.67,9.67,0,0,0,445.4,740a10.94,10.94,0,0,0-7.12-2.29m-34.53-.08a8.84,8.84,0,0,0-5.05,1.47,7.7,7.7,0,0,0-3.05,4.21V738h-3.72V760.4h3.72V748.5a8.25,8.25,0,0,1,1.84-5.79,6.4,6.4,0,0,1,4.91-2,6.15,6.15,0,0,1,4.67,1.8,7.2,7.2,0,0,1,1.71,5.15V760.4h3.73v-13q0-4.75-2.42-7.27a8.4,8.4,0,0,0-6.34-2.51m-27.94,3.35a7.83,7.83,0,0,1,3.71.9,6.8,6.8,0,0,1,2.74,2.76,9.38,9.38,0,0,1,1,4.61,9.26,9.26,0,0,1-1,4.56,6.8,6.8,0,0,1-2.74,2.76,8.08,8.08,0,0,1-7.41,0,6.8,6.8,0,0,1-2.74-2.76,9.15,9.15,0,0,1-1-4.56,9.27,9.27,0,0,1,1-4.61,6.8,6.8,0,0,1,2.74-2.76,7.79,7.79,0,0,1,3.7-.9m0-3.27a11.92,11.92,0,0,0-5.79,1.39,10.07,10.07,0,0,0-4,4,12.24,12.24,0,0,0-1.48,6.14,12.1,12.1,0,0,0,1.48,6.11,10.15,10.15,0,0,0,4,4,12.75,12.75,0,0,0,11.58,0,10,10,0,0,0,4-4,12.3,12.3,0,0,0,1.45-6.11,12.44,12.44,0,0,0-1.45-6.14,9.92,9.92,0,0,0-4-4,11.86,11.86,0,0,0-5.79-1.39M355.93,760.4h3.72V738h-3.72Zm-.65-29A2.17,2.17,0,0,0,356,733a2.65,2.65,0,0,0,1.84.63,2.62,2.62,0,0,0,1.84-.63,2.32,2.32,0,0,0,0-3.32,2.62,2.62,0,0,0-1.84-.63,2.65,2.65,0,0,0-1.84.63,2.17,2.17,0,0,0-.69,1.66m-6.18,25.77a3.79,3.79,0,0,1-2.76-.8,4.2,4.2,0,0,1-.8-3V741.18h5.81V738h-5.81v-5.61h-3.76V738h-3.36v3.23h3.36v12.11c0,2.56.56,4.39,1.7,5.48a7.13,7.13,0,0,0,5.13,1.63h2.78v-3.27ZM323.37,741a7.76,7.76,0,0,1,3.95,1,7,7,0,0,1,2.72,2.88,9.29,9.29,0,0,1,1,4.34,9.16,9.16,0,0,1-1,4.31,7.22,7.22,0,0,1-2.72,2.89,7.67,7.67,0,0,1-3.95,1,7.21,7.21,0,0,1-5.5-2.19,9.83,9.83,0,0,1,0-12.07,7.21,7.21,0,0,1,5.5-2.19m-1.06-3.31a10.15,10.15,0,0,0-5.32,1.39,9.51,9.51,0,0,0-3.66,4A13.36,13.36,0,0,0,312,749.2a13.2,13.2,0,0,0,1.33,6.11,9.57,9.57,0,0,0,3.66,4,10.15,10.15,0,0,0,5.32,1.39,9.16,9.16,0,0,0,5.54-1.64,8.56,8.56,0,0,0,3.17-4.37v5.72h3.72V738H331v5.72a8.56,8.56,0,0,0-3.17-4.37,9.22,9.22,0,0,0-5.54-1.64m-24.67,0a11.58,11.58,0,0,0-5.73,1.39,9.79,9.79,0,0,0-3.9,4,12.77,12.77,0,0,0-1.42,6.14,12.62,12.62,0,0,0,1.42,6.11,9.86,9.86,0,0,0,3.9,4,11.58,11.58,0,0,0,5.73,1.39,11,11,0,0,0,7.12-2.27,9.62,9.62,0,0,0,3.47-6.16h-3.92a5.88,5.88,0,0,1-2.23,3.81,7.83,7.83,0,0,1-8.1.49,6.57,6.57,0,0,1-2.6-2.76,11.31,11.31,0,0,1,0-9.21,6.57,6.57,0,0,1,2.6-2.76,7.24,7.24,0,0,1,3.58-.9,7.34,7.34,0,0,1,4.52,1.37,5.81,5.81,0,0,1,2.23,3.79h3.92a9.67,9.67,0,0,0-3.47-6.14,10.92,10.92,0,0,0-7.12-2.29M278,760.4h3.73V738H278Zm-.65-29a2.14,2.14,0,0,0,.7,1.66,2.62,2.62,0,0,0,1.84.63,2.65,2.65,0,0,0,1.84-.63,2.34,2.34,0,0,0,0-3.32,2.65,2.65,0,0,0-1.84-.63,2.62,2.62,0,0,0-1.84.63,2.14,2.14,0,0,0-.7,1.66m-9,29H272V730.13h-3.72ZM252.07,741a7.24,7.24,0,0,1,5.54,2.19,9.83,9.83,0,0,1,0,12.07,7.24,7.24,0,0,1-5.54,2.19,7.7,7.7,0,0,1-3.93-1,7.2,7.2,0,0,1-2.74-2.89,9.16,9.16,0,0,1-1-4.31,9.29,9.29,0,0,1,1-4.34,6.93,6.93,0,0,1,2.74-2.88,7.8,7.8,0,0,1,3.93-1m1.06-3.31a9.1,9.1,0,0,0-5.54,1.66,8.39,8.39,0,0,0-3.13,4.35V738h-3.72V771h3.72V754.68a8.39,8.39,0,0,0,3.13,4.35,9.1,9.1,0,0,0,5.54,1.66,10.15,10.15,0,0,0,5.32-1.39,9.57,9.57,0,0,0,3.66-4,13.2,13.2,0,0,0,1.33-6.11,13.36,13.36,0,0,0-1.33-6.14,9.51,9.51,0,0,0-3.66-4,10.15,10.15,0,0,0-5.32-1.39M224.5,741a7.25,7.25,0,0,1,5.54,2.19,9.83,9.83,0,0,1,0,12.07,7.25,7.25,0,0,1-5.54,2.19,7.68,7.68,0,0,1-3.93-1,7.14,7.14,0,0,1-2.74-2.89,9.16,9.16,0,0,1-1-4.31,9.29,9.29,0,0,1,1-4.34,6.87,6.87,0,0,1,2.74-2.88,7.77,7.77,0,0,1,3.93-1m1.06-3.31a9.1,9.1,0,0,0-5.54,1.66,8.39,8.39,0,0,0-3.13,4.35V738h-3.72V771h3.72V754.68A8.39,8.39,0,0,0,220,759a9.1,9.1,0,0,0,5.54,1.66,10.15,10.15,0,0,0,5.32-1.39,9.7,9.7,0,0,0,3.66-4,13.2,13.2,0,0,0,1.33-6.11,13.36,13.36,0,0,0-1.33-6.14,9.64,9.64,0,0,0-3.66-4,10.15,10.15,0,0,0-5.32-1.39M195.86,741a7.74,7.74,0,0,1,3.95,1,6.89,6.89,0,0,1,2.72,2.88,9.17,9.17,0,0,1,1,4.34,9,9,0,0,1-1,4.31,7.16,7.16,0,0,1-2.72,2.89,7.65,7.65,0,0,1-3.95,1,7.21,7.21,0,0,1-5.5-2.19,9.87,9.87,0,0,1,0-12.07,7.21,7.21,0,0,1,5.5-2.19m-1.06-3.31a10.18,10.18,0,0,0-5.32,1.39,9.64,9.64,0,0,0-3.66,4,13.36,13.36,0,0,0-1.33,6.14,13.2,13.2,0,0,0,1.33,6.11,9.7,9.7,0,0,0,3.66,4,10.18,10.18,0,0,0,5.32,1.39,9.16,9.16,0,0,0,5.54-1.64,8.5,8.5,0,0,0,3.17-4.37v5.72h3.73V738h-3.73v5.72a8.5,8.5,0,0,0-3.17-4.37,9.22,9.22,0,0,0-5.54-1.64M159.25,741a7.28,7.28,0,0,1,5.55,2.19,9.87,9.87,0,0,1,0,12.07,7.28,7.28,0,0,1-5.55,2.19,7.67,7.67,0,0,1-3.92-1,7.07,7.07,0,0,1-2.74-2.89,9,9,0,0,1-1-4.31,9.17,9.17,0,0,1,1-4.34,6.81,6.81,0,0,1,2.74-2.88,7.76,7.76,0,0,1,3.92-1m1.07-3.31a9.08,9.08,0,0,0-5.54,1.66,8.33,8.33,0,0,0-3.13,4.35V730.13h-3.73V760.4h3.73v-5.72a8.33,8.33,0,0,0,3.13,4.35,9.08,9.08,0,0,0,5.54,1.66,10.18,10.18,0,0,0,5.32-1.39,9.7,9.7,0,0,0,3.66-4,13.33,13.33,0,0,0,1.33-6.11,13.48,13.48,0,0,0-1.33-6.14,9.64,9.64,0,0,0-3.66-4,10.18,10.18,0,0,0-5.32-1.39m-21,10.51H124.93a7.68,7.68,0,0,1,2.25-5.58,7.36,7.36,0,0,1,5.16-1.9,7.8,7.8,0,0,1,3.56.82,5.88,5.88,0,0,1,2.57,2.49,7.63,7.63,0,0,1,.82,4.17m3.77-.24a10.51,10.51,0,0,0-1.29-5.16,9.6,9.6,0,0,0-3.73-3.72,11.25,11.25,0,0,0-5.7-1.39,11.52,11.52,0,0,0-5.73,1.39,9.88,9.88,0,0,0-3.91,4,12.77,12.77,0,0,0-1.41,6.14,12.62,12.62,0,0,0,1.41,6.11,10,10,0,0,0,3.91,4,11.52,11.52,0,0,0,5.73,1.39,12.15,12.15,0,0,0,5.07-1,9.4,9.4,0,0,0,5.48-7h-4a5.61,5.61,0,0,1-2.23,3.66,7.25,7.25,0,0,1-4.52,1.37,7.15,7.15,0,0,1-5-1.92,7.93,7.93,0,0,1-2.19-5.77h18a10.88,10.88,0,0,0,.17-2m-29.13-16.36L108.37,756l-6.83-24.42H97.4l-6.83,24.5-5.52-24.5H80.92l7.36,28.83h4.54l6.67-23.56,6.67,23.56h4.54L118,731.57ZM63.7,760.4h4.5V756H63.7ZM55.6,735V760.4h3.92V731.57H51.26V735Z" transform="translate(-51.26 -222.15)"/><path class="cls-3" d="M1003.1,679.48a3.84,3.84,0,0,1-2.76-.8,4.16,4.16,0,0,1-.8-3V663.52h5.81v-3.23h-5.81v-5.6h-3.77v5.6h-3.35v3.23h3.35v12.11q0,3.84,1.7,5.48a7.16,7.16,0,0,0,5.14,1.64h2.78v-3.27Zm-22.91-19.56a8.84,8.84,0,0,0-5.05,1.47,7.67,7.67,0,0,0-3,4.22v-5.32h-3.72v22.46h3.72V670.84a8.19,8.19,0,0,1,1.84-5.78,6.35,6.35,0,0,1,4.91-2,6.13,6.13,0,0,1,4.66,1.8,7.16,7.16,0,0,1,1.72,5.16v12.72h3.72v-13c0-3.16-.8-5.59-2.41-7.26a8.38,8.38,0,0,0-6.34-2.52m-20.45,10.6H945.38a7.68,7.68,0,0,1,2.25-5.59,7.35,7.35,0,0,1,5.15-1.9,7.8,7.8,0,0,1,3.56.82,6,6,0,0,1,2.58,2.49,7.74,7.74,0,0,1,.82,4.18m3.76-.25a10.44,10.44,0,0,0-1.29-5.15,9.59,9.59,0,0,0-3.72-3.73,11.39,11.39,0,0,0-5.71-1.39,11.68,11.68,0,0,0-5.73,1.39,9.85,9.85,0,0,0-3.9,4,12.77,12.77,0,0,0-1.41,6.14,12.62,12.62,0,0,0,1.41,6.11,9.74,9.74,0,0,0,3.9,4,11.58,11.58,0,0,0,5.73,1.39,12.15,12.15,0,0,0,5.07-1,9.35,9.35,0,0,0,5.49-7h-4a5.74,5.74,0,0,1-2.23,3.66,7.34,7.34,0,0,1-4.52,1.37,7.1,7.1,0,0,1-5-1.93,7.84,7.84,0,0,1-2.19-5.76h18a12.1,12.1,0,0,0,.16-2.05m-35.14-10.35a8.75,8.75,0,0,0-5,1.49,8.17,8.17,0,0,0-3.15,4.24,7.91,7.91,0,0,0-3-4.28,8.59,8.59,0,0,0-5-1.45,8.49,8.49,0,0,0-4.84,1.41,7.3,7.3,0,0,0-2.93,4.07v-5.11h-3.72v22.46h3.72V670.84a8.13,8.13,0,0,1,1.78-5.7,6.14,6.14,0,0,1,4.77-1.95,5.74,5.74,0,0,1,4.41,1.76,7.22,7.22,0,0,1,1.64,5.08v12.72h3.72V670.84a8.18,8.18,0,0,1,1.78-5.7,6.1,6.1,0,0,1,4.73-1.95,5.71,5.71,0,0,1,4.43,1.76,7.26,7.26,0,0,1,1.62,5.08v12.72h3.72v-13c0-3.16-.79-5.59-2.39-7.26a8.32,8.32,0,0,0-6.32-2.52m-53.34.37,9.45,22.09-4.67,11H884l13.33-33.09h-4.13L886.47,678l-7.28-17.67Zm-14.69,3a7.76,7.76,0,0,1,3.95,1A7,7,0,0,1,867,667.2a9.32,9.32,0,0,1,1,4.34,9.13,9.13,0,0,1-1,4.31,7,7,0,0,1-2.72,2.89,7.67,7.67,0,0,1-3.95,1,7.21,7.21,0,0,1-5.5-2.19,9.82,9.82,0,0,1,0-12.06,7.21,7.21,0,0,1,5.5-2.19M859.27,660a10.25,10.25,0,0,0-5.32,1.39,9.7,9.7,0,0,0-3.66,4,13.36,13.36,0,0,0-1.33,6.14,13.2,13.2,0,0,0,1.33,6.11,9.58,9.58,0,0,0,3.66,4,10.15,10.15,0,0,0,5.32,1.39,9.22,9.22,0,0,0,5.54-1.63A8.54,8.54,0,0,0,868,677v5.73h3.72V660.29H868V666a8.54,8.54,0,0,0-3.17-4.38,9.22,9.22,0,0,0-5.54-1.64m-25.44,3.32a7.27,7.27,0,0,1,5.54,2.19,9.82,9.82,0,0,1,0,12.06,7.27,7.27,0,0,1-5.54,2.19,7.68,7.68,0,0,1-3.93-1,7,7,0,0,1-2.74-2.89,9.13,9.13,0,0,1-1-4.31,9.32,9.32,0,0,1,1-4.34,6.87,6.87,0,0,1,2.74-2.88,7.76,7.76,0,0,1,3.93-1m1.06-3.32a9.17,9.17,0,0,0-5.54,1.66,8.36,8.36,0,0,0-3.13,4.36v-5.73H822.5v33.09h3.72V677a8.4,8.4,0,0,0,3.13,4.36,9.16,9.16,0,0,0,5.54,1.65,10.18,10.18,0,0,0,5.32-1.39,9.58,9.58,0,0,0,3.66-4,13.33,13.33,0,0,0,1.33-6.11,13.48,13.48,0,0,0-1.33-6.14,9.7,9.7,0,0,0-3.66-4,10.27,10.27,0,0,0-5.32-1.39m-31.13,10.52H789.4a7.68,7.68,0,0,1,2.25-5.59,7.36,7.36,0,0,1,5.16-1.9,7.83,7.83,0,0,1,3.56.82,5.93,5.93,0,0,1,2.57,2.49,7.65,7.65,0,0,1,.82,4.18m3.76-.25a10.54,10.54,0,0,0-1.28-5.15,9.55,9.55,0,0,0-3.73-3.73,11.35,11.35,0,0,0-5.7-1.39,11.63,11.63,0,0,0-5.73,1.39,9.87,9.87,0,0,0-3.91,4,12.77,12.77,0,0,0-1.41,6.14,12.62,12.62,0,0,0,1.41,6.11,9.76,9.76,0,0,0,3.91,4,11.52,11.52,0,0,0,5.73,1.39,12.15,12.15,0,0,0,5.07-1,9.37,9.37,0,0,0,5.48-7h-4a5.66,5.66,0,0,1-2.23,3.66,7.32,7.32,0,0,1-4.52,1.37,7.11,7.11,0,0,1-5-1.93,7.84,7.84,0,0,1-2.19-5.76h18a11.15,11.15,0,0,0,.16-2.05m-35.13-10.35a8.87,8.87,0,0,0-5.06,1.47,7.66,7.66,0,0,0-3,4.22V652.48h-3.73v30.27h3.73V670.84a8.19,8.19,0,0,1,1.84-5.78,6.34,6.34,0,0,1,4.91-2,6.15,6.15,0,0,1,4.66,1.8,7.21,7.21,0,0,1,1.72,5.16v12.72h3.72v-13c0-3.16-.81-5.59-2.41-7.26a8.39,8.39,0,0,0-6.34-2.52m-18.66,19.56a3.84,3.84,0,0,1-2.76-.8,4.21,4.21,0,0,1-.8-3V663.52H756v-3.23h-5.81v-5.6h-3.76v5.6h-3.35v3.23h3.35v12.11q0,3.84,1.7,5.48a7.13,7.13,0,0,0,5.13,1.64H756v-3.27Z" transform="translate(-51.26 -222.15)"/><path class="cls-3" d="M1053.7,610.83a8.77,8.77,0,0,0-5,1.48,7.61,7.61,0,0,0-3.05,4.21V603.39h-3.72v30.27h3.72v-11.9a8.2,8.2,0,0,1,1.84-5.79,6.35,6.35,0,0,1,4.91-2,6.13,6.13,0,0,1,4.66,1.8,7.16,7.16,0,0,1,1.72,5.16v12.72h3.72v-13q0-4.74-2.41-7.26a8.38,8.38,0,0,0-6.34-2.52m-18.65,19.56a3.88,3.88,0,0,1-2.77-.8,4.21,4.21,0,0,1-.79-3V614.43h5.81V611.2h-5.81v-5.6h-3.77v5.6h-3.35v3.23h3.35v12.11c0,2.57.57,4.39,1.7,5.48a7.13,7.13,0,0,0,5.13,1.64h2.79v-3.27Zm-18.13,3.27h3.73V611.2h-3.73Zm-.65-29a2.13,2.13,0,0,0,.69,1.65,3,3,0,0,0,3.69,0,2.33,2.33,0,0,0,0-3.31,3,3,0,0,0-3.69,0,2.14,2.14,0,0,0-.69,1.66m-6.38,6.58-4.83,18.86L998.8,611.2h-3.88l-6.22,18.9-4.79-18.9h-3.76l6.38,22.46h4.05l6.22-18.29,6.17,18.29h4l6.47-22.46Zm-54.69,3a7.72,7.72,0,0,1,3.94,1,7,7,0,0,1,2.72,2.88,9.19,9.19,0,0,1,1,4.34,9.06,9.06,0,0,1-1,4.32,7.07,7.07,0,0,1-2.72,2.88,7.64,7.64,0,0,1-3.94,1,7.22,7.22,0,0,1-5.51-2.19,9.86,9.86,0,0,1,0-12.06,7.22,7.22,0,0,1,5.51-2.19m-1.07-3.31a10.18,10.18,0,0,0-5.32,1.39,9.61,9.61,0,0,0-3.66,4,13.51,13.51,0,0,0-1.33,6.14,13.37,13.37,0,0,0,1.33,6.12,9.61,9.61,0,0,0,3.66,4,10.18,10.18,0,0,0,5.32,1.4,9.22,9.22,0,0,0,5.54-1.64,8.48,8.48,0,0,0,3.17-4.38v5.73h3.73V603.39h-3.73v13.54a8.48,8.48,0,0,0-3.17-4.38,9.22,9.22,0,0,0-5.54-1.63M936.3,621.43H921.94a7.68,7.68,0,0,1,2.25-5.59,7.4,7.4,0,0,1,5.15-1.9,7.93,7.93,0,0,1,3.56.82,6,6,0,0,1,2.58,2.5,7.59,7.59,0,0,1,.82,4.17m3.76-.25a10.44,10.44,0,0,0-1.29-5.15,9.5,9.5,0,0,0-3.72-3.72,11.29,11.29,0,0,0-5.71-1.39,11.58,11.58,0,0,0-5.73,1.39,9.77,9.77,0,0,0-3.9,4,12.79,12.79,0,0,0-1.41,6.14,12.66,12.66,0,0,0,1.41,6.12,9.77,9.77,0,0,0,3.9,4,11.58,11.58,0,0,0,5.73,1.4,12.15,12.15,0,0,0,5.07-1,9.35,9.35,0,0,0,5.49-7h-4a5.7,5.7,0,0,1-2.23,3.66,7.34,7.34,0,0,1-4.52,1.37,7.13,7.13,0,0,1-5-1.92,7.88,7.88,0,0,1-2.19-5.77h18a12,12,0,0,0,.16-2.05m-27.49,9.21a3.84,3.84,0,0,1-2.76-.8,4.21,4.21,0,0,1-.8-3V614.43h5.81V611.2H909v-5.6h-3.76v5.6H901.9v3.23h3.35v12.11c0,2.57.57,4.39,1.7,5.48a7.13,7.13,0,0,0,5.13,1.64h2.78v-3.27Zm-25.73-16.16a7.73,7.73,0,0,1,3.95,1,7,7,0,0,1,2.72,2.88,9.19,9.19,0,0,1,1,4.34,9.06,9.06,0,0,1-1,4.32,7.07,7.07,0,0,1-2.72,2.88,7.65,7.65,0,0,1-3.95,1,7.19,7.19,0,0,1-5.5-2.19,9.86,9.86,0,0,1,0-12.06,7.19,7.19,0,0,1,5.5-2.19m-1.06-3.31a10.18,10.18,0,0,0-5.32,1.39,9.54,9.54,0,0,0-3.66,4,13.38,13.38,0,0,0-1.33,6.14,13.24,13.24,0,0,0,1.33,6.12,9.55,9.55,0,0,0,3.66,4,10.18,10.18,0,0,0,5.32,1.4,9.22,9.22,0,0,0,5.54-1.64,8.48,8.48,0,0,0,3.17-4.38v5.73h3.73V611.2h-3.73v5.73a8.48,8.48,0,0,0-3.17-4.38,9.22,9.22,0,0,0-5.54-1.63m-18.9,22.74h3.72V611.2h-3.72Zm-.65-29a2.13,2.13,0,0,0,.69,1.65,3,3,0,0,0,3.68,0,2.31,2.31,0,0,0,0-3.31,3,3,0,0,0-3.68,0,2.14,2.14,0,0,0-.69,1.66m-14.81,6.3a11.52,11.52,0,0,0-5.73,1.39,9.79,9.79,0,0,0-3.91,4,12.79,12.79,0,0,0-1.41,6.14,12.66,12.66,0,0,0,1.41,6.12,9.8,9.8,0,0,0,3.91,4,11.53,11.53,0,0,0,5.73,1.4,11,11,0,0,0,7.12-2.27,9.65,9.65,0,0,0,3.47-6.16h-3.92a5.83,5.83,0,0,1-2.23,3.8,7.83,7.83,0,0,1-8.1.49,6.51,6.51,0,0,1-2.6-2.76,11.29,11.29,0,0,1,0-9.2,6.51,6.51,0,0,1,2.6-2.76,7.88,7.88,0,0,1,8.1.47,5.77,5.77,0,0,1,2.23,3.78H862a9.65,9.65,0,0,0-3.47-6.13,10.94,10.94,0,0,0-7.12-2.29m-26.06,3.27a7.76,7.76,0,0,1,3.7.9,6.74,6.74,0,0,1,2.74,2.76,10.51,10.51,0,0,1,0,9.16,6.74,6.74,0,0,1-2.74,2.76,8.06,8.06,0,0,1-7.4,0,6.74,6.74,0,0,1-2.74-2.76,10.51,10.51,0,0,1,0-9.16,6.74,6.74,0,0,1,2.74-2.76,7.76,7.76,0,0,1,3.7-.9m0-3.27a11.92,11.92,0,0,0-5.79,1.39,10.07,10.07,0,0,0-4,4,12.37,12.37,0,0,0-1.47,6.14,12.24,12.24,0,0,0,1.47,6.12,10.08,10.08,0,0,0,4,4,12.67,12.67,0,0,0,11.58,0,10,10,0,0,0,4-4,12.34,12.34,0,0,0,1.45-6.12,12.47,12.47,0,0,0-1.45-6.14,10,10,0,0,0-4-4,11.92,11.92,0,0,0-5.79-1.39m-24.3,0a8.58,8.58,0,0,0-5.68,1.73,5.63,5.63,0,0,0-2.09,4.56,5.13,5.13,0,0,0,1,3.38,6.12,6.12,0,0,0,2.54,1.82,31.74,31.74,0,0,0,4,1.15,29.89,29.89,0,0,1,3.15.85,5.21,5.21,0,0,1,1.92,1.19,2.81,2.81,0,0,1,.78,2.09,3.31,3.31,0,0,1-1.09,2.57,4.27,4.27,0,0,1-3,1,6.47,6.47,0,0,1-4.16-1.27,4.71,4.71,0,0,1-1.78-3.32h-3.6a7.66,7.66,0,0,0,3,5.36,10.55,10.55,0,0,0,6.55,1.93,8.36,8.36,0,0,0,5.5-1.72,5.55,5.55,0,0,0,2.06-4.46,5.36,5.36,0,0,0-1.08-3.52,6.29,6.29,0,0,0-2.62-1.9,29,29,0,0,0-4-1.17,31.05,31.05,0,0,1-3.09-.84,4.82,4.82,0,0,1-1.88-1.14,2.72,2.72,0,0,1-.76-2,3.23,3.23,0,0,1,1.13-2.59,4.67,4.67,0,0,1,3.13-1,5.42,5.42,0,0,1,3.78,1.28,5.15,5.15,0,0,1,1.66,3.3H810a8.36,8.36,0,0,0-2.8-5.34,9.08,9.08,0,0,0-6.12-2m-21.15,0a8.58,8.58,0,0,0-5.68,1.73,5.66,5.66,0,0,0-2.09,4.56,5.13,5.13,0,0,0,1,3.38,6.12,6.12,0,0,0,2.54,1.82,31.74,31.74,0,0,0,4,1.15,29.89,29.89,0,0,1,3.15.85,5.21,5.21,0,0,1,1.92,1.19,2.81,2.81,0,0,1,.78,2.09,3.28,3.28,0,0,1-1.09,2.57,4.27,4.27,0,0,1-3,1,6.47,6.47,0,0,1-4.16-1.27,4.66,4.66,0,0,1-1.77-3.32h-3.6a7.65,7.65,0,0,0,3,5.36,10.55,10.55,0,0,0,6.55,1.93,8.36,8.36,0,0,0,5.5-1.72,5.52,5.52,0,0,0,2.06-4.46,5.36,5.36,0,0,0-1.08-3.52,6.23,6.23,0,0,0-2.62-1.9,29,29,0,0,0-4-1.17,31.05,31.05,0,0,1-3.09-.84,4.82,4.82,0,0,1-1.88-1.14,2.72,2.72,0,0,1-.75-2,3.22,3.22,0,0,1,1.12-2.59,4.67,4.67,0,0,1,3.13-1,5.42,5.42,0,0,1,3.78,1.28,5.11,5.11,0,0,1,1.66,3.3h3.56a8.36,8.36,0,0,0-2.8-5.34,9.08,9.08,0,0,0-6.12-2m-24.34,3.31a7.73,7.73,0,0,1,3.95,1,7,7,0,0,1,2.72,2.88,9.32,9.32,0,0,1,1,4.34,9.17,9.17,0,0,1-1,4.32,7.07,7.07,0,0,1-2.72,2.88,7.65,7.65,0,0,1-3.95,1,7.21,7.21,0,0,1-5.5-2.19,9.82,9.82,0,0,1,0-12.06,7.21,7.21,0,0,1,5.5-2.19m-1.06-3.31a10.18,10.18,0,0,0-5.32,1.39,9.61,9.61,0,0,0-3.66,4,13.38,13.38,0,0,0-1.33,6.14,13.24,13.24,0,0,0,1.33,6.12,9.61,9.61,0,0,0,3.66,4,10.18,10.18,0,0,0,5.32,1.4,9.22,9.22,0,0,0,5.54-1.64,8.48,8.48,0,0,0,3.17-4.38v5.73h3.72V611.2h-3.72v5.73a8.48,8.48,0,0,0-3.17-4.38,9.22,9.22,0,0,0-5.54-1.63" transform="translate(-51.26 -222.15)"/><path class="cls-3" d="M1155.23,555.73h-3.72v28.84h13.94v-2.9h-10.22ZM1131.38,559h5.44q6.35,0,6.34,5.57t-6.34,5.56h-5.44Zm15.79,25.61-7.86-11.9A9.2,9.2,0,0,0,1145,570a8.06,8.06,0,0,0,2-5.67,8.23,8.23,0,0,0-2.45-6.24c-1.64-1.56-4.09-2.35-7.36-2.35h-9.49v28.84h3.72V572.79h4l7.53,11.78Zm-46.76-28.84V573q0,5.88,2.93,8.85a11.75,11.75,0,0,0,15.62,0q2.93-3,2.93-8.85V555.73h-3.72V573c0,2.8-.62,4.89-1.84,6.25a6.53,6.53,0,0,1-5.12,2.05,6.73,6.73,0,0,1-5.19-2q-1.89-2-1.89-6.27V555.73Zm-27.2,9.41a7.76,7.76,0,0,1,4,1,7,7,0,0,1,2.72,2.89,9.27,9.27,0,0,1,1,4.33,9.17,9.17,0,0,1-1,4.32,7.13,7.13,0,0,1-2.72,2.88,7.67,7.67,0,0,1-4,1,7.19,7.19,0,0,1-5.5-2.18,9.83,9.83,0,0,1,0-12.07,7.19,7.19,0,0,1,5.5-2.19m-1.06-3.31a10.13,10.13,0,0,0-5.32,1.39,9.45,9.45,0,0,0-3.66,4,14.77,14.77,0,0,0,0,12.25,9.57,9.57,0,0,0,3.66,4,10.22,10.22,0,0,0,5.32,1.39,9.22,9.22,0,0,0,5.54-1.64,8.54,8.54,0,0,0,3.17-4.38v5.73h3.72V562.11h-3.72v5.73a8.54,8.54,0,0,0-3.17-4.38,9.22,9.22,0,0,0-5.54-1.63m-33.43,0a8.59,8.59,0,0,0-5.68,1.74,5.63,5.63,0,0,0-2.09,4.56,5.07,5.07,0,0,0,1,3.37,6.09,6.09,0,0,0,2.53,1.82,31.07,31.07,0,0,0,4,1.15,26.21,26.21,0,0,1,3.15.86,5.06,5.06,0,0,1,1.92,1.18,2.83,2.83,0,0,1,.78,2.09,3.34,3.34,0,0,1-1.08,2.58,4.36,4.36,0,0,1-3,1,6.44,6.44,0,0,1-4.15-1.27,4.67,4.67,0,0,1-1.78-3.31h-3.6a7.64,7.64,0,0,0,3,5.35,10.51,10.51,0,0,0,6.55,1.93,8.36,8.36,0,0,0,5.5-1.72,5.53,5.53,0,0,0,2.07-4.46,5.33,5.33,0,0,0-1.09-3.52,6.31,6.31,0,0,0-2.62-1.9,30.67,30.67,0,0,0-4-1.17,31.48,31.48,0,0,1-3.09-.83,4.77,4.77,0,0,1-1.88-1.15,2.66,2.66,0,0,1-.76-2,3.24,3.24,0,0,1,1.12-2.6,4.69,4.69,0,0,1,3.13-1,5.41,5.41,0,0,1,3.79,1.29,5.12,5.12,0,0,1,1.65,3.29h3.56a8.31,8.31,0,0,0-2.8-5.34,9.08,9.08,0,0,0-6.12-2m-21.51-.08a8.82,8.82,0,0,0-5.05,1.47,7.61,7.61,0,0,0-3,4.21v-5.32h-3.72v22.46h3.72v-11.9a8.2,8.2,0,0,1,1.84-5.79,6.39,6.39,0,0,1,4.91-2,6.13,6.13,0,0,1,4.66,1.8,7.16,7.16,0,0,1,1.72,5.16v12.72H1026V571.52q0-4.74-2.41-7.26a8.37,8.37,0,0,0-6.34-2.51m-23.81,4.9v-4.54h-3.72v22.46h3.72V572.75q0-3.72,2-5.34a8,8,0,0,1,5.16-1.62h1.14v-4a9.6,9.6,0,0,0-5.07,1.28,8.3,8.3,0,0,0-3.23,3.62M980,562.11v11.95a8.23,8.23,0,0,1-1.85,5.79,6.36,6.36,0,0,1-4.9,2,6.13,6.13,0,0,1-4.67-1.82,7.27,7.27,0,0,1-1.72-5.17V562.11h-3.72V575.2c0,3.14.8,5.55,2.42,7.22a8.3,8.3,0,0,0,6.3,2.52,9,9,0,0,0,5.09-1.45,7.65,7.65,0,0,0,3-4.2v5.28h3.72V562.11ZM956.91,581.3a3.86,3.86,0,0,1-2.76-.8,4.2,4.2,0,0,1-.79-3v-12.2h5.8v-3.23h-5.8v-5.6h-3.77v5.6h-3.35v3.23h3.35v12.11c0,2.57.57,4.39,1.7,5.48a7.09,7.09,0,0,0,5.13,1.64h2.78V581.3Zm-17-9H925.5a7.66,7.66,0,0,1,2.25-5.58,7.36,7.36,0,0,1,5.15-1.91,7.93,7.93,0,0,1,3.56.82,6,6,0,0,1,2.58,2.5,7.63,7.63,0,0,1,.82,4.17m3.76-.25a10.44,10.44,0,0,0-1.29-5.15,9.57,9.57,0,0,0-3.72-3.72,11.29,11.29,0,0,0-5.71-1.39,11.58,11.58,0,0,0-5.73,1.39,9.73,9.73,0,0,0-3.9,4,14,14,0,0,0,0,12.25,9.86,9.86,0,0,0,3.9,4,11.68,11.68,0,0,0,5.73,1.39,12,12,0,0,0,5.07-1,9.35,9.35,0,0,0,5.49-7h-4a5.65,5.65,0,0,1-2.23,3.66,7.34,7.34,0,0,1-4.52,1.37,7.13,7.13,0,0,1-5-1.92,7.86,7.86,0,0,1-2.19-5.77h18a11.93,11.93,0,0,0,.16-2M911,566.65v-4.54h-3.73v22.46H911V572.75c0-2.48.66-4.26,2-5.34a7.93,7.93,0,0,1,5.15-1.62h1.15v-4a9.6,9.6,0,0,0-5.07,1.28,8.24,8.24,0,0,0-3.23,3.62m-23.53,17.92h3.73V554.3h-3.73Zm-9.69,0h3.72V562.11h-3.72Zm-.66-29a2.14,2.14,0,0,0,.7,1.65,3,3,0,0,0,3.68,0,2.31,2.31,0,0,0,0-3.31,3,3,0,0,0-3.68,0,2.16,2.16,0,0,0-.7,1.66m-16.64,9.61a7.72,7.72,0,0,1,3.94,1,6.91,6.91,0,0,1,2.72,2.89,9.16,9.16,0,0,1,1,4.33,9.06,9.06,0,0,1-1,4.32,7.07,7.07,0,0,1-2.72,2.88,7.64,7.64,0,0,1-3.94,1A7.21,7.21,0,0,1,855,579.4a9.87,9.87,0,0,1,0-12.07,7.22,7.22,0,0,1,5.51-2.19m-1.07-3.31a10.18,10.18,0,0,0-5.32,1.39,9.58,9.58,0,0,0-3.66,4,14.77,14.77,0,0,0,0,12.25,9.7,9.7,0,0,0,3.66,4,10.27,10.27,0,0,0,5.32,1.39,9.22,9.22,0,0,0,5.54-1.64,8.5,8.5,0,0,0,3.18-4.38v5.73h3.72V562.11h-3.72v5.73a8.5,8.5,0,0,0-3.18-4.38,9.22,9.22,0,0,0-5.54-1.63m-21.19,4.82v-4.54h-3.72v22.46h3.72V572.75q0-3.72,2-5.34a7.92,7.92,0,0,1,5.15-1.62h1.15v-4a9.61,9.61,0,0,0-5.08,1.28,8.36,8.36,0,0,0-3.23,3.62M827.65,581.3a3.84,3.84,0,0,1-2.76-.8,4.2,4.2,0,0,1-.8-3v-12.2h5.81v-3.23h-5.81v-5.6h-3.76v5.6H817v3.23h3.36v12.11c0,2.57.56,4.39,1.69,5.48a7.13,7.13,0,0,0,5.14,1.64h2.78V581.3Zm-34.16-19.19,9.45,22.09-4.66,11h4.21l13.34-33.1H811.7L805,579.79l-7.28-17.68Zm-14.68,3a7.76,7.76,0,0,1,4,1,7,7,0,0,1,2.72,2.89,9.27,9.27,0,0,1,1,4.33,9.17,9.17,0,0,1-1,4.32,7.13,7.13,0,0,1-2.72,2.88,7.67,7.67,0,0,1-4,1,7.19,7.19,0,0,1-5.5-2.18,9.83,9.83,0,0,1,0-12.07,7.19,7.19,0,0,1,5.5-2.19m-1.06-3.31a10.13,10.13,0,0,0-5.32,1.39,9.45,9.45,0,0,0-3.66,4,14.77,14.77,0,0,0,0,12.25,9.57,9.57,0,0,0,3.66,4,10.22,10.22,0,0,0,5.32,1.39,9.24,9.24,0,0,0,5.54-1.64,8.54,8.54,0,0,0,3.17-4.38v5.73h3.72V562.11h-3.72v5.73a8.54,8.54,0,0,0-3.17-4.38,9.24,9.24,0,0,0-5.54-1.63m-23.73,8h-5.11v-11H754q3.39,0,4.89,1.41a6.33,6.33,0,0,1,0,8.16c-1,1-2.63,1.43-4.89,1.43m.33,3.11c3.19,0,5.63-.75,7.32-2.27a8,8,0,0,0,2.53-6.32,8.25,8.25,0,0,0-2.45-6.32c-1.64-1.54-4.1-2.31-7.4-2.31h-9.17v28.84h3.73V573Zm-28,11.62h4.49v-4.38h-4.49Zm-22.71-2.86v2.7h19.84v-3.07H708.82a41.39,41.39,0,0,0,6.52-4.89,29.72,29.72,0,0,0,5.28-6.26,12.54,12.54,0,0,0,2.11-6.65,7.89,7.89,0,0,0-2.38-6.13,9.13,9.13,0,0,0-6.42-2.17,9.61,9.61,0,0,0-6.95,2.6,10.76,10.76,0,0,0-3,7.42h3.68a8.52,8.52,0,0,1,1.64-5,5.26,5.26,0,0,1,4.33-1.82,5,5,0,0,1,4,1.49,5.94,5.94,0,0,1,1.25,4q0,4-4.17,8.57a60.19,60.19,0,0,1-11.13,9.27" transform="translate(-51.26 -222.15)"/></g></svg>