<svg version="1.1" xmlns="http://www.w3.org/2000/svg" viewBox="0 0 529.453125 730.99609375">
  <!-- svg-source:excalidraw -->
  <defs>
    <style>
      @font-face {
        font-family: "Virgil";
        src: url("https://excalidraw.com/FG_Virgil.woff2");
      }
      @font-face {
        font-family: "Cascadia";
        src: url("https://excalidraw.com/Cascadia.woff2");
      }
    </style>
  </defs>
  <g transform="translate(262.65625 87.765625) rotate(0 10.951171875 12.796875)"><path d="M15.348013893083408 1.042228620414571 C17.64100631212973 1.6612775359722298, 19.455063912633406 3.281649341836381, 20.38619186284093 5.605961328229 C21.317319813048456 7.930273314621619, 21.307728369604074 12.179804252841627, 20.934781594328555 14.988100538770286 C20.561834819053036 17.796396824698945, 19.89090077724828 20.80050339321546, 18.148511211187817 22.455739043800953 C16.406121645127353 24.110974694386446, 12.952723255041512 24.875901906255404, 10.480444197965783 24.919514442283234 C8.008165140890053 24.963126978311063, 4.919698665811639 24.300288221471128, 3.3148368687334413 22.717414259967924 C1.7099750716552435 21.13454029846472, 1.2450307205069842 17.985343758475096, 0.8512734154965962 15.422270673264007 C0.4575161104862082 12.859197588052917, -0.18646241248559936 9.747597120547464, 0.9522930386711135 7.338975748701383 C2.091048489827826 4.930354376855302, 5.215928166309768 1.839880545077206, 7.683806122436873 0.9705424421875186 C10.151684078563978 0.10120433929783113, 14.114674316452694 1.9260726290944448, 15.759560775433744 2.122947131363258 C17.404447234414796 2.319821633632071, 17.516019415259894 2.1271694583847918, 17.553124876323174 2.1517894558003974 M9.45797360784793 -1.126521668372785 C11.875309004756247 -1.3940418906209624, 15.839741493436547 0.7770909926455625, 18.07027280143769 2.6590459293637636 C20.300804109438833 4.541000866081965, 22.53893604848638 7.6436772652747536, 22.841161455854785 10.165207951936422 C23.14338686322319 12.68673863859809, 20.805845854220863 15.55822112483505, 19.883625245648105 17.78823004933377 C18.961404637075347 20.01823897383249, 18.99464596327065 22.07717812354612, 17.307837804418234 23.54526149892874 C15.621029645565818 25.013344874311358, 12.405967464210354 26.896472489134126, 9.762776292533607 26.596730301629492 C7.1195851208568595 26.296988114124858, 3.0544361632906574 24.13442337841175, 1.4486907743577468 21.746808373900937 C-0.1570546145751639 19.359193369390123, -0.28010882734089043 15.067339649883543, 0.12830395893614188 12.271040274564603 C0.5367167452131743 9.474740899245663, 2.5259843294257296 7.024767964117093, 3.8991674920199406 4.969012121987303 C5.272350654614152 2.913256279857514, 7.487101666915875 0.5757766111817055, 8.367402934501408 -0.06349477821412997 C9.24770420208694 -0.7027661676099655, 9.105764160630649 0.7470845161603117, 9.180975097533135 1.1333837856122901" style="stroke: none; stroke-width: 0; fill: rgb(34, 34, 34);"></path><path d="M9.395898523465906 0.7893677745694969 C11.379385665714597 -0.12726514710440506, 13.239912280223276 0.07900663926149654, 15.189370064542153 1.2133512836759177 C17.13882784886103 2.3476959280903387, 20.017594825056623 4.905415663012091, 21.092645229379166 7.595435641056024 C22.167695633701708 10.285455619099958, 22.301200682544078 14.712916812450727, 21.639672490477402 17.35347115193952 C20.978144298410726 19.99402549142831, 19.04936170788174 21.940350868905895, 17.12347607697911 23.43876167798878 C15.197590446076479 24.937172487071663, 12.317268846489451 26.796303546717002, 10.084358705061616 26.343936006436827 C7.851448563633781 25.891568466156652, 5.28626617744463 22.795285342552187, 3.7260152284120966 20.724556436307736 C2.1657642793795633 18.653827530063285, 0.8160762216054804 16.678506052312986, 0.722853010866416 13.919562568970123 C0.6296298001273515 11.160619085627262, 1.6849220534062361 6.3737934656797695, 3.16667596397771 4.1708955362505655 C4.648429874549183 1.967997606821362, 8.187843182611429 1.21815733556363, 9.613376474295258 0.7021749923949034 C11.038909765979087 0.18619264922617695, 11.657088567017365 1.0204103739070407, 11.719875714080684 1.0750014772382066 M9.793023480856 1.025045341920265 C11.987647552112623 0.2839941652030701, 15.755423046212536 -0.1555518245033325, 17.50511190386575 1.0049016325919737 C19.254800761518965 2.1653550896872797, 19.604208176721095 5.119750093430399, 20.291156626775283 7.987766084492103 C20.978105076829472 10.855782075553806, 22.50835295524632 15.491420525627182, 21.62680260419087 18.212997578962195 C20.745252253135423 20.934574632297206, 17.012793770401544 22.87601888395863, 15.001854520442585 24.317228404502178 C12.990915270483624 25.758437925045726, 11.696269414342053 27.59600164347848, 9.56116710443711 26.86025470222348 C7.426064794532168 26.124507760968477, 4.02714952485087 22.221334418563316, 2.191240661012932 19.902746756972164 C0.3553317971749943 17.58415909538101, -1.5499947177233873 15.41635911813802, -1.4542860785905152 12.948728732676559 C-1.358577439457643 10.481098347215097, 0.9300816411159276 7.44683540424359, 2.7654924958101645 5.09696444420339 C4.600903350504401 2.7470934841631913, 8.42575861520156 -0.1599039414625517, 9.558179049574907 -1.1504970275646365 C10.690599483948253 -2.141090113666721, 9.804636811090745 -1.1085885769245696, 9.560015102050237 -0.8465940724091183" style="stroke: rgb(0, 0, 0); stroke-width: 1; fill: none;"></path></g><g transform="translate(168.12109375 10) rotate(0 108 32)"><text x="108" y="26" font-family="Helvetica" font-size="28px" fill="#000000" text-anchor="middle">Merchant creates</text><text x="108" y="58" font-family="Helvetica" font-size="28px" fill="#000000" text-anchor="middle">a refund</text></g><g transform="translate(187.8203125 182.33984375) rotate(0 87.34375 30.3203125)"><path d="M0.48893789015710354 1.5208957735449076 L173.84738478623333 -1.2014837320894003 L173.86626831255856 58.96584051288664 L0.47802255116403103 59.26719223894179" style="stroke: none; stroke-width: 0; fill: rgb(255, 241, 172);"></path><path d="M-1.0916321333497763 1.8252910729497671 C45.073263341473655 0.004309182715951376, 90.34459840675119 0.9563019924884428, 173.78125696815553 -1.2573901657015085 M0.1495296834036708 -0.05265242140740156 C57.3570769490616 2.4808185727713865, 113.81375732476592 2.2733573050616545, 174.2541822968051 -0.6788509218022227 M175.5080421511084 0.39017615281045437 C172.33209249257186 15.056678841046233, 175.04159203051665 26.571911616562286, 175.34961449541154 61.56943300925195 M174.07539435010406 -0.9518261281773448 C174.80776253019158 12.684165735224088, 174.01085549269501 26.802668165336947, 174.76221840363 61.37268662173301 M174.61276137270036 60.93234661780298 C135.39054562905224 63.419247260774135, 91.1518446711707 61.72390501805639, -1.4187188800424337 61.661566471681 M175.65082089882347 61.10373210627586 C106.62795910370188 60.69815398758219, 36.762372508470435 59.45165883010195, -0.08753834385424852 61.07722881156951 M-0.3091517146676779 61.57820627652109 C2.4475935038171883 47.17867112414242, 0.3511199887834664 34.342587738731524, -0.8269047793000937 0.47939840517938137 M0.21733154635876417 61.45169928390533 C-1.2216728353842337 40.08830185219849, -0.20259896162591762 18.45649945985933, -0.7709485413506627 -0.4570395378395915" style="stroke: rgb(0, 0, 0); stroke-width: 1; fill: none;"></path></g><g transform="translate(180.125 310.79296875) rotate(0 92.224609375 85.10546875)"><path d="M93.29696612991393 -1.1479429248720407 L184.09629225172102 85.88500157557428 L93.91105454601347 171.72492811642587 L1.841045493260026 87.10700515471399" style="stroke: none; stroke-width: 0; fill: rgb(34, 139, 230);"></path><path d="M94.96215788088739 -0.6769316848367453 C119.55330825840377 26.595854106893274, 145.04720034912737 51.765373918575676, 185.6116009708494 87.35218262113631 M93.64244681317359 -0.4498812975361943 C116.50985277494277 22.700537540263866, 140.12783696317769 44.733683948650395, 184.24949034769088 86.9102921364829 M184.5073972698301 86.33533071912825 C148.78686175899566 116.47226773109007, 116.94883925630675 147.9687555862439, 94.55476478300989 168.2617781702429 M184.63023218233138 85.69939206819981 C155.31410454076962 112.39533649804875, 128.4530558193956 137.85882068656798, 92.73132192809135 170.85172839742154 M91.47645524702966 171.1821668688208 C66.89550903465359 149.71501069574458, 44.230718457118996 127.79642059427366, -1.5285091642290354 87.33413350023329 M93.66393601614982 171.066373067908 C65.27609514592106 145.45516670041644, 37.1012278341491 119.5154651319873, 0.9573446782305837 85.98496286850423 M0.9449543710798025 87.89244639314711 C26.92252008453012 56.50794851290993, 59.12857769051568 31.67551592118106, 91.94326106272638 -1.8452411349862814 M-0.7625146834179759 86.65371673088521 C29.472439050935208 58.9743753771577, 60.254192603547125 31.926182580860328, 93.48886841256171 0.16714276652783155" style="stroke: rgb(0, 0, 0); stroke-width: 1; fill: none;"></path></g><g transform="translate(12.37890625 560.17578125) rotate(0 87.34375 30.3203125)"><path d="M-0.7821400221437216 1.3189911004155874 L175.70690816082063 -0.14866902865469456 L174.28481780923906 58.76859477721155 L-0.770884221419692 61.28837285004556" style="stroke: none; stroke-width: 0; fill: rgb(130, 201, 30);"></path><path d="M0.12171695195138454 -0.6010123547166586 C51.475892433518325 -1.2939220887230476, 102.60470132267804 -0.9995245557831367, 174.2689799424261 1.618300849571824 M-0.04426297824829817 -0.6182230236008763 C60.899757636623704 1.7128049979073694, 122.63189184555088 1.8868309209210565, 175.43806189019236 0.37300147395581007 M174.94778100214901 0.024254733696579933 C173.45249959625932 11.943563916401764, 175.3676271716568 26.1296520450298, 173.00450406037274 60.743623251095414 M175.39324372727427 0.9554592547938228 C176.06108009256033 18.573247596916918, 174.3310358170381 35.278456402602025, 175.07429620344195 59.68016134481877 M174.2633985038847 60.83730601705611 C133.72295189314175 61.36840419644432, 87.21092286967907 60.00465582484321, 0.9336221572011709 59.51577525772154 M174.41753193456682 61.012138473801315 C135.77450985656472 62.27713490909955, 98.33665459527403 61.00670473164937, -0.8061730889603496 59.8594477949664 M-1.2796361092478037 59.325995499268174 C2.1249785025448364 45.20841753710265, 0.09589602545209353 26.418287466172472, 0.6983630415052176 -1.3176235016435385 M0.6348333330824971 60.680446225218475 C0.3295380697345536 39.83793061392644, 1.0838974044418137 18.305430681040164, -0.5141064850613475 -0.4341403963044286" style="stroke: rgb(0, 0, 0); stroke-width: 1; fill: none;"></path></g><g transform="translate(344.765625 558.50390625) rotate(0 87.34375 30.3203125)"><path d="M0.3235123697668314 0.26560101471841335 L175.514081472531 -0.08573945797979832 L175.95812385715547 58.92483375035226 L1.040588254109025 58.87623909674585" style="stroke: none; stroke-width: 0; fill: rgb(250, 82, 82);"></path><path d="M-0.509712303057313 -0.3225808795541525 C41.62214599605068 -2.643214147127583, 82.8435180738452 -1.7186457920441174, 173.52252039872113 1.2696666661649942 M0.9647218557074666 0.08869685512036085 C52.5877705429739 -1.1490510879928482, 105.81268404499863 -0.055415141480625874, 175.19720408041033 -0.07433451432734728 M175.3352478500456 -0.5635304506868124 C175.9415094832347 16.1439297407007, 174.90502458609802 32.95270256941731, 172.89846161566678 61.968774849548936 M174.22739049512896 0.05409036856144667 C175.83519571557716 16.1730324136719, 175.1980688823767 30.951874170391243, 174.42840623576197 59.925531464628875 M176.4148176070303 59.98883395828307 C128.56792708989815 61.355724918245684, 79.20105328114005 62.851029204725634, -0.6248376611620188 59.10188304819167 M174.68722271639857 61.2558682737872 C128.04135739905178 60.68762353927887, 80.62730074411957 60.60615152985847, -0.6871428219601512 61.56946616154164 M-0.4414742235094309 62.238381976261735 C0.796788362123334 41.56386603563296, 1.1633834515589114 22.72711292764579, 0.7098857518285513 -1.1048734840005636 M0.37720802146941423 60.8490293500945 C-0.5045679918031966 46.1491077618979, 0.3633997031945909 31.712540475153943, -0.002195778302848339 0.00758554320782423" style="stroke: rgb(0, 0, 0); stroke-width: 1; fill: none;"></path></g><g transform="translate(240.2890625 201.828125) rotate(0 33.5 11.5)"><text x="33.5" y="18" font-family="Helvetica" font-size="20px" fill="#000000" text-anchor="middle">created</text></g><g transform="translate(219.39453125 371.37109375) rotate(0 52.5 23)"><text x="52.5" y="18" font-family="Helvetica" font-size="20px" fill="#eee" text-anchor="middle">refunding</text><text x="52.5" y="41" font-family="Helvetica" font-size="20px" fill="#eee" text-anchor="middle">successful?</text></g><g transform="translate(46.72265625 579.3125) rotate(0 46 11.5)"><text x="46" y="18" font-family="Helvetica" font-size="20px" fill="#eee" text-anchor="middle">completed</text></g><g transform="translate(387.4765625 578.18359375) rotate(0 42.5 11.5)"><text x="42.5" y="18" font-family="Helvetica" font-size="20px" fill="#eee" text-anchor="middle">cancelled</text></g><g><g transform="translate(274.12109375 114.21484375) rotate(0 -0.1625029759892982 34.94209150974639)"><path d="M-1.164735249057412 -0.535207250341773 C-1.3970715754975875 10.710973947619397, -0.2370744897673528 56.74227839844922, -0.28605624772608285 68.29683476425707 M0.8702615049015732 -1.086896896166727 C0.8695610109499347 10.972554355955992, -0.7067525382308911 58.99320101499247, -0.7969498640764505 70.9710799156595" style="stroke: rgb(0, 0, 0); stroke-width: 2; fill: none;"></path></g><g transform="translate(274.12109375 114.21484375) rotate(0 -0.1625029759892982 34.94209150974639)"><path d="M-11.340377030836356 44.2506693712923 C-8.414463710785332 53.53424490463659, -3.802429021518419 64.08161976483882, -2.311296964706853 71.92218538549729 M-9.559866285825086 43.2848418103087 C-7.4574494696150655 49.37674229677154, -6.641129573807505 56.095035793107506, -1.1935642694029958 69.9971203979943" style="stroke: rgb(0, 0, 0); stroke-width: 2; fill: none;"></path></g><g transform="translate(274.12109375 114.21484375) rotate(0 -0.1625029759892982 34.94209150974639)"><path d="M9.176076932554269 44.69239230924373 C4.0497494330903505 53.60353131005546, 0.6125608137412026 63.977604947032006, -2.311296964706853 71.92218538549729 M10.956587677565539 43.72656474826013 C8.121400943729803 49.88105052739763, 4.0013240020588015 56.493062513398726, -1.1935642694029958 69.9971203979943" style="stroke: rgb(0, 0, 0); stroke-width: 2; fill: none;"></path></g></g><g><g transform="translate(273.52734375 243.2109375) rotate(0 -0.516853434951031 32.84377897812519)"><path d="M-1.086958733573556 0.21497167088091373 C-1.0554765734821558 11.202300609524052, -0.16444298364222049 55.93263243970772, 0.09440009258687498 67.05874426104128 M-1.1281069624889644 -1.3711863047908992 C-1.1738072625268252 9.601609734293692, -0.5984920472372324 54.63028364489165, -0.29724356149323294 66.22791816015727" style="stroke: rgb(0, 0, 0); stroke-width: 2; fill: none;"></path></g><g transform="translate(273.52734375 243.2109375) rotate(0 -0.516853434951031 32.84377897812519)"><path d="M-10.710640791976166 37.05764740555347 C-6.934560519184675 45.954081099758085, -3.9330455558963076 54.65955548876207, 0.13023395287804296 64.99501437601633 M-11.133129668594611 39.097084156598754 C-8.43761109032516 45.20038065242877, -6.689285873740825 50.59907847627345, -0.724546103635803 65.9069063961599" style="stroke: rgb(0, 0, 0); stroke-width: 2; fill: none;"></path></g><g transform="translate(273.52734375 243.2109375) rotate(0 -0.516853434951031 32.84377897812519)"><path d="M9.80717271898859 36.684376572094024 C7.593004331891058 45.504002092125006, 4.600740828802566 54.31851844520182, 0.13023395287804296 64.99501437601633 M9.384683842370146 38.72381332313931 C7.459989768211009 44.86660205432596, 4.590334040275781 50.34931261155178, -0.724546103635803 65.9069063961599" style="stroke: rgb(0, 0, 0); stroke-width: 2; fill: none;"></path></g></g><g><g transform="translate(218.921875 436.62890625) rotate(0 -65.6007710959762 61.562503154366254)"><path d="M0.2714862439781427 0.9124830689281225 C-18.246794202551246 6.328298648819328, -89.58486065727969 12.664780160412196, -111.54227977059782 33.000693472847345 C-133.49969888391593 53.3366067852825, -128.00013195139667 107.93148558996619, -131.47302843593062 122.92796294353903 M0.21518669684417535 0.19704336519353083 C-18.573084784848618 5.925600572479889, -90.00589562118364 13.836037552906202, -111.6722187430691 34.25655331159942 C-133.33854186495455 54.67706907029263, -126.44453887313915 107.94496615852229, -129.7827520344686 122.72013791735284" style="stroke: rgb(92, 148, 13); stroke-width: 2; fill: none;"></path></g><g transform="translate(218.921875 436.62890625) rotate(0 -65.6007710959762 61.562503154366254)"><path d="M-136.83780760346443 92.7557146473408 C-135.9726830844888 101.33173292612203, -132.11155012719658 107.40875672905598, -128.09807271066123 123.87577742236667 M-138.82840438122392 94.65865541888328 C-134.95070472812858 102.81748427688757, -133.4802350055632 111.36402324743952, -129.6027098095324 123.53837781204842" style="stroke: rgb(92, 148, 13); stroke-width: 2; fill: none;"></path></g><g transform="translate(218.921875 436.62890625) rotate(0 -65.6007710959762 61.562503154366254)"><path d="M-116.35249965596763 93.96904093571715 C-120.89959130523414 102.27114710752187, -122.44556034594423 108.027913142551, -128.09807271066123 123.87577742236667 M-118.34309643372713 95.87198170725964 C-120.48391823913737 103.69648082321989, -125.03054324460656 111.88663270738357, -129.6027098095324 123.53837781204842" style="stroke: rgb(92, 148, 13); stroke-width: 2; fill: none;"></path></g></g><g><g transform="translate(322.62109375 437.4765625) rotate(0 58.3182884785254 58.774177205055025)"><path d="M-0.8632331516593694 -0.3274637494236231 C16.691760378455122 5.154811740542451, 86.48811291990181 12.884954496845602, 105.83485157229006 32.457746013626455 C125.18159022467832 52.03053753040731, 113.59034015076857 103.05551149907211, 115.21719876267017 117.10928535126149 M-0.9388792131375522 1.1415026372205466 C16.680481401778135 6.827328565769519, 87.27134178558674 13.885529974652457, 106.61130127300508 33.34124922837131 C125.95126076042342 52.796968482090165, 113.6792293652861 103.97678547566446, 115.10087771137245 117.87581815953367" style="stroke: rgb(217, 72, 15); stroke-width: 2; fill: none;"></path></g><g transform="translate(322.62109375 437.4765625) rotate(0 58.3182884785254 58.774177205055025)"><path d="M105.93473375519713 88.136595898841 C109.25450903226302 99.62883097868047, 111.79181861632776 110.08960829242115, 114.07079708931036 118.85411060052924 M106.57548004412999 89.60070897692111 C108.68670213324931 96.75366473666978, 110.93038178578081 103.53607268420843, 114.96155449450947 118.60481696679257" style="stroke: rgb(217, 72, 15); stroke-width: 2; fill: none;"></path></g><g transform="translate(322.62109375 437.4765625) rotate(0 58.3182884785254 58.774177205055025)"><path d="M126.4218961494968 89.3181962608216 C122.73783398611283 100.2588596949254, 118.26701389821314 110.31544201094869, 114.07079708931036 118.85411060052924 M127.06264243842966 90.78230933890171 C123.89995545378167 97.75853508213761, 120.8636638466546 104.23641984429868, 114.96155449450947 118.60481696679257" style="stroke: rgb(217, 72, 15); stroke-width: 2; fill: none;"></path></g></g><g transform="translate(108.6953125 410.5625) rotate(0 22 16)"><text x="22" y="26" font-family="Helvetica" font-size="28px" fill="#000000" text-anchor="middle">yes</text></g><g transform="translate(390.61328125 412.41796875) rotate(0 15.5 16)"><text x="15.5" y="26" font-family="Helvetica" font-size="28px" fill="#000000" text-anchor="middle">no</text></g><g transform="translate(10 685.70703125) rotate(0 252.82421875 17.64453125)"><path d="M1.2557120081037283 -1.5256568249315023 L504.66784123145044 1.637520844116807 L506.4171038623899 35.58304142393172 L-1.3433628920465708 33.81890051998198" style="stroke: none; stroke-width: 0; fill: rgb(21, 170, 191);"></path><path d="M-0.5200115941464901 -0.6796610452234746 C200.99714451279218 1.7342563355664897, 401.06315086997495 1.0301054919461894, 505.21529898419976 0.7707038067281247 M-0.39793750531971456 -0.041319287940859796 C116.39414238089739 -0.29066812096556516, 232.7926992416018 -0.5399493962379346, 505.94971692077814 -0.14107961766421795 M506.2105740252882 -1.107787812128663 C507.3938340066735 13.727754554803688, 506.44988925445716 26.207864411360063, 506.65236037410796 35.65011856518686 M505.88838307838887 0.4130144091323018 C506.4612304163025 11.234829765617178, 506.0107751381443 22.842897143891605, 506.53741397242993 35.07236316520721 M506.0840678907931 34.803656473010776 C368.16489895227636 36.576813566043306, 232.60322284212884 36.71319159205191, -0.24310169443488122 34.9271704338491 M505.5464838575572 35.48478814251721 C359.6366235376052 35.92088171436471, 214.15509077807798 35.68711481287164, 0.1131591271609068 35.19328968413174 M1.5870027486234903 33.49874130450189 C-0.7801662917284558 21.746788719623147, -0.2767881984858105 12.397094054055927, -0.19564861617982388 -0.15435161627829075 M-0.19738091249018908 35.51503568608314 C-0.17337625851847405 23.262123344174324, -0.5897720121405291 8.55431312171131, 0.7432816801592708 0.94998296815902" style="stroke: rgb(0, 0, 0); stroke-width: 2; fill: none;"></path></g><g transform="translate(211.21875 691.767578125) rotate(0 41.5 11.5)"><text x="41.5" y="18" font-family="Helvetica" font-size="20px" fill="#eee" text-anchor="middle">notify call</text></g><g><g transform="translate(87.609375 620.60546875) rotate(0 52.37212101200129 33.73911032353527)"><path d="M-0.12895428277552123 0.8478161428123714 C17.314481866980593 11.763185395176212, 88.25048946601649 54.62193595704933, 105.8049046959728 65.4084855530411 M-1.0606626719702037 0.4921613263059408 C16.391976725511874 11.547501558658354, 88.03766685560656 55.86170885930148, 105.73125711406581 66.98605932076461" style="stroke: rgb(0, 0, 0); stroke-width: 2; fill: none;"></path></g><g transform="translate(87.609375 620.60546875) rotate(0 52.37212101200129 33.73911032353527)"><path d="M77.7918287682581 61.00831011927973 C86.43994129950029 62.47857748312548, 98.30902951484622 66.8298940743876, 106.44603080439381 65.826865143748 M76.06678212520212 61.2818031642894 C86.21948968997697 62.281671723560436, 95.78006430596704 65.64265691187546, 105.57245877428912 67.63139995993114" style="stroke: rgb(0, 0, 0); stroke-width: 2; fill: none;"></path></g><g transform="translate(87.609375 620.60546875) rotate(0 52.37212101200129 33.73911032353527)"><path d="M88.64393830322716 43.59131494138313 C92.98943722812442 51.93585689608973, 100.56806453987085 63.173109961560066, 106.44603080439381 65.826865143748 M86.91889166017118 43.864807986392805 C93.52976074573868 50.59697345276539, 99.54284519949228 59.65147093472359, 105.57245877428912 67.63139995993114" style="stroke: rgb(0, 0, 0); stroke-width: 2; fill: none;"></path></g></g><g><g transform="translate(435.3984375 620.41796875) rotate(0 -47.09568929693194 34.16486093141134)"><path d="M1.0061232771724462 0.176712391152978 C-14.628318253532052 11.36039104598264, -77.05848789550363 57.084832602118446, -92.98491665460169 68.15300947166979 M-1.2982611212600021 1.8174156584311278 C-17.081639825152234 12.874807368215794, -79.73394884501585 55.979338698781405, -95.19750187103637 66.85202695359476" style="stroke: rgb(0, 0, 0); stroke-width: 2; fill: none;"></path></g><g transform="translate(435.3984375 620.41796875) rotate(0 -47.09568929693194 34.16486093141134)"><path d="M-77.60289562296839 43.14909032380957 C-82.85843792296588 49.71272627708143, -91.84519363212902 60.006611527293984, -94.64266395312734 65.43316234019585 M-78.23120276526333 42.135024604599955 C-85.80439256471212 51.45804644925541, -91.52141841763496 61.395574682092246, -94.63559622154571 66.59963351697661" style="stroke: rgb(0, 0, 0); stroke-width: 2; fill: none;"></path></g><g transform="translate(435.3984375 620.41796875) rotate(0 -47.09568929693194 34.16486093141134)"><path d="M-65.89605600460098 60.00346389673309 C-75.61291521745474 60.454793224201914, -88.91338038992133 64.53821748326007, -94.64266395312734 65.43316234019585 M-66.52436314689592 58.989398177523476 C-78.61301962137566 61.54505694670804, -89.00473089167555 64.7524259795542, -94.63559622154571 66.59963351697661" style="stroke: rgb(0, 0, 0); stroke-width: 2; fill: none;"></path></g></g></svg>