<svg id="Layer_1" data-name="Layer 1" xmlns="http://www.w3.org/2000/svg" viewBox="0 0 505.89 266.71"><defs><style>.cls-1{fill:none;stroke:#000;stroke-miterlimit:10;stroke-width:1.5px;}</style></defs><line x1="123.76" y1="189.93" x2="179.27" y2="134.43"/><line class="cls-1" x1="123.76" y1="189.93" x2="172.94" y2="140.75"/><polygon points="173.88 147.66 171.63 142.06 166.03 139.81 179.26 134.43 173.88 147.66"/><line x1="257.82" y1="251.78" x2="336.32" y2="251.78"/><line class="cls-1" x1="257.82" y1="251.78" x2="327.37" y2="251.78"/><polygon points="323.16 257.33 325.51 251.78 323.16 246.23 336.32 251.78 323.16 257.33"/><line x1="207.27" y1="134.43" x2="151.76" y2="189.93"/><line class="cls-1" x1="207.27" y1="134.43" x2="158.09" y2="183.6"/><polygon points="157.14 176.7 159.4 182.29 164.99 184.55 151.76 189.93 157.14 176.7"/><line x1="361.76" y1="134.43" x2="417.27" y2="189.93"/><line class="cls-1" x1="361.76" y1="134.43" x2="410.94" y2="183.6"/><polygon points="404.03 184.55 409.63 182.29 411.88 176.7 417.27 189.93 404.03 184.55"/><path d="M702.73,334.26,694,368.1h-4l-8.45-29-8.5,29h-4l-8.73-33.84H664l7.06,29.67,8.54-29.67h3.79L691.93,364l7.1-29.72Z" transform="translate(-474.38 -331.82)"/><path d="M725.84,343.62a10.43,10.43,0,0,1,3.86,5.48v-7.2H733v26.2H729.7v-7.2a10.43,10.43,0,0,1-3.86,5.48,11.22,11.22,0,0,1-6.8,2.06,12.44,12.44,0,0,1-6.36-1.63,11.16,11.16,0,0,1-4.36-4.68,17.19,17.19,0,0,1,0-14.31,11,11,0,0,1,4.34-4.65,12.55,12.55,0,0,1,6.38-1.61A11.22,11.22,0,0,1,725.84,343.62Zm-13,3.72a12.32,12.32,0,0,0,0,15.32,9.29,9.29,0,0,0,7.08,2.8,9.81,9.81,0,0,0,5-1.29,9.2,9.2,0,0,0,3.51-3.67,12.54,12.54,0,0,0,0-11,9.2,9.2,0,0,0-3.51-3.67,9.81,9.81,0,0,0-5-1.29A9.29,9.29,0,0,0,712.83,347.34Z" transform="translate(-474.38 -331.82)"/><path d="M740.24,332.44a2.56,2.56,0,0,1,1.8-.62,2.48,2.48,0,0,1,1.77.62,2.19,2.19,0,0,1,.67,1.68,2.1,2.1,0,0,1-.67,1.63,2.49,2.49,0,0,1-1.77.63,2.57,2.57,0,0,1-1.8-.63,2.06,2.06,0,0,1-.7-1.63A2.14,2.14,0,0,1,740.24,332.44Zm3.48,9.46v26.2h-3.41V341.9Z" transform="translate(-474.38 -331.82)"/><path d="M762.92,365.13v3H759.8q-3.79,0-5.67-1.8t-1.87-6.07V344.82h-4V341.9h4v-6.63h3.41v6.63h7.2v2.92h-7.2v15.46c0,1.86.33,3.13,1,3.82a4.9,4.9,0,0,0,3.55,1Z" transform="translate(-474.38 -331.82)"/><path d="M768.36,332.44a2.59,2.59,0,0,1,1.8-.62,2.49,2.49,0,0,1,1.78.62,2.19,2.19,0,0,1,.67,1.68,2.1,2.1,0,0,1-.67,1.63,2.5,2.5,0,0,1-1.78.63,2.6,2.6,0,0,1-1.8-.63,2.09,2.09,0,0,1-.69-1.63A2.16,2.16,0,0,1,768.36,332.44Zm3.48,9.46v26.2h-3.4V341.9Z" transform="translate(-474.38 -331.82)"/><path d="M799.66,344.32c1.9,1.94,2.86,4.78,2.86,8.52V368.1H799.2v-15q0-4.27-2.16-6.55a7.73,7.73,0,0,0-5.9-2.28,8.11,8.11,0,0,0-6.26,2.52c-1.56,1.68-2.33,4.15-2.33,7.41V368.1h-3.41V341.9h3.41v6.43a9.13,9.13,0,0,1,3.65-5.14,10.59,10.59,0,0,1,6-1.77A9.94,9.94,0,0,1,799.66,344.32Z" transform="translate(-474.38 -331.82)"/><path d="M827.45,343.62a10.5,10.5,0,0,1,3.87,5.48v-7.2h3.31v26.83a13,13,0,0,1-1.54,6.41,10.76,10.76,0,0,1-4.27,4.27,12.67,12.67,0,0,1-6.24,1.51,13.6,13.6,0,0,1-8.42-2.47,11.36,11.36,0,0,1-4.3-6.7h3.36a8.42,8.42,0,0,0,3.19,4.56,10,10,0,0,0,6,1.68,9.53,9.53,0,0,0,4.53-1.08,7.85,7.85,0,0,0,3.22-3.19,10.14,10.14,0,0,0,1.18-5V360.9a10.5,10.5,0,0,1-3.87,5.48,11.19,11.19,0,0,1-6.79,2.06,12.39,12.39,0,0,1-6.36-1.63,11.18,11.18,0,0,1-4.37-4.68,17.19,17.19,0,0,1,0-14.31,11,11,0,0,1,4.35-4.65,12.52,12.52,0,0,1,6.38-1.61A11.19,11.19,0,0,1,827.45,343.62Zm-13,3.72a12.36,12.36,0,0,0,0,15.32,9.32,9.32,0,0,0,7.08,2.8,9.85,9.85,0,0,0,5-1.29,9.17,9.17,0,0,0,3.5-3.67,12.46,12.46,0,0,0,0-11,9.17,9.17,0,0,0-3.5-3.67,9.85,9.85,0,0,0-5-1.29A9.32,9.32,0,0,0,814.44,347.34Z" transform="translate(-474.38 -331.82)"/><path d="M649.37,404V418.1H646V384.26h10.13q5.71,0,8.52,2.64a9.48,9.48,0,0,1,2.81,7.25,9.2,9.2,0,0,1-2.9,7.27c-1.94,1.72-4.75,2.57-8.43,2.57Zm12.72-4.68a6.73,6.73,0,0,0,1.92-5.16,6.85,6.85,0,0,0-1.92-5.25c-1.28-1.2-3.37-1.8-6.29-1.8h-6.43v14h6.43C658.72,401.11,660.81,400.51,662.09,399.31Z" transform="translate(-474.38 -331.82)"/><path d="M690.58,393.62a10.43,10.43,0,0,1,3.86,5.48v-7.2h3.32v26.2h-3.32v-7.2a10.43,10.43,0,0,1-3.86,5.48,11.19,11.19,0,0,1-6.79,2.06,12.39,12.39,0,0,1-6.36-1.63,11.18,11.18,0,0,1-4.37-4.68,17.19,17.19,0,0,1,0-14.31,11,11,0,0,1,4.34-4.65,12.59,12.59,0,0,1,6.39-1.61A11.19,11.19,0,0,1,690.58,393.62Zm-13,3.72a12.36,12.36,0,0,0,0,15.32,9.32,9.32,0,0,0,7.08,2.8,9.85,9.85,0,0,0,5-1.29,9.17,9.17,0,0,0,3.5-3.67,12.54,12.54,0,0,0,0-11,9.17,9.17,0,0,0-3.5-3.67,9.85,9.85,0,0,0-5-1.29A9.32,9.32,0,0,0,677.57,397.34Z" transform="translate(-474.38 -331.82)"/><path d="M705.77,391.9l9.12,21.84,8.4-21.84H727l-15.41,38.59h-3.84l5.28-12.67L702,391.9Z" transform="translate(-474.38 -331.82)"/><path d="M770.45,394.32q2.81,2.91,2.81,8.52V418.1H769.9v-15q0-4.23-2-6.48a7.17,7.17,0,0,0-5.59-2.26,7.76,7.76,0,0,0-6,2.5c-1.5,1.66-2.26,4.11-2.26,7.34V418.1h-3.31v-15q0-4.23-2-6.48a7.17,7.17,0,0,0-5.59-2.26,7.78,7.78,0,0,0-6,2.5q-2.25,2.49-2.25,7.34V418.1h-3.41V391.9h3.41v6.24a8.76,8.76,0,0,1,3.48-5,10.12,10.12,0,0,1,5.83-1.7,9.78,9.78,0,0,1,6,1.82,9.47,9.47,0,0,1,3.46,5.38,9.7,9.7,0,0,1,3.69-5.36,10.22,10.22,0,0,1,6-1.84A9.7,9.7,0,0,1,770.45,394.32Z" transform="translate(-474.38 -331.82)"/><path d="M797.69,413.88a7.11,7.11,0,0,0,2.88-4.8h3.55a10.67,10.67,0,0,1-4,6.77,12.87,12.87,0,0,1-8.26,2.59,13.49,13.49,0,0,1-6.64-1.61,11.25,11.25,0,0,1-4.54-4.65,16.63,16.63,0,0,1,0-14.36,11.25,11.25,0,0,1,4.54-4.65,13.49,13.49,0,0,1,6.64-1.61,13.18,13.18,0,0,1,6.65,1.61,10.87,10.87,0,0,1,4.27,4.29,12.05,12.05,0,0,1,1.47,5.86,15.24,15.24,0,0,1-.19,2.45h-21.7a11,11,0,0,0,1.37,5.54,8.21,8.21,0,0,0,3.43,3.29,10.12,10.12,0,0,0,4.56,1.06A9.75,9.75,0,0,0,797.69,413.88Zm-10.46-18.53a8.39,8.39,0,0,0-3.43,3.24,11,11,0,0,0-1.42,5.45h18.53a9.66,9.66,0,0,0-1.06-5.42,7.84,7.84,0,0,0-3.36-3.27,10.2,10.2,0,0,0-4.61-1.05A10.31,10.31,0,0,0,787.23,395.35Z" transform="translate(-474.38 -331.82)"/><path d="M830.84,394.32q2.85,2.91,2.85,8.52V418.1h-3.31v-15q0-4.27-2.16-6.55a7.74,7.74,0,0,0-5.9-2.28,8.12,8.12,0,0,0-6.27,2.52q-2.32,2.52-2.33,7.41V418.1h-3.4V391.9h3.4v6.43a9.17,9.17,0,0,1,3.65-5.14,10.62,10.62,0,0,1,6-1.77A9.94,9.94,0,0,1,830.84,394.32Z" transform="translate(-474.38 -331.82)"/><path d="M852.7,415.13v3h-3.12q-3.8,0-5.66-1.8T842,410.23V394.82h-4V391.9h4v-6.63h3.41v6.63h7.2v2.92h-7.2v15.46c0,1.86.34,3.13,1,3.82a4.92,4.92,0,0,0,3.55,1Z" transform="translate(-474.38 -331.82)"/><path d="M500.44,566a15.64,15.64,0,0,1,5.62,8.14H502.5a11.85,11.85,0,0,0-4.46-5.81,13.26,13.26,0,0,0-7.73-2.16,11.85,11.85,0,0,0-10.85,6.67,18,18,0,0,0,0,15,11.88,11.88,0,0,0,10.85,6.65,13.26,13.26,0,0,0,7.73-2.16,11.81,11.81,0,0,0,4.46-5.81h3.56a15.64,15.64,0,0,1-5.62,8.14,16.46,16.46,0,0,1-10.08,2.95,15.64,15.64,0,0,1-8.3-2.21,15,15,0,0,1-5.67-6.12,19.19,19.19,0,0,1-2-8.9,19.49,19.49,0,0,1,2-9,14.91,14.91,0,0,1,5.67-6.12,15.9,15.9,0,0,1,8.3-2.18A16.46,16.46,0,0,1,500.44,566Z" transform="translate(-474.38 -331.82)"/><path d="M530,572.7a10.49,10.49,0,0,1,3.87,5.48V571h3.31v26.2H533.9V590a10.45,10.45,0,0,1-3.87,5.48,11.17,11.17,0,0,1-6.79,2.06,12.39,12.39,0,0,1-6.36-1.63,11.18,11.18,0,0,1-4.37-4.68,17.19,17.19,0,0,1,0-14.31,11,11,0,0,1,4.35-4.65,12.52,12.52,0,0,1,6.38-1.61A11.17,11.17,0,0,1,530,572.7Zm-13,3.72a12.32,12.32,0,0,0,0,15.32,9.28,9.28,0,0,0,7.07,2.8,9.85,9.85,0,0,0,5-1.29,9.11,9.11,0,0,0,3.5-3.67,12.46,12.46,0,0,0,0-11,9.11,9.11,0,0,0-3.5-3.67,9.85,9.85,0,0,0-5-1.29A9.28,9.28,0,0,0,517,576.42Z" transform="translate(-474.38 -331.82)"/><path d="M565,573.4q2.87,2.91,2.86,8.52v15.26h-3.31v-15q0-4.27-2.16-6.55a7.75,7.75,0,0,0-5.91-2.28,8.11,8.11,0,0,0-6.26,2.52q-2.32,2.52-2.33,7.41v13.92H544.5V571h3.41v6.43a9.13,9.13,0,0,1,3.65-5.14,10.62,10.62,0,0,1,6.05-1.77A9.91,9.91,0,0,1,565,573.4Z" transform="translate(-474.38 -331.82)"/><path d="M594.83,573.28a11,11,0,0,1,4,7h-3.5a7.49,7.49,0,0,0-2.93-4.92,9.57,9.57,0,0,0-5.91-1.8,9.71,9.71,0,0,0-4.68,1.15,8.35,8.35,0,0,0-3.4,3.53,13.92,13.92,0,0,0,0,11.66,8.29,8.29,0,0,0,3.4,3.53,9.71,9.71,0,0,0,4.68,1.15,9.57,9.57,0,0,0,5.91-1.8,7.49,7.49,0,0,0,2.93-4.92h3.5a10.94,10.94,0,0,1-4,7,12.8,12.8,0,0,1-8.28,2.64,13.44,13.44,0,0,1-6.65-1.61,11.28,11.28,0,0,1-4.53-4.65,16.63,16.63,0,0,1,0-14.36,11.28,11.28,0,0,1,4.53-4.65,13.55,13.55,0,0,1,6.65-1.61A12.8,12.8,0,0,1,594.83,573.28Z" transform="translate(-474.38 -331.82)"/><path d="M622.26,593a7.11,7.11,0,0,0,2.88-4.8h3.56a10.68,10.68,0,0,1-4,6.77,12.84,12.84,0,0,1-8.25,2.59,13.39,13.39,0,0,1-6.65-1.61,11.25,11.25,0,0,1-4.54-4.65,16.63,16.63,0,0,1,0-14.36,11.25,11.25,0,0,1,4.54-4.65,13.5,13.5,0,0,1,6.65-1.61,13.14,13.14,0,0,1,6.64,1.61,10.9,10.9,0,0,1,4.28,4.29,12.15,12.15,0,0,1,1.46,5.86,14.17,14.17,0,0,1-.19,2.45H607a11,11,0,0,0,1.37,5.54,8.21,8.21,0,0,0,3.43,3.29,10.12,10.12,0,0,0,4.56,1.06A9.75,9.75,0,0,0,622.26,593ZM611.8,574.43a8.39,8.39,0,0,0-3.43,3.24,11.09,11.09,0,0,0-1.42,5.45h18.53a9.66,9.66,0,0,0-1.06-5.42,7.84,7.84,0,0,0-3.36-3.27,10.16,10.16,0,0,0-4.6-1A10.32,10.32,0,0,0,611.8,574.43Z" transform="translate(-474.38 -331.82)"/><path d="M638.3,561.67v35.51h-3.41V561.67Z" transform="translate(-474.38 -331.82)"/><path d="M649,561.67v35.51h-3.41V561.67Z" transform="translate(-474.38 -331.82)"/><path d="M673.67,593a7.11,7.11,0,0,0,2.88-4.8h3.55a10.71,10.71,0,0,1-4,6.77,12.87,12.87,0,0,1-8.26,2.59,13.44,13.44,0,0,1-6.65-1.61,11.28,11.28,0,0,1-4.53-4.65,16.63,16.63,0,0,1,0-14.36,11.28,11.28,0,0,1,4.53-4.65,13.55,13.55,0,0,1,6.65-1.61,13.18,13.18,0,0,1,6.65,1.61,10.87,10.87,0,0,1,4.27,4.29,12.05,12.05,0,0,1,1.47,5.86,14.12,14.12,0,0,1-.2,2.45H658.36a11,11,0,0,0,1.37,5.54,8.21,8.21,0,0,0,3.43,3.29,10.12,10.12,0,0,0,4.56,1.06A9.75,9.75,0,0,0,673.67,593Zm-10.46-18.53a8.42,8.42,0,0,0-3.44,3.24,11,11,0,0,0-1.41,5.45h18.53a9.74,9.74,0,0,0-1.06-5.42,7.84,7.84,0,0,0-3.36-3.27,10.73,10.73,0,0,0-9.26,0Z" transform="translate(-474.38 -331.82)"/><path d="M704.13,572.7a10.22,10.22,0,0,1,3.81,5.48V561.67h3.36v35.51h-3.36V590a10.19,10.19,0,0,1-3.81,5.48,11.22,11.22,0,0,1-6.8,2.06,12.44,12.44,0,0,1-6.36-1.63,11.16,11.16,0,0,1-4.36-4.68,17.19,17.19,0,0,1,0-14.31,11,11,0,0,1,4.34-4.65,12.55,12.55,0,0,1,6.38-1.61A11.22,11.22,0,0,1,704.13,572.7Zm-13,3.72a12.36,12.36,0,0,0,0,15.32,9.29,9.29,0,0,0,7.08,2.8,9.81,9.81,0,0,0,5-1.29,9.2,9.2,0,0,0,3.51-3.67,12.54,12.54,0,0,0,0-11,9.2,9.2,0,0,0-3.51-3.67,9.81,9.81,0,0,0-5-1.29A9.29,9.29,0,0,0,691.12,576.42Z" transform="translate(-474.38 -331.82)"/><path d="M888.87,584.07v14.11h-3.4V564.34h10.12c3.81,0,6.65.89,8.52,2.64a9.46,9.46,0,0,1,2.81,7.25,9.2,9.2,0,0,1-2.9,7.27c-1.94,1.72-4.75,2.57-8.43,2.57Zm12.72-4.68a6.73,6.73,0,0,0,1.92-5.16,6.85,6.85,0,0,0-1.92-5.25q-1.92-1.8-6.28-1.8h-6.44v14h6.44Q899.68,581.19,901.59,579.39Z" transform="translate(-474.38 -331.82)"/><path d="M930.08,573.71a10.48,10.48,0,0,1,3.87,5.47V572h3.31v26.2H934V591a10.5,10.5,0,0,1-3.87,5.48,11.17,11.17,0,0,1-6.79,2.06,12.39,12.39,0,0,1-6.36-1.63,11.18,11.18,0,0,1-4.37-4.68,17.17,17.17,0,0,1,0-14.3,11,11,0,0,1,4.35-4.66,12.52,12.52,0,0,1,6.38-1.61A11.11,11.11,0,0,1,930.08,573.71Zm-13,3.71a12.36,12.36,0,0,0,0,15.32,9.32,9.32,0,0,0,7.08,2.8,9.85,9.85,0,0,0,5-1.29,9.11,9.11,0,0,0,3.5-3.67,12.46,12.46,0,0,0,0-11,9.11,9.11,0,0,0-3.5-3.67,9.85,9.85,0,0,0-5-1.29A9.32,9.32,0,0,0,917.07,577.42Z" transform="translate(-474.38 -331.82)"/><path d="M944.48,562.52a2.64,2.64,0,0,1,1.8-.62,2.54,2.54,0,0,1,1.78.62,2.19,2.19,0,0,1,.67,1.68,2.1,2.1,0,0,1-.67,1.63,2.5,2.5,0,0,1-1.78.63,2.6,2.6,0,0,1-1.8-.63,2.09,2.09,0,0,1-.69-1.63A2.16,2.16,0,0,1,944.48,562.52ZM948,572v26.2h-3.41V572Z" transform="translate(-474.38 -331.82)"/><path d="M973.09,573.71a10.23,10.23,0,0,1,3.82,5.47V562.67h3.36v35.51h-3.36V591a10.26,10.26,0,0,1-3.82,5.48,11.19,11.19,0,0,1-6.79,2.06,12.39,12.39,0,0,1-6.36-1.63,11.18,11.18,0,0,1-4.37-4.68,17.17,17.17,0,0,1,0-14.3,11,11,0,0,1,4.34-4.66,12.59,12.59,0,0,1,6.39-1.61A11.13,11.13,0,0,1,973.09,573.71Zm-13,3.71a12.36,12.36,0,0,0,0,15.32,9.32,9.32,0,0,0,7.08,2.8,9.85,9.85,0,0,0,5-1.29,9.17,9.17,0,0,0,3.5-3.67,12.54,12.54,0,0,0,0-11,9.17,9.17,0,0,0-3.5-3.67,9.85,9.85,0,0,0-5-1.29A9.32,9.32,0,0,0,960.08,577.42Z" transform="translate(-474.38 -331.82)"/></svg>