<svg id="Layer_1" data-name="Layer 1" xmlns="http://www.w3.org/2000/svg" xmlns:xlink="http://www.w3.org/1999/xlink" viewBox="0 0 1887.21 1207.08"><defs><style>.cls-1,.cls-11,.cls-2,.cls-5{fill:none;}.cls-2{stroke:#231f20;stroke-miterlimit:11;stroke-width:3.92px;}.cls-3{fill:#231f20;}.cls-4{clip-path:url(#clip-path);}.cls-5{stroke:#333;stroke-linecap:round;stroke-linejoin:round;stroke-width:7.85px;}.cls-6{fill:#fff;}.cls-7{fill:#171717;}.cls-8{fill:#f4ba36;}.cls-9{fill:#e50695;}.cls-10{clip-path:url(#clip-path-6);}.cls-11{stroke:#fff;stroke-width:8.75px;}</style><clipPath id="clip-path" transform="translate(-53.03 -147.46)"><rect class="cls-1" x="53.03" y="147.46" width="1907.69" height="1207.08"/></clipPath><clipPath id="clip-path-6" transform="translate(-53.03 -147.46)"><rect class="cls-1" x="754.8" y="1037.82" width="313.63" height="316.72"/></clipPath></defs><line class="cls-2" x1="1274.39" y1="407.34" x2="868.95" y2="812.78"/><polygon class="cls-3" points="858.59 823.14 881.07 822.32 859.41 800.66 858.59 823.14"/><g class="cls-4"><path class="cls-3" d="M1861.94,575.05h7.28c2.59,0,4.51.59,5.74,1.78a6.62,6.62,0,0,1,1.86,5q0,6.7-7.6,6.71h-7.28Zm24,36.84-11-17.7a13.79,13.79,0,0,0,8.07-4.52,14.13,14.13,0,0,0-1.26-18.33q-4-3.76-11.77-3.76h-16.88v44.31h8.85V594.63h3.89l10.36,17.26Zm-39.42-37.28v-7h-26.43v44.31h26.43V604.8H1829V592.87h15.69v-6.78H1829V574.61Zm-33,25.17a11.67,11.67,0,0,0-1.88-6.91,12.39,12.39,0,0,0-4.55-4,67.16,67.16,0,0,0-6.94-2.83,48,48,0,0,1-4.87-1.82,8.85,8.85,0,0,1-2.95-2.1,5.24,5.24,0,0,1,.35-7,5.9,5.9,0,0,1,4-1.28,6.26,6.26,0,0,1,4.46,1.53,6.66,6.66,0,0,1,2,3.93h9.54a12.78,12.78,0,0,0-4.74-9q-4.17-3.39-11.2-3.39c-4.52,0-8.16,1.1-10.89,3.29a10.92,10.92,0,0,0-4.12,9,11.23,11.23,0,0,0,1.86,6.72,12.49,12.49,0,0,0,4.48,3.92,49.77,49.77,0,0,0,6.78,2.73c2.14.72,3.81,1.34,5,1.89a8.7,8.7,0,0,1,3,2.16,5,5,0,0,1,1.19,3.42,5.15,5.15,0,0,1-1.47,3.8,5.73,5.73,0,0,1-4.24,1.48,6.8,6.8,0,0,1-4.93-1.79,7.19,7.19,0,0,1-2.16-4.49h-9.42a13.27,13.27,0,0,0,2.54,7,14.1,14.1,0,0,0,5.93,4.61,21,21,0,0,0,8.42,1.6,17.43,17.43,0,0,0,8.09-1.72,12.2,12.2,0,0,0,5-4.58,12,12,0,0,0,1.69-6.25M1740,567.58v26q0,9.24,4.77,14c3.18,3.19,7.43,4.77,12.74,4.77a19.91,19.91,0,0,0,9.2-2.07,14.74,14.74,0,0,0,6.34-6.31,21.54,21.54,0,0,0,2.29-10.39v-26h-8.79v26q0,5.22-2.29,7.82a9.62,9.62,0,0,1-13.18,0q-2.29-2.6-2.29-7.82v-26Z" transform="translate(-53.03 -147.46)"/><path class="cls-3" d="M1106.47,171.36a9.87,9.87,0,0,0-6.54,2,6.49,6.49,0,0,0-2.4,5.25,5.86,5.86,0,0,0,1.2,3.88,7,7,0,0,0,2.92,2.1,36.67,36.67,0,0,0,4.59,1.31,34.09,34.09,0,0,1,3.62,1,6,6,0,0,1,2.22,1.37,3.25,3.25,0,0,1,.89,2.4,3.81,3.81,0,0,1-1.25,3,5,5,0,0,1-3.46,1.13,7.43,7.43,0,0,1-4.78-1.46,5.42,5.42,0,0,1-2-3.82h-4.15a8.84,8.84,0,0,0,3.44,6.17,12.17,12.17,0,0,0,7.53,2.21,9.65,9.65,0,0,0,6.34-2,6.38,6.38,0,0,0,2.37-5.14,6.18,6.18,0,0,0-1.24-4.05,7.4,7.4,0,0,0-3-2.19,35.78,35.78,0,0,0-4.64-1.34,34.54,34.54,0,0,1-3.55-1,5.66,5.66,0,0,1-2.17-1.32,3.08,3.08,0,0,1-.87-2.28,3.7,3.7,0,0,1,1.3-3,5.35,5.35,0,0,1,3.6-1.11,6.19,6.19,0,0,1,4.35,1.48,5.93,5.93,0,0,1,1.91,3.79h4.1a9.6,9.6,0,0,0-3.23-6.14,10.44,10.44,0,0,0-7-2.28m-28,3.81a9,9,0,0,1,4.55,1.15,8,8,0,0,1,3.12,3.32,10.58,10.58,0,0,1,1.13,5,10.41,10.41,0,0,1-1.13,5,8.2,8.2,0,0,1-3.12,3.32,8.87,8.87,0,0,1-4.55,1.18,8.28,8.28,0,0,1-6.33-2.52,11.32,11.32,0,0,1,0-13.89,8.28,8.28,0,0,1,6.33-2.52m-1.22-3.81a11.64,11.64,0,0,0-6.12,1.6,11,11,0,0,0-4.22,4.61,17,17,0,0,0,0,14.1,11.11,11.11,0,0,0,4.22,4.59,11.64,11.64,0,0,0,6.12,1.6,10.68,10.68,0,0,0,6.38-1.88,9.84,9.84,0,0,0,3.64-5v6.59h4.29V171.69h-4.29v6.59a9.76,9.76,0,0,0-3.64-5,10.61,10.61,0,0,0-6.38-1.88m-30.08,22.41a4.43,4.43,0,0,1-3.18-.92c-.61-.61-.92-1.75-.92-3.42v-14h6.68v-3.71h-6.68v-6.46h-4.33v6.46h-3.86v3.71h3.86v13.94q0,4.42,2,6.31c1.3,1.26,3.27,1.88,5.91,1.88h3.2v-3.76Zm-26.37-22.51A10.18,10.18,0,0,0,1015,173a8.82,8.82,0,0,0-3.5,4.85v-6.12h-4.29v25.84h4.29v-13.7c0-2.92.7-5.14,2.12-6.66a7.33,7.33,0,0,1,5.65-2.28,7.06,7.06,0,0,1,5.36,2.07,8.25,8.25,0,0,1,2,5.93v14.64h4.28v-15q0-5.46-2.77-8.35a9.66,9.66,0,0,0-7.3-2.9m-23.54,12.2H980.72a8.84,8.84,0,0,1,2.59-6.43,8.48,8.48,0,0,1,5.93-2.19,9,9,0,0,1,4.1.94,6.9,6.9,0,0,1,3,2.87,8.87,8.87,0,0,1,.94,4.81m4.33-.29a12.05,12.05,0,0,0-1.48-5.93,11,11,0,0,0-4.29-4.28,13,13,0,0,0-6.57-1.6,13.31,13.31,0,0,0-6.59,1.6,11.21,11.21,0,0,0-4.49,4.61,16.06,16.06,0,0,0,0,14.1,11.34,11.34,0,0,0,4.49,4.59,13.31,13.31,0,0,0,6.59,1.6,14,14,0,0,0,5.84-1.17,11,11,0,0,0,4.22-3.3,10.81,10.81,0,0,0,2.09-4.8h-4.56a6.52,6.52,0,0,1-2.57,4.21,8.42,8.42,0,0,1-5.2,1.58,8.26,8.26,0,0,1-5.82-2.21q-2.37-2.22-2.52-6.64h20.67a12.44,12.44,0,0,0,.19-2.36m-40-11.81a9.87,9.87,0,0,0-6.54,2,6.49,6.49,0,0,0-2.4,5.25,5.86,5.86,0,0,0,1.2,3.88,7,7,0,0,0,2.92,2.1,36.67,36.67,0,0,0,4.59,1.31,34.78,34.78,0,0,1,3.62,1,5.84,5.84,0,0,1,2.21,1.37,3.21,3.21,0,0,1,.9,2.4,3.84,3.84,0,0,1-1.25,3,5,5,0,0,1-3.46,1.13,7.41,7.41,0,0,1-4.78-1.46,5.43,5.43,0,0,1-2.05-3.82h-4.14a8.84,8.84,0,0,0,3.44,6.17,12.13,12.13,0,0,0,7.53,2.21,9.61,9.61,0,0,0,6.33-2,6.36,6.36,0,0,0,2.38-5.14,6.18,6.18,0,0,0-1.25-4.05,7.31,7.31,0,0,0-3-2.19,35.78,35.78,0,0,0-4.64-1.34,34.54,34.54,0,0,1-3.55-1,5.58,5.58,0,0,1-2.17-1.32,3.08,3.08,0,0,1-.87-2.28,3.7,3.7,0,0,1,1.3-3,5.35,5.35,0,0,1,3.6-1.11,6.19,6.19,0,0,1,4.35,1.48,6,6,0,0,1,1.91,3.79h4.09a9.59,9.59,0,0,0-3.22-6.14,10.44,10.44,0,0,0-7-2.28m-36,0a9.87,9.87,0,0,0-6.54,2,6.49,6.49,0,0,0-2.4,5.25,5.86,5.86,0,0,0,1.2,3.88,7,7,0,0,0,2.92,2.1,36.67,36.67,0,0,0,4.59,1.31,34.78,34.78,0,0,1,3.62,1,5.84,5.84,0,0,1,2.21,1.37,3.21,3.21,0,0,1,.9,2.4,3.84,3.84,0,0,1-1.25,3,5,5,0,0,1-3.46,1.13,7.41,7.41,0,0,1-4.78-1.46,5.43,5.43,0,0,1-2.05-3.82h-4.14a8.84,8.84,0,0,0,3.44,6.17,12.13,12.13,0,0,0,7.53,2.21,9.61,9.61,0,0,0,6.33-2,6.36,6.36,0,0,0,2.38-5.14,6.18,6.18,0,0,0-1.25-4.05,7.31,7.31,0,0,0-3-2.19,35.78,35.78,0,0,0-4.64-1.34,34.54,34.54,0,0,1-3.55-1,5.58,5.58,0,0,1-2.17-1.32,3.08,3.08,0,0,1-.87-2.28,3.7,3.7,0,0,1,1.3-3,5.35,5.35,0,0,1,3.6-1.11,6.19,6.19,0,0,1,4.35,1.48,6,6,0,0,1,1.91,3.79h4.09a9.59,9.59,0,0,0-3.22-6.14,10.44,10.44,0,0,0-7-2.28m-19.26,26.17h4.29V171.69h-4.29Zm-.75-33.42a2.45,2.45,0,0,0,.8,1.9,3.44,3.44,0,0,0,4.24,0,2.67,2.67,0,0,0,0-3.81,3.44,3.44,0,0,0-4.24,0,2.46,2.46,0,0,0-.8,1.91m-30.79,11.06a8.91,8.91,0,0,1,4.54,1.15,8,8,0,0,1,3.13,3.32,10.58,10.58,0,0,1,1.13,5,10.41,10.41,0,0,1-1.13,5,8.15,8.15,0,0,1-3.13,3.32,8.83,8.83,0,0,1-4.54,1.18,8.28,8.28,0,0,1-6.33-2.52,11.32,11.32,0,0,1,0-13.89,8.28,8.28,0,0,1,6.33-2.52m-1.22-3.81a11.64,11.64,0,0,0-6.12,1.6,11,11,0,0,0-4.22,4.61,17,17,0,0,0,0,14.1,11.11,11.11,0,0,0,4.22,4.59,11.64,11.64,0,0,0,6.12,1.6A10.68,10.68,0,0,0,880,196a9.84,9.84,0,0,0,3.64-5v6.59h4.29V171.69h-4.29v6.59a9.76,9.76,0,0,0-3.64-5,10.61,10.61,0,0,0-6.38-1.88m-18.46,22.41a4.43,4.43,0,0,1-3.18-.92c-.61-.61-.92-1.75-.92-3.42v-14h6.69v-3.71H851v-6.46h-4.33v6.46h-3.86v3.71h3.86v13.94q0,4.42,2,6.31c1.3,1.26,3.27,1.88,5.91,1.88h3.2v-3.76Zm-29.61-18.6a8.91,8.91,0,0,1,4.54,1.15,8,8,0,0,1,3.13,3.32,10.7,10.7,0,0,1,1.13,5,10.53,10.53,0,0,1-1.13,5,8.22,8.22,0,0,1-3.13,3.32,8.83,8.83,0,0,1-4.54,1.18,8.31,8.31,0,0,1-6.34-2.52,11.36,11.36,0,0,1,0-13.89,8.31,8.31,0,0,1,6.34-2.52m-1.23-3.81a11.69,11.69,0,0,0-6.12,1.6,11,11,0,0,0-4.21,4.61,17,17,0,0,0,0,14.1,11.09,11.09,0,0,0,4.21,4.59,11.69,11.69,0,0,0,6.12,1.6,10.66,10.66,0,0,0,6.38-1.88,9.86,9.86,0,0,0,3.65-5v6.59h4.28V171.69H834.3v6.59a9.78,9.78,0,0,0-3.65-5,10.59,10.59,0,0,0-6.38-1.88m-30.51,3.81a9,9,0,0,1,4.55,1.15,8.1,8.1,0,0,1,3.13,3.32,10.7,10.7,0,0,1,1.13,5,10.53,10.53,0,0,1-1.13,5,8.29,8.29,0,0,1-3.13,3.32,8.87,8.87,0,0,1-4.55,1.18,8.31,8.31,0,0,1-6.33-2.52,11.32,11.32,0,0,1,0-13.89,8.31,8.31,0,0,1,6.33-2.52m-1.22-3.81a11.69,11.69,0,0,0-6.12,1.6,11,11,0,0,0-4.22,4.61,17,17,0,0,0,0,14.1,11.11,11.11,0,0,0,4.22,4.59,11.69,11.69,0,0,0,6.12,1.6,10.66,10.66,0,0,0,6.38-1.88,9.86,9.86,0,0,0,3.65-5v6.59h4.28V162.69h-4.28v15.59a9.78,9.78,0,0,0-3.65-5,10.59,10.59,0,0,0-6.38-1.88m-30.08,22.41a4.43,4.43,0,0,1-3.18-.92c-.61-.61-.92-1.75-.92-3.42v-14h6.69v-3.71h-6.69v-6.46H754v6.46h-3.86v3.71H754v13.94q0,4.42,2,6.31c1.31,1.26,3.28,1.88,5.91,1.88h3.2v-3.76Zm-26.37-22.51a10.15,10.15,0,0,0-5.81,1.7,8.79,8.79,0,0,0-3.51,4.85v-6.12h-4.28v25.84h4.28v-13.7q0-4.38,2.12-6.66a7.33,7.33,0,0,1,5.65-2.28,7.08,7.08,0,0,1,5.37,2.07,8.29,8.29,0,0,1,2,5.93v14.64h4.29v-15q0-5.46-2.78-8.35a9.65,9.65,0,0,0-7.3-2.9m-23.54,12.2H696a8.77,8.77,0,0,1,2.59-6.43,8.46,8.46,0,0,1,5.93-2.19,9,9,0,0,1,4.09.94,6.9,6.9,0,0,1,3,2.87,8.78,8.78,0,0,1,.94,4.81m4.33-.29a12.05,12.05,0,0,0-1.48-5.93,11,11,0,0,0-4.28-4.28,13,13,0,0,0-6.57-1.6A13.26,13.26,0,0,0,698,173a11.17,11.17,0,0,0-4.5,4.61,16.15,16.15,0,0,0,0,14.1,11.3,11.3,0,0,0,4.5,4.59,13.26,13.26,0,0,0,6.59,1.6,14.07,14.07,0,0,0,5.84-1.17,11,11,0,0,0,4.21-3.3,10.81,10.81,0,0,0,2.09-4.8h-4.56a6.52,6.52,0,0,1-2.57,4.21,8.42,8.42,0,0,1-5.2,1.58,8.26,8.26,0,0,1-5.82-2.21q-2.37-2.22-2.51-6.64h20.66a12.44,12.44,0,0,0,.19-2.36m-40.44-11.91A10,10,0,0,0,670.7,173a9.34,9.34,0,0,0-3.63,4.87,9.12,9.12,0,0,0-3.46-4.92,9.86,9.86,0,0,0-5.72-1.67,9.76,9.76,0,0,0-5.58,1.63,8.38,8.38,0,0,0-3.37,4.68v-5.88h-4.28v25.84h4.28v-13.7c0-2.89.69-5.07,2-6.57a7.09,7.09,0,0,1,5.49-2.23,6.59,6.59,0,0,1,5.08,2,8.26,8.26,0,0,1,1.89,5.84v14.64h4.28v-13.7c0-2.89.68-5.07,2-6.57a7,7,0,0,1,5.44-2.23,6.58,6.58,0,0,1,5.1,2,8.34,8.34,0,0,1,1.86,5.84v14.64h4.29v-15q0-5.46-2.76-8.35a9.56,9.56,0,0,0-7.27-2.9m-61.39.43,10.87,25.42-5.37,12.66h4.85l15.35-38.08H636L628.23,192l-8.38-20.33Zm-16.91,3.48a9,9,0,0,1,4.55,1.15,8.1,8.1,0,0,1,3.13,3.32,10.7,10.7,0,0,1,1.13,5,10.53,10.53,0,0,1-1.13,5,8.29,8.29,0,0,1-3.13,3.32,8.87,8.87,0,0,1-4.55,1.18,8.31,8.31,0,0,1-6.33-2.52,11.32,11.32,0,0,1,0-13.89,8.31,8.31,0,0,1,6.33-2.52m-1.22-3.81a11.69,11.69,0,0,0-6.12,1.6,11,11,0,0,0-4.21,4.61,16.91,16.91,0,0,0,0,14.1,11.09,11.09,0,0,0,4.21,4.59,11.69,11.69,0,0,0,6.12,1.6A10.66,10.66,0,0,0,603.3,196a9.86,9.86,0,0,0,3.65-5v6.59h4.28V171.69H607v6.59a9.78,9.78,0,0,0-3.65-5,10.59,10.59,0,0,0-6.38-1.88m-29.29,3.81a8.34,8.34,0,0,1,6.38,2.52,11.32,11.32,0,0,1,0,13.89,8.34,8.34,0,0,1-6.38,2.52,8.89,8.89,0,0,1-4.52-1.18A8.2,8.2,0,0,1,560,189.6a10.53,10.53,0,0,1-1.13-5,10.7,10.7,0,0,1,1.13-5,8,8,0,0,1,3.15-3.32,9,9,0,0,1,4.52-1.15m1.23-3.81a10.53,10.53,0,0,0-6.38,1.9,9.72,9.72,0,0,0-3.6,5v-6.59h-4.29v38.08h4.29V190.94a9.76,9.76,0,0,0,3.6,5,10.53,10.53,0,0,0,6.38,1.9,11.69,11.69,0,0,0,6.12-1.6,11.09,11.09,0,0,0,4.21-4.59,17,17,0,0,0,0-14.1A11,11,0,0,0,575,173a11.69,11.69,0,0,0-6.12-1.6M533,183.46H516.5a8.84,8.84,0,0,1,2.59-6.43,8.48,8.48,0,0,1,5.94-2.19,9,9,0,0,1,4.09.94,6.9,6.9,0,0,1,3,2.87,8.87,8.87,0,0,1,.94,4.81m4.33-.29a12.05,12.05,0,0,0-1.48-5.93,11,11,0,0,0-4.29-4.28,12.94,12.94,0,0,0-6.56-1.6,13.33,13.33,0,0,0-6.6,1.6,11.21,11.21,0,0,0-4.49,4.61,16.06,16.06,0,0,0,0,14.1,11.34,11.34,0,0,0,4.49,4.59,13.33,13.33,0,0,0,6.6,1.6,14,14,0,0,0,5.83-1.17,10.93,10.93,0,0,0,4.22-3.3,10.81,10.81,0,0,0,2.09-4.8h-4.56A6.52,6.52,0,0,1,530,192.8a8.42,8.42,0,0,1-5.2,1.58,8.26,8.26,0,0,1-5.82-2.21q-2.37-2.22-2.52-6.64h20.67a12.44,12.44,0,0,0,.19-2.36m-40.44-11.91a10.13,10.13,0,0,0-5.81,1.7,8.74,8.74,0,0,0-3.51,4.85V162.69h-4.28v34.84h4.28v-13.7q0-4.38,2.12-6.66a7.33,7.33,0,0,1,5.65-2.28,7.08,7.08,0,0,1,5.37,2.07,8.29,8.29,0,0,1,2,5.93v14.64H507v-15q0-5.46-2.78-8.35a9.66,9.66,0,0,0-7.3-2.9m-40.86-6.92v3.48h9.36v29.71h4.29V167.82h9.37v-3.48Zm-19,33.19h5.18v-5H437Zm-9.32-29.19v29.19h4.52V164.34h-9.51v4Z" transform="translate(-53.03 -147.46)"/></g><g class="cls-4"><path class="cls-3" d="M1160.9,240h-16.53a8.84,8.84,0,0,1,2.59-6.42,8.48,8.48,0,0,1,5.94-2.19,9,9,0,0,1,4.09.94,6.85,6.85,0,0,1,3,2.87,8.86,8.86,0,0,1,.94,4.8m4.33-.28a12.05,12.05,0,0,0-1.48-5.93,11.05,11.05,0,0,0-4.29-4.29,13,13,0,0,0-6.56-1.6,13.43,13.43,0,0,0-6.6,1.6,11.3,11.3,0,0,0-4.49,4.62,16.06,16.06,0,0,0,0,14.1,11.34,11.34,0,0,0,4.49,4.59,13.33,13.33,0,0,0,6.6,1.6,13.83,13.83,0,0,0,5.83-1.18,10.74,10.74,0,0,0,6.31-8.09h-4.56a6.54,6.54,0,0,1-2.57,4.21,8.42,8.42,0,0,1-5.2,1.58,8.23,8.23,0,0,1-5.82-2.22q-2.37-2.21-2.52-6.64H1165a12.26,12.26,0,0,0,.19-2.35m-41.57-11.82a13.37,13.37,0,0,0-6.59,1.6,11.26,11.26,0,0,0-4.5,4.62,16.15,16.15,0,0,0,0,14.1,11.3,11.3,0,0,0,4.5,4.59,13.26,13.26,0,0,0,6.59,1.6,12.68,12.68,0,0,0,8.19-2.61,11.08,11.08,0,0,0,4-7.09h-4.52a6.72,6.72,0,0,1-2.56,4.38,9,9,0,0,1-9.33.56,7.54,7.54,0,0,1-3-3.17,13,13,0,0,1,0-10.6,7.6,7.6,0,0,1,3-3.17,9.06,9.06,0,0,1,9.33.54,6.6,6.6,0,0,1,2.56,4.35h4.52a11.14,11.14,0,0,0-4-7.06,12.58,12.58,0,0,0-8.19-2.64M1101.06,254h4.28V228.18h-4.28Zm-.75-33.43a2.44,2.44,0,0,0,.8,1.91,3.43,3.43,0,0,0,4.23,0,2.67,2.67,0,0,0,0-3.81,3.43,3.43,0,0,0-4.23,0,2.42,2.42,0,0,0-.8,1.9m-24.15,7.58h-4.62L1081.66,254h5.09l10.12-25.85h-4.61l-8,21.28Zm-15.73,5.23v-5.23h-4.28V254h4.28V240.42q0-4.28,2.31-6.14a9.14,9.14,0,0,1,5.93-1.86H1070v-4.66a11,11,0,0,0-5.84,1.48,9.55,9.55,0,0,0-3.72,4.17M1046.21,240h-16.52a8.8,8.8,0,0,1,2.59-6.42,8.46,8.46,0,0,1,5.93-2.19,9,9,0,0,1,4.09.94,6.85,6.85,0,0,1,3,2.87,8.77,8.77,0,0,1,.94,4.8m4.33-.28a12.05,12.05,0,0,0-1.48-5.93,11.1,11.1,0,0,0-4.28-4.29,13.1,13.1,0,0,0-6.57-1.6,13.37,13.37,0,0,0-6.59,1.6,11.26,11.26,0,0,0-4.5,4.62,16.15,16.15,0,0,0,0,14.1,11.3,11.3,0,0,0,4.5,4.59,13.26,13.26,0,0,0,6.59,1.6,13.91,13.91,0,0,0,5.84-1.18,10.85,10.85,0,0,0,4.21-3.29,11,11,0,0,0,2.1-4.8h-4.57a6.5,6.5,0,0,1-2.57,4.21,8.4,8.4,0,0,1-5.2,1.58,8.19,8.19,0,0,1-5.81-2.22q-2.39-2.21-2.52-6.64h20.67a13.22,13.22,0,0,0,.18-2.35m-40-11.82a9.93,9.93,0,0,0-6.55,2,6.52,6.52,0,0,0-2.4,5.25,5.87,5.87,0,0,0,1.2,3.89,7,7,0,0,0,2.92,2.09,34.82,34.82,0,0,0,4.59,1.32,33.42,33.42,0,0,1,3.62,1,5.83,5.83,0,0,1,2.22,1.37,3.25,3.25,0,0,1,.89,2.4,3.77,3.77,0,0,1-1.25,3,4.92,4.92,0,0,1-3.46,1.13,7.32,7.32,0,0,1-4.77-1.46,5.35,5.35,0,0,1-2-3.81h-4.15a8.88,8.88,0,0,0,3.44,6.17,12.17,12.17,0,0,0,7.53,2.21,9.6,9.6,0,0,0,6.34-2,6.37,6.37,0,0,0,2.37-5.13,6.18,6.18,0,0,0-1.24-4.05,7.4,7.4,0,0,0-3-2.19,35.57,35.57,0,0,0-4.63-1.34,36.85,36.85,0,0,1-3.56-1,5.62,5.62,0,0,1-2.16-1.32,3.06,3.06,0,0,1-.88-2.29,3.76,3.76,0,0,1,1.3-3,5.4,5.4,0,0,1,3.6-1.1,6.23,6.23,0,0,1,4.36,1.48,5.94,5.94,0,0,1,1.9,3.79h4.1a9.6,9.6,0,0,0-3.23-6.14,10.38,10.38,0,0,0-7-2.29m-27.59,22.41a4.43,4.43,0,0,1-3.18-.91,4.86,4.86,0,0,1-.92-3.42v-14h6.68v-3.72h-6.68v-6.45h-4.33v6.45h-3.86v3.72h3.86v13.94q0,4.42,2,6.31t5.91,1.88h3.2v-3.77Zm-26.37-22.5a10.12,10.12,0,0,0-5.81,1.69,8.82,8.82,0,0,0-3.51,4.85v-6.12H943V254h4.29v-13.7c0-2.92.7-5.14,2.12-6.66a7.34,7.34,0,0,1,5.65-2.29,7,7,0,0,1,5.36,2.08,8.23,8.23,0,0,1,2,5.93V254h4.29V239c0-3.64-.93-6.42-2.78-8.36a9.66,9.66,0,0,0-7.3-2.89M933,240H916.5a8.84,8.84,0,0,1,2.59-6.42,8.48,8.48,0,0,1,5.94-2.19,9,9,0,0,1,4.09.94,6.85,6.85,0,0,1,3,2.87A8.86,8.86,0,0,1,933,240m4.33-.28a12.05,12.05,0,0,0-1.48-5.93,11.05,11.05,0,0,0-4.29-4.29,13,13,0,0,0-6.56-1.6,13.43,13.43,0,0,0-6.6,1.6,11.3,11.3,0,0,0-4.49,4.62,16.06,16.06,0,0,0,0,14.1,11.34,11.34,0,0,0,4.49,4.59,13.33,13.33,0,0,0,6.6,1.6,13.83,13.83,0,0,0,5.83-1.18,10.74,10.74,0,0,0,6.31-8.09h-4.56A6.54,6.54,0,0,1,930,249.3a8.42,8.42,0,0,1-5.2,1.58,8.23,8.23,0,0,1-5.82-2.22q-2.37-2.21-2.52-6.64h20.67a12.26,12.26,0,0,0,.19-2.35m-40.44-11.91a10,10,0,0,0-5.75,1.72,9.33,9.33,0,0,0-3.62,4.87,9.09,9.09,0,0,0-3.46-4.92,9.88,9.88,0,0,0-5.72-1.67,9.78,9.78,0,0,0-5.58,1.62,8.43,8.43,0,0,0-3.37,4.69v-5.89h-4.28V254h4.28v-13.7q0-4.34,2.05-6.57a7.08,7.08,0,0,1,5.49-2.23,6.61,6.61,0,0,1,5.08,2,8.25,8.25,0,0,1,1.88,5.84V254h4.29v-13.7q0-4.34,2-6.57a7,7,0,0,1,5.43-2.23,6.59,6.59,0,0,1,5.11,2,8.34,8.34,0,0,1,1.86,5.84V254H907V239c0-3.64-.92-6.42-2.76-8.36a9.56,9.56,0,0,0-7.27-2.89m-61.4.42,10.88,25.43L841,266.27h4.85l15.35-38.09h-4.76l-7.76,20.34-8.38-20.34Zm-16.89,3.49a8.93,8.93,0,0,1,4.54,1.15,8,8,0,0,1,3.13,3.32,10.67,10.67,0,0,1,1.13,5,10.56,10.56,0,0,1-1.13,5,8.22,8.22,0,0,1-3.13,3.32,8.85,8.85,0,0,1-4.54,1.17,8.3,8.3,0,0,1-6.34-2.52,11.31,11.31,0,0,1,0-13.88,8.3,8.3,0,0,1,6.34-2.52m-1.23-3.82a11.79,11.79,0,0,0-6.12,1.6,11,11,0,0,0-4.21,4.62,17,17,0,0,0,0,14.1,11,11,0,0,0,4.21,4.59,11.69,11.69,0,0,0,6.12,1.6,10.66,10.66,0,0,0,6.38-1.88,9.92,9.92,0,0,0,3.65-5V254h4.28V228.18h-4.28v6.59a9.85,9.85,0,0,0-3.65-5,10.59,10.59,0,0,0-6.38-1.89m-29.28,3.82a8.37,8.37,0,0,1,6.38,2.52,11.35,11.35,0,0,1,0,13.88,8.37,8.37,0,0,1-6.38,2.52,8.83,8.83,0,0,1-4.52-1.17,8.22,8.22,0,0,1-3.16-3.32,10.56,10.56,0,0,1-1.13-5,10.67,10.67,0,0,1,1.13-5,8,8,0,0,1,3.16-3.32,8.91,8.91,0,0,1,4.52-1.15m1.22-3.82a10.54,10.54,0,0,0-6.38,1.91,9.69,9.69,0,0,0-3.6,5v-6.59h-4.29v38.09h4.29V247.44a9.69,9.69,0,0,0,3.6,5,10.54,10.54,0,0,0,6.38,1.91,11.69,11.69,0,0,0,6.12-1.6,11.09,11.09,0,0,0,4.21-4.59,17,17,0,0,0,0-14.1,11.05,11.05,0,0,0-4.21-4.62,11.79,11.79,0,0,0-6.12-1.6M753.51,240H737a8.76,8.76,0,0,1,2.59-6.42,8.46,8.46,0,0,1,5.93-2.19,9,9,0,0,1,4.09.94,6.85,6.85,0,0,1,3,2.87,8.77,8.77,0,0,1,.94,4.8m4.33-.28a12.05,12.05,0,0,0-1.48-5.93,11.1,11.1,0,0,0-4.28-4.29,13.1,13.1,0,0,0-6.57-1.6,13.37,13.37,0,0,0-6.59,1.6,11.26,11.26,0,0,0-4.5,4.62,16.15,16.15,0,0,0,0,14.1,11.3,11.3,0,0,0,4.5,4.59,13.26,13.26,0,0,0,6.59,1.6,13.91,13.91,0,0,0,5.84-1.18,10.76,10.76,0,0,0,6.3-8.09h-4.56a6.54,6.54,0,0,1-2.57,4.21,8.4,8.4,0,0,1-5.2,1.58,8.23,8.23,0,0,1-5.82-2.22q-2.37-2.21-2.51-6.64h20.66a12.26,12.26,0,0,0,.19-2.35M717.4,227.76a10.12,10.12,0,0,0-5.81,1.69,8.82,8.82,0,0,0-3.51,4.85V219.19h-4.29V254h4.29v-13.7c0-2.92.7-5.14,2.12-6.66a7.34,7.34,0,0,1,5.65-2.29,7,7,0,0,1,5.36,2.08,8.23,8.23,0,0,1,2,5.93V254h4.29V239c0-3.64-.93-6.42-2.78-8.36a9.66,9.66,0,0,0-7.3-2.89m-21.47,22.5a4.43,4.43,0,0,1-3.18-.91,4.86,4.86,0,0,1-.92-3.42v-14h6.69v-3.72h-6.69v-6.45H687.5v6.45h-3.86v3.72h3.86v13.94q0,4.42,2,6.31t5.91,1.88h3.2v-3.77Zm-39.88-18.64a9,9,0,0,1,4.26,1,7.78,7.78,0,0,1,3.16,3.17,10.73,10.73,0,0,1,1.2,5.3,10.61,10.61,0,0,1-1.2,5.25,7.74,7.74,0,0,1-3.16,3.18,9.32,9.32,0,0,1-8.52,0,7.78,7.78,0,0,1-3.15-3.18,10.61,10.61,0,0,1-1.2-5.25,10.73,10.73,0,0,1,1.2-5.3,7.82,7.82,0,0,1,3.15-3.17,9,9,0,0,1,4.26-1m0-3.77a13.78,13.78,0,0,0-6.66,1.6,11.65,11.65,0,0,0-4.64,4.62,15.55,15.55,0,0,0,0,14.1,11.7,11.7,0,0,0,4.64,4.59,14.66,14.66,0,0,0,13.32,0,11.53,11.53,0,0,0,4.62-4.59,15.72,15.72,0,0,0,0-14.1,11.48,11.48,0,0,0-4.62-4.62,13.78,13.78,0,0,0-6.66-1.6m-19.58,22.41a4.43,4.43,0,0,1-3.18-.91,4.86,4.86,0,0,1-.92-3.42v-14h6.69v-3.72h-6.69v-6.45H628v6.45h-3.86v3.72H628v13.94q0,4.42,2,6.31T635.9,254h3.2v-3.77Zm-38-22.5a10,10,0,0,0-5.75,1.72,9.33,9.33,0,0,0-3.62,4.87,9.14,9.14,0,0,0-3.46-4.92,9.88,9.88,0,0,0-5.72-1.67,9.78,9.78,0,0,0-5.58,1.62,8.39,8.39,0,0,0-3.37,4.69v-5.89H566.7V254H571v-13.7q0-4.34,2-6.57a7.06,7.06,0,0,1,5.48-2.23,6.63,6.63,0,0,1,5.09,2,8.3,8.3,0,0,1,1.88,5.84V254h4.29v-13.7q0-4.34,2-6.57a7,7,0,0,1,5.44-2.23,6.59,6.59,0,0,1,5.11,2,8.34,8.34,0,0,1,1.86,5.84V254h4.28V239c0-3.64-.91-6.42-2.75-8.36a9.57,9.57,0,0,0-7.27-2.89m-45.58,5.65v-5.23h-4.28V254h4.28V240.42q0-4.28,2.31-6.14a9.14,9.14,0,0,1,5.93-1.86h1.32v-4.66a11,11,0,0,0-5.84,1.48,9.55,9.55,0,0,0-3.72,4.17m-22.83-1.79a9,9,0,0,1,4.26,1,7.82,7.82,0,0,1,3.15,3.17,10.73,10.73,0,0,1,1.2,5.3,10.61,10.61,0,0,1-1.2,5.25,7.78,7.78,0,0,1-3.15,3.18,9.32,9.32,0,0,1-8.52,0,7.74,7.74,0,0,1-3.16-3.18,10.61,10.61,0,0,1-1.2-5.25,10.73,10.73,0,0,1,1.2-5.3,7.78,7.78,0,0,1,3.16-3.17,9,9,0,0,1,4.26-1m0-3.77a13.85,13.85,0,0,0-6.67,1.6,11.63,11.63,0,0,0-4.63,4.62,15.47,15.47,0,0,0,0,14.1,11.68,11.68,0,0,0,4.63,4.59,14.68,14.68,0,0,0,13.33,0,11.5,11.5,0,0,0,4.61-4.59,15.72,15.72,0,0,0,0-14.1,11.46,11.46,0,0,0-4.61-4.62,13.78,13.78,0,0,0-6.66-1.6m-16.39-5.79V218.3q-10.39-.44-10.4,8.85v1h-3.72V232h3.72V254h4.28V232h6.12v-3.77h-6.12v-.7c0-2,.45-3.42,1.34-4.24s2.49-1.21,4.78-1.18m-43,9.61a8.91,8.91,0,0,1,4.54,1.15,8,8,0,0,1,3.13,3.32,10.67,10.67,0,0,1,1.13,5,10.56,10.56,0,0,1-1.13,5,8.22,8.22,0,0,1-3.13,3.32,8.82,8.82,0,0,1-4.54,1.17,8.31,8.31,0,0,1-6.34-2.52,11.35,11.35,0,0,1,0-13.88,8.31,8.31,0,0,1,6.34-2.52m-1.23-3.82a11.79,11.79,0,0,0-6.12,1.6,11.05,11.05,0,0,0-4.21,4.62,17,17,0,0,0,0,14.1,11.09,11.09,0,0,0,4.21,4.59,11.69,11.69,0,0,0,6.12,1.6,10.66,10.66,0,0,0,6.38-1.88,9.86,9.86,0,0,0,3.65-5V254h4.29V228.18H479.5v6.59a9.8,9.8,0,0,0-3.65-5,10.59,10.59,0,0,0-6.38-1.89" transform="translate(-53.03 -147.46)"/><path class="cls-3" d="M1748.07,815.67a9,9,0,0,1,4.26,1,7.82,7.82,0,0,1,3.15,3.17,10.63,10.63,0,0,1,1.21,5.3,10.51,10.51,0,0,1-1.21,5.25,7.78,7.78,0,0,1-3.15,3.18,9.32,9.32,0,0,1-8.52,0,7.8,7.8,0,0,1-3.16-3.18,10.61,10.61,0,0,1-1.2-5.25,10.73,10.73,0,0,1,1.2-5.3,7.84,7.84,0,0,1,3.16-3.17,9,9,0,0,1,4.26-1m0-3.77a13.78,13.78,0,0,0-6.66,1.6,11.65,11.65,0,0,0-4.64,4.62,15.55,15.55,0,0,0,0,14.1,11.7,11.7,0,0,0,4.64,4.59,14.66,14.66,0,0,0,13.32,0,11.59,11.59,0,0,0,4.62-4.59,15.72,15.72,0,0,0,0-14.1,11.54,11.54,0,0,0-4.62-4.62,13.78,13.78,0,0,0-6.66-1.6m-19.59,22.41a4.42,4.42,0,0,1-3.17-.91c-.62-.62-.92-1.75-.92-3.42V816h6.68v-3.72h-6.68v-6.45h-4.33v6.45h-3.86V816h3.86v13.94q0,4.43,2,6.31t5.91,1.88h3.2v-3.77Zm-41.24-18.59a8.88,8.88,0,0,1,4.54,1.15,8,8,0,0,1,3.13,3.32,10.55,10.55,0,0,1,1.13,5,10.44,10.44,0,0,1-1.13,5,8.15,8.15,0,0,1-3.13,3.32,8.8,8.8,0,0,1-4.54,1.17,8.31,8.31,0,0,1-6.33-2.51,11.32,11.32,0,0,1,0-13.89,8.28,8.28,0,0,1,6.33-2.52M1686,811.9a11.74,11.74,0,0,0-6.12,1.6,11.07,11.07,0,0,0-4.22,4.62,17,17,0,0,0,0,14.1,11.11,11.11,0,0,0,4.22,4.59,11.64,11.64,0,0,0,6.12,1.6,10.68,10.68,0,0,0,6.38-1.88,9.84,9.84,0,0,0,3.64-5v6.59h4.29V803.24H1696v15.59a9.76,9.76,0,0,0-3.64-5,10.61,10.61,0,0,0-6.38-1.89M1665.49,824H1649a8.84,8.84,0,0,1,2.59-6.42,8.48,8.48,0,0,1,5.93-2.19,9,9,0,0,1,4.1.94,6.85,6.85,0,0,1,3,2.87,8.86,8.86,0,0,1,.94,4.8m4.33-.28a12.05,12.05,0,0,0-1.48-5.93,11.05,11.05,0,0,0-4.29-4.29,13,13,0,0,0-6.57-1.6,13.42,13.42,0,0,0-6.59,1.6,11.3,11.3,0,0,0-4.49,4.62,16.06,16.06,0,0,0,0,14.1,11.34,11.34,0,0,0,4.49,4.59,13.31,13.31,0,0,0,6.59,1.6,13.85,13.85,0,0,0,5.84-1.18,10.74,10.74,0,0,0,6.31-8.09h-4.57a6.49,6.49,0,0,1-2.56,4.21,8.42,8.42,0,0,1-5.2,1.58,8.23,8.23,0,0,1-5.82-2.22q-2.37-2.21-2.52-6.63h20.67a12.44,12.44,0,0,0,.19-2.36m-31.64,10.59a4.44,4.44,0,0,1-3.18-.91c-.61-.62-.91-1.75-.91-3.42V816h6.68v-3.72h-6.68v-6.45h-4.34v6.45h-3.86V816h3.86v13.94c0,3,.66,5.05,2,6.31s3.27,1.88,5.91,1.88h3.2v-3.77Zm-27.49-22.41a13.37,13.37,0,0,0-6.59,1.6,11.32,11.32,0,0,0-4.5,4.62,16.15,16.15,0,0,0,0,14.1,11.37,11.37,0,0,0,4.5,4.59,13.26,13.26,0,0,0,6.59,1.6,12.64,12.64,0,0,0,8.19-2.61,11.08,11.08,0,0,0,4-7.09h-4.52a6.72,6.72,0,0,1-2.56,4.38,9,9,0,0,1-9.32.57,7.5,7.5,0,0,1-3-3.18,13,13,0,0,1,0-10.6,7.54,7.54,0,0,1,3-3.17,8.32,8.32,0,0,1,4.12-1,8.42,8.42,0,0,1,5.2,1.58,6.6,6.6,0,0,1,2.56,4.35h4.52a11.14,11.14,0,0,0-4-7.06,12.54,12.54,0,0,0-8.19-2.64M1589.31,824h-16.52a8.8,8.8,0,0,1,2.59-6.42,8.48,8.48,0,0,1,5.93-2.19,9,9,0,0,1,4.1.94,6.88,6.88,0,0,1,3,2.87,8.68,8.68,0,0,1,.94,4.8m4.34-.28a12.06,12.06,0,0,0-1.49-5.93,11,11,0,0,0-4.28-4.29,13.1,13.1,0,0,0-6.57-1.6,13.37,13.37,0,0,0-6.59,1.6,11.38,11.38,0,0,0-4.5,4.62,16.15,16.15,0,0,0,0,14.1,11.43,11.43,0,0,0,4.5,4.59,13.26,13.26,0,0,0,6.59,1.6,13.88,13.88,0,0,0,5.84-1.18,10.8,10.8,0,0,0,6.31-8.09h-4.57a6.53,6.53,0,0,1-2.56,4.21,8.45,8.45,0,0,1-5.21,1.58,8.19,8.19,0,0,1-5.81-2.22q-2.38-2.21-2.52-6.63h20.67a13.33,13.33,0,0,0,.19-2.36m-37.57-6.26v-5.23h-4.29v25.85h4.29V824.47c0-2.85.76-4.9,2.3-6.14a9.16,9.16,0,0,1,5.93-1.86h1.32v-4.66a11.07,11.07,0,0,0-5.84,1.48,9.46,9.46,0,0,0-3.71,4.17m-15.45,20.62h4.29V812.23h-4.29Zm-.75-33.43a2.48,2.48,0,0,0,.8,1.91,3.44,3.44,0,0,0,4.24,0,2.67,2.67,0,0,0,0-3.81,3.44,3.44,0,0,0-4.24,0,2.45,2.45,0,0,0-.8,1.9m-19.16,11.07a8.91,8.91,0,0,1,4.54,1.15,8,8,0,0,1,3.13,3.32,10.67,10.67,0,0,1,1.13,5,10.56,10.56,0,0,1-1.13,5,8.22,8.22,0,0,1-3.13,3.32,8.82,8.82,0,0,1-4.54,1.17,8.34,8.34,0,0,1-6.34-2.51,11.36,11.36,0,0,1,0-13.89,8.31,8.31,0,0,1,6.34-2.52m-1.23-3.82a11.79,11.79,0,0,0-6.12,1.6,11.05,11.05,0,0,0-4.21,4.62,17,17,0,0,0,0,14.1,11.09,11.09,0,0,0,4.21,4.59,11.69,11.69,0,0,0,6.12,1.6,10.66,10.66,0,0,0,6.38-1.88,9.86,9.86,0,0,0,3.65-5v6.59h4.29V803.24h-4.29v15.59a9.78,9.78,0,0,0-3.65-5,10.59,10.59,0,0,0-6.38-1.89M1499,824h-16.53a8.84,8.84,0,0,1,2.59-6.42,8.48,8.48,0,0,1,5.93-2.19,9,9,0,0,1,4.1.94,6.88,6.88,0,0,1,3,2.87,8.76,8.76,0,0,1,1,4.8m4.33-.28a12.06,12.06,0,0,0-1.49-5.93,11,11,0,0,0-4.28-4.29,13.1,13.1,0,0,0-6.57-1.6,13.39,13.39,0,0,0-6.59,1.6,11.38,11.38,0,0,0-4.5,4.62,16.15,16.15,0,0,0,0,14.1,11.43,11.43,0,0,0,4.5,4.59,13.29,13.29,0,0,0,6.59,1.6,13.88,13.88,0,0,0,5.84-1.18,10.8,10.8,0,0,0,6.31-8.09h-4.57a6.53,6.53,0,0,1-2.56,4.21,8.43,8.43,0,0,1-5.21,1.58,8.19,8.19,0,0,1-5.81-2.22q-2.39-2.21-2.52-6.63h20.67a13.33,13.33,0,0,0,.19-2.36m-37.57-6.26v-5.23h-4.29v25.85h4.29V824.47q0-4.28,2.3-6.14a9.17,9.17,0,0,1,5.94-1.86h1.31v-4.66a11,11,0,0,0-5.83,1.48,9.43,9.43,0,0,0-3.72,4.17m-32.16-5.56a9.87,9.87,0,0,0-6.54,2,6.47,6.47,0,0,0-2.41,5.24,5.87,5.87,0,0,0,1.2,3.89,7.1,7.1,0,0,0,2.92,2.09,35.76,35.76,0,0,0,4.59,1.32,34.38,34.38,0,0,1,3.63,1,5.72,5.72,0,0,1,2.21,1.37,3.21,3.21,0,0,1,.9,2.4,3.81,3.81,0,0,1-1.25,3,4.94,4.94,0,0,1-3.46,1.13,7.35,7.35,0,0,1-4.78-1.46,5.39,5.39,0,0,1-2-3.81h-4.14a8.8,8.8,0,0,0,3.44,6.17,12.13,12.13,0,0,0,7.53,2.21,9.56,9.56,0,0,0,6.33-2,6.34,6.34,0,0,0,2.38-5.13,6.18,6.18,0,0,0-1.25-4,7.37,7.37,0,0,0-3-2.19,36.26,36.26,0,0,0-4.64-1.34,36.52,36.52,0,0,1-3.55-1,5.58,5.58,0,0,1-2.17-1.32,3.09,3.09,0,0,1-.87-2.29,3.71,3.71,0,0,1,1.29-3,5.39,5.39,0,0,1,3.61-1.11,6.19,6.19,0,0,1,4.35,1.48,6,6,0,0,1,1.91,3.79h4.09a9.59,9.59,0,0,0-3.22-6.14,10.46,10.46,0,0,0-7-2.29m-19.26,26.18h4.29V812.23h-4.29Zm-.75-33.43a2.48,2.48,0,0,0,.8,1.91,3.44,3.44,0,0,0,4.24,0,2.67,2.67,0,0,0,0-3.81,3.44,3.44,0,0,0-4.24,0,2.45,2.45,0,0,0-.8,1.9m-24.67,12.81v-5.23h-4.29v25.85h4.29V824.47q0-4.28,2.31-6.14a9.13,9.13,0,0,1,5.93-1.86h1.32v-4.66a11,11,0,0,0-5.84,1.48,9.55,9.55,0,0,0-3.72,4.17M1374.67,824h-16.52a8.8,8.8,0,0,1,2.59-6.42,8.48,8.48,0,0,1,5.93-2.19,9,9,0,0,1,4.1.94,6.88,6.88,0,0,1,3,2.87,8.77,8.77,0,0,1,.94,4.8m4.34-.28a12.06,12.06,0,0,0-1.49-5.93,11.1,11.1,0,0,0-4.28-4.29,13.1,13.1,0,0,0-6.57-1.6,13.37,13.37,0,0,0-6.59,1.6,11.32,11.32,0,0,0-4.5,4.62,16.15,16.15,0,0,0,0,14.1,11.37,11.37,0,0,0,4.5,4.59,13.26,13.26,0,0,0,6.59,1.6,13.88,13.88,0,0,0,5.84-1.18,10.8,10.8,0,0,0,6.31-8.09h-4.57a6.5,6.5,0,0,1-2.57,4.21,8.42,8.42,0,0,1-5.2,1.58,8.19,8.19,0,0,1-5.81-2.22q-2.39-2.21-2.52-6.63h20.67a13.33,13.33,0,0,0,.19-2.36m-40-11.82a9.88,9.88,0,0,0-6.55,2,6.49,6.49,0,0,0-2.4,5.24,5.87,5.87,0,0,0,1.2,3.89,7,7,0,0,0,2.92,2.09,35.76,35.76,0,0,0,4.59,1.32,34.38,34.38,0,0,1,3.63,1,5.87,5.87,0,0,1,2.21,1.37,3.25,3.25,0,0,1,.89,2.4,3.83,3.83,0,0,1-1.24,3,5,5,0,0,1-3.46,1.13,7.33,7.33,0,0,1-4.78-1.46,5.39,5.39,0,0,1-2-3.81h-4.14a8.79,8.79,0,0,0,3.43,6.17,12.18,12.18,0,0,0,7.54,2.21,9.59,9.59,0,0,0,6.33-2,6.37,6.37,0,0,0,2.38-5.13,6.18,6.18,0,0,0-1.25-4,7.37,7.37,0,0,0-3-2.19,36.26,36.26,0,0,0-4.64-1.34c-1.51-.34-2.69-.67-3.56-1a5.62,5.62,0,0,1-2.16-1.32,3.05,3.05,0,0,1-.87-2.29,3.68,3.68,0,0,1,1.29-3,5.35,5.35,0,0,1,3.6-1.11,6.23,6.23,0,0,1,4.36,1.48,5.9,5.9,0,0,1,1.9,3.79h4.1a9.64,9.64,0,0,0-3.22-6.14,10.46,10.46,0,0,0-7-2.29m-39.46-7V824.8q0,6.78,3.37,10.2a13.56,13.56,0,0,0,18,0q3.38-3.42,3.37-10.2V804.89H1320V824.8q0,4.86-2.12,7.21a7.53,7.53,0,0,1-5.89,2.35,7.75,7.75,0,0,1-6-2.33q-2.16-2.32-2.16-7.23V804.89Zm-21.47,33.19h5.18v-5h-5.18Zm-26.13-3.29v3.1h22.84v-3.53h-16.86a46.92,46.92,0,0,0,7.51-5.62,34.72,34.72,0,0,0,6.08-7.21,14.45,14.45,0,0,0,2.42-7.65,9.08,9.08,0,0,0-2.73-7.06,10.55,10.55,0,0,0-7.39-2.5,11.1,11.1,0,0,0-8,3q-3.11,3-3.43,8.55h4.23a9.8,9.8,0,0,1,1.89-5.77,6,6,0,0,1,5-2.09q3.19,0,4.64,1.71a6.9,6.9,0,0,1,1.43,4.55q0,4.56-4.8,9.86a69.45,69.45,0,0,1-12.81,10.67" transform="translate(-53.03 -147.46)"/></g><g class="cls-4"><path class="cls-3" d="M1691.29,872.17a8.94,8.94,0,0,1,4.26,1,7.74,7.74,0,0,1,3.16,3.18,10.73,10.73,0,0,1,1.2,5.3,10.61,10.61,0,0,1-1.2,5.25,7.74,7.74,0,0,1-3.16,3.18,9.32,9.32,0,0,1-8.52,0,7.78,7.78,0,0,1-3.15-3.18,10.61,10.61,0,0,1-1.2-5.25,10.73,10.73,0,0,1,1.2-5.3,7.78,7.78,0,0,1,3.15-3.18,8.94,8.94,0,0,1,4.26-1m0-3.77a13.78,13.78,0,0,0-6.66,1.6,11.65,11.65,0,0,0-4.64,4.62,15.55,15.55,0,0,0,0,14.1,11.7,11.7,0,0,0,4.64,4.59,14.66,14.66,0,0,0,13.32,0,11.53,11.53,0,0,0,4.62-4.59,15.72,15.72,0,0,0,0-14.1A11.48,11.48,0,0,0,1698,870a13.78,13.78,0,0,0-6.66-1.6m-19.58,22.41a4.38,4.38,0,0,1-3.18-.92,4.83,4.83,0,0,1-.92-3.41v-14h6.69v-3.72h-6.69v-6.45h-4.33v6.45h-3.86v3.72h3.86v13.94q0,4.43,2,6.31c1.31,1.25,3.27,1.88,5.91,1.88h3.2v-3.77Zm-31.27-10.31h-16.52a8.78,8.78,0,0,1,2.59-6.42,8.48,8.48,0,0,1,5.93-2.19,9,9,0,0,1,4.1.94,6.88,6.88,0,0,1,3,2.87,8.77,8.77,0,0,1,.94,4.8m4.34-.28a12,12,0,0,0-1.49-5.93A11,11,0,0,0,1639,870a13.1,13.1,0,0,0-6.57-1.6,13.37,13.37,0,0,0-6.59,1.6,11.32,11.32,0,0,0-4.5,4.62,16.15,16.15,0,0,0,0,14.1,11.37,11.37,0,0,0,4.5,4.59,13.26,13.26,0,0,0,6.59,1.6,13.88,13.88,0,0,0,5.84-1.18,10.79,10.79,0,0,0,6.31-8.1H1640a6.5,6.5,0,0,1-2.57,4.22,8.39,8.39,0,0,1-5.2,1.57,8.18,8.18,0,0,1-5.81-2.21c-1.59-1.47-2.43-3.69-2.52-6.64h20.67a13.21,13.21,0,0,0,.19-2.35m-43.7-8a9,9,0,0,1,4.55,1.15,8,8,0,0,1,3.13,3.32,10.67,10.67,0,0,1,1.13,5,10.56,10.56,0,0,1-1.13,5,8.28,8.28,0,0,1-3.13,3.32,8.86,8.86,0,0,1-4.55,1.17,8.31,8.31,0,0,1-6.33-2.52,11.32,11.32,0,0,1,0-13.89,8.34,8.34,0,0,1,6.33-2.51m-1.22-3.82a11.79,11.79,0,0,0-6.12,1.6,11.05,11.05,0,0,0-4.21,4.62,17,17,0,0,0,0,14.1,11.09,11.09,0,0,0,4.21,4.59,11.69,11.69,0,0,0,6.12,1.6,10.66,10.66,0,0,0,6.38-1.88,9.86,9.86,0,0,0,3.65-5v7a8.31,8.31,0,0,1-2.29,6.24,7.89,7.89,0,0,1-5.76,2.24,9.09,9.09,0,0,1-5.39-1.49,7.27,7.27,0,0,1-2.85-4.07h-4.24a11.13,11.13,0,0,0,4.19,6.81,13.71,13.71,0,0,0,8.52,2.51,12.59,12.59,0,0,0,6.36-1.55,10.9,10.9,0,0,0,4.24-4.33,13.16,13.16,0,0,0,1.5-6.36V868.73h-4.28v6.59a9.8,9.8,0,0,0-3.65-5,10.59,10.59,0,0,0-6.38-1.89m-30.51,3.82a8.88,8.88,0,0,1,4.54,1.15,8,8,0,0,1,3.14,3.32,10.67,10.67,0,0,1,1.13,5,10.56,10.56,0,0,1-1.13,5,8.31,8.31,0,0,1-3.14,3.32,8.8,8.8,0,0,1-4.54,1.17,8.28,8.28,0,0,1-6.33-2.52,11.32,11.32,0,0,1,0-13.89,8.31,8.31,0,0,1,6.33-2.51m-1.22-3.82A11.79,11.79,0,0,0,1562,870a11.07,11.07,0,0,0-4.22,4.62,17,17,0,0,0,0,14.1,11.11,11.11,0,0,0,4.22,4.59,11.69,11.69,0,0,0,6.12,1.6,10.68,10.68,0,0,0,6.38-1.88,9.92,9.92,0,0,0,3.65-5v6.59h4.28V868.73h-4.28v6.59a9.85,9.85,0,0,0-3.65-5,10.61,10.61,0,0,0-6.38-1.89m-29.29,3.82a8.37,8.37,0,0,1,6.38,2.51,11.32,11.32,0,0,1,0,13.89,8.34,8.34,0,0,1-6.38,2.52,8.88,8.88,0,0,1-4.52-1.17,8.2,8.2,0,0,1-3.15-3.32,10.44,10.44,0,0,1-1.13-5,10.55,10.55,0,0,1,1.13-5,7.9,7.9,0,0,1,3.15-3.32,9,9,0,0,1,4.52-1.15m1.23-3.82a10.54,10.54,0,0,0-6.38,1.91,9.64,9.64,0,0,0-3.6,5v-6.59h-4.29v38.09h4.29V888a9.64,9.64,0,0,0,3.6,5,10.54,10.54,0,0,0,6.38,1.91,11.69,11.69,0,0,0,6.12-1.6,11.09,11.09,0,0,0,4.21-4.59,17,17,0,0,0,0-14.1,11.05,11.05,0,0,0-4.21-4.62,11.79,11.79,0,0,0-6.12-1.6m-33.76,22.41a4.38,4.38,0,0,1-3.18-.92,4.83,4.83,0,0,1-.92-3.41v-14h6.69v-3.72h-6.69v-6.45h-4.33v6.45H1494v3.72h3.86v13.94q0,4.43,2,6.31t5.9,1.88H1509v-3.77ZM1480,868.31a10.18,10.18,0,0,0-5.82,1.69,8.76,8.76,0,0,0-3.5,4.85v-6.12h-4.29v25.85h4.29v-13.7q0-4.38,2.11-6.66a7.33,7.33,0,0,1,5.65-2.29,7.08,7.08,0,0,1,5.37,2.07,8.28,8.28,0,0,1,2,5.94v14.64H1490v-15q0-5.46-2.77-8.36a9.67,9.67,0,0,0-7.3-2.89m-23.54,12.19h-16.53a8.82,8.82,0,0,1,2.59-6.42,8.48,8.48,0,0,1,5.93-2.19,9,9,0,0,1,4.1.94,7,7,0,0,1,3,2.87,8.86,8.86,0,0,1,.94,4.8m4.33-.28a12.13,12.13,0,0,0-1.48-5.93A11.05,11.05,0,0,0,1455,870a13.1,13.1,0,0,0-6.57-1.6,13.39,13.39,0,0,0-6.59,1.6,11.3,11.3,0,0,0-4.49,4.62,16.06,16.06,0,0,0,0,14.1,11.34,11.34,0,0,0,4.49,4.59,13.29,13.29,0,0,0,6.59,1.6,13.88,13.88,0,0,0,5.84-1.18,10.79,10.79,0,0,0,6.31-8.1H1456a6.53,6.53,0,0,1-2.56,4.22,8.42,8.42,0,0,1-5.21,1.57,8.2,8.2,0,0,1-5.81-2.21c-1.58-1.47-2.42-3.69-2.52-6.64h20.67a12.33,12.33,0,0,0,.19-2.35m-40.44-11.91a10,10,0,0,0-5.75,1.72,9.33,9.33,0,0,0-3.62,4.87,9.09,9.09,0,0,0-3.46-4.92,10.53,10.53,0,0,0-11.3-.05,8.4,8.4,0,0,0-3.37,4.69v-5.89h-4.28v25.85h4.28v-13.7q0-4.33,2-6.57a7.06,7.06,0,0,1,5.48-2.24,6.62,6.62,0,0,1,5.09,2,8.28,8.28,0,0,1,1.88,5.84v14.64h4.29v-13.7q0-4.33,2-6.57a7,7,0,0,1,5.44-2.24,6.59,6.59,0,0,1,5.11,2,8.32,8.32,0,0,1,1.86,5.84v14.64h4.28v-15c0-3.64-.91-6.43-2.75-8.36a9.57,9.57,0,0,0-7.27-2.89m-61.4.42,10.88,25.43-5.37,12.66h4.85l15.35-38.09h-4.76l-7.77,20.34-8.38-20.34Zm-16.9,3.49a8.91,8.91,0,0,1,4.54,1.15,7.91,7.91,0,0,1,3.13,3.32,10.55,10.55,0,0,1,1.13,5,10.44,10.44,0,0,1-1.13,5,8.22,8.22,0,0,1-3.13,3.32,8.82,8.82,0,0,1-4.54,1.17,8.28,8.28,0,0,1-6.33-2.52,11.32,11.32,0,0,1,0-13.89,8.31,8.31,0,0,1,6.33-2.51m-1.23-3.82a11.79,11.79,0,0,0-6.12,1.6,11.12,11.12,0,0,0-4.21,4.62,17,17,0,0,0,0,14.1,11.16,11.16,0,0,0,4.21,4.59,11.69,11.69,0,0,0,6.12,1.6,10.63,10.63,0,0,0,6.38-1.88,9.81,9.81,0,0,0,3.65-5v6.59h4.29V868.73h-4.29v6.59a9.74,9.74,0,0,0-3.65-5,10.57,10.57,0,0,0-6.38-1.89m-29.28,3.82a8.39,8.39,0,0,1,6.38,2.51,11.32,11.32,0,0,1,0,13.89,8.36,8.36,0,0,1-6.38,2.52A8.88,8.88,0,0,1,1307,890a8.2,8.2,0,0,1-3.15-3.32,10.44,10.44,0,0,1-1.13-5,10.55,10.55,0,0,1,1.13-5,7.9,7.9,0,0,1,3.15-3.32,9,9,0,0,1,4.52-1.15m1.22-3.82a10.56,10.56,0,0,0-6.38,1.91,9.69,9.69,0,0,0-3.6,5v-6.59h-4.28v38.09h4.28V888a9.69,9.69,0,0,0,3.6,5,10.56,10.56,0,0,0,6.38,1.91,11.64,11.64,0,0,0,6.12-1.6,11.11,11.11,0,0,0,4.22-4.59,17,17,0,0,0,0-14.1,11.07,11.07,0,0,0-4.22-4.62,11.74,11.74,0,0,0-6.12-1.6" transform="translate(-53.03 -147.46)"/></g><g class="cls-4"><path class="cls-3" d="M1833,947.31a4.41,4.41,0,0,1-3.17-.92c-.62-.61-.92-1.75-.92-3.41V929h6.68v-3.72h-6.68v-6.45h-4.33v6.45h-3.86V929h3.86v13.93q0,4.44,2,6.31t5.91,1.89h3.2v-3.77Zm-26.36-22.5a10.18,10.18,0,0,0-5.82,1.69,8.81,8.81,0,0,0-3.5,4.85v-6.12H1793v25.85h4.29v-13.7q0-4.38,2.11-6.67a7.36,7.36,0,0,1,5.65-2.28,7.08,7.08,0,0,1,5.37,2.07,8.25,8.25,0,0,1,2,5.93v14.65h4.28v-15q0-5.46-2.77-8.36a9.67,9.67,0,0,0-7.3-2.89M1783.1,937h-16.53a8.84,8.84,0,0,1,2.59-6.43,8.48,8.48,0,0,1,5.93-2.19,9,9,0,0,1,4.1,1,6.85,6.85,0,0,1,3,2.87,8.82,8.82,0,0,1,.94,4.8m4.33-.28a12.17,12.17,0,0,0-1.48-5.94,11.1,11.1,0,0,0-4.29-4.28,13,13,0,0,0-6.57-1.6,13.29,13.29,0,0,0-6.59,1.6,11.33,11.33,0,0,0-4.49,4.61,14.62,14.62,0,0,0-1.63,7.07,14.47,14.47,0,0,0,1.63,7,11.34,11.34,0,0,0,4.49,4.59,13.39,13.39,0,0,0,6.59,1.6,14,14,0,0,0,5.84-1.18,10.78,10.78,0,0,0,6.31-8.1h-4.57a6.55,6.55,0,0,1-2.56,4.22,8.41,8.41,0,0,1-5.2,1.57,8.25,8.25,0,0,1-5.82-2.21q-2.37-2.22-2.52-6.64h20.67a12.33,12.33,0,0,0,.19-2.35M1747,924.81a10.07,10.07,0,0,0-5.75,1.71,9.36,9.36,0,0,0-3.62,4.88,9.09,9.09,0,0,0-3.46-4.92,10.53,10.53,0,0,0-11.3-.05,8.38,8.38,0,0,0-3.37,4.68v-5.88h-4.28v25.85h4.28v-13.7q0-4.33,2-6.57a7.06,7.06,0,0,1,5.48-2.24,6.62,6.62,0,0,1,5.09,2,8.27,8.27,0,0,1,1.88,5.83v14.65h4.29v-13.7q0-4.33,2-6.57a7,7,0,0,1,5.44-2.24,6.59,6.59,0,0,1,5.11,2,8.31,8.31,0,0,1,1.86,5.83v14.65H1757v-15c0-3.64-.91-6.43-2.75-8.36a9.56,9.56,0,0,0-7.27-2.89m-61.39.42,10.87,25.42-5.37,12.67H1696l15.35-38.09h-4.75l-7.77,20.34-8.38-20.34Zm-16.91,3.48a9,9,0,0,1,4.55,1.16,8,8,0,0,1,3.13,3.32,10.64,10.64,0,0,1,1.13,5,10.49,10.49,0,0,1-1.13,5,8.22,8.22,0,0,1-3.13,3.32,8.77,8.77,0,0,1-4.55,1.18,8.31,8.31,0,0,1-6.33-2.52,11.32,11.32,0,0,1,0-13.89,8.31,8.31,0,0,1,6.33-2.52m-1.22-3.81a11.69,11.69,0,0,0-6.12,1.6,11.11,11.11,0,0,0-4.22,4.61,15.44,15.44,0,0,0-1.53,7.07,15.28,15.28,0,0,0,1.53,7,11.11,11.11,0,0,0,4.22,4.59,11.79,11.79,0,0,0,6.12,1.6,10.59,10.59,0,0,0,6.38-1.89,9.8,9.8,0,0,0,3.65-5v6.59h4.28V925.23h-4.28v6.59a9.86,9.86,0,0,0-3.65-5,10.66,10.66,0,0,0-6.38-1.88m-29.29,3.81a8.34,8.34,0,0,1,6.38,2.52,11.32,11.32,0,0,1,0,13.89,8.34,8.34,0,0,1-6.38,2.52,8.79,8.79,0,0,1-4.52-1.18,8.14,8.14,0,0,1-3.15-3.32,10.49,10.49,0,0,1-1.13-5,10.64,10.64,0,0,1,1.13-5,8,8,0,0,1,3.15-3.32,9,9,0,0,1,4.52-1.16m1.23-3.81a10.54,10.54,0,0,0-6.38,1.91,9.69,9.69,0,0,0-3.6,5v-6.59h-4.29v38.09h4.29V944.49a9.69,9.69,0,0,0,3.6,5,10.54,10.54,0,0,0,6.38,1.91,11.79,11.79,0,0,0,6.12-1.6,11.09,11.09,0,0,0,4.21-4.59,15.28,15.28,0,0,0,1.53-7,15.44,15.44,0,0,0-1.53-7.07,11.09,11.09,0,0,0-4.21-4.61,11.69,11.69,0,0,0-6.12-1.6M1603.58,937h-16.53a8.84,8.84,0,0,1,2.59-6.43,8.48,8.48,0,0,1,5.94-2.19,9,9,0,0,1,4.09,1,6.79,6.79,0,0,1,3,2.87,8.82,8.82,0,0,1,.94,4.8m4.33-.28a12.06,12.06,0,0,0-1.48-5.94,11.1,11.1,0,0,0-4.29-4.28,12.94,12.94,0,0,0-6.56-1.6,13.33,13.33,0,0,0-6.6,1.6,11.33,11.33,0,0,0-4.49,4.61,14.73,14.73,0,0,0-1.63,7.07,14.58,14.58,0,0,0,1.63,7,11.34,11.34,0,0,0,4.49,4.59,13.43,13.43,0,0,0,6.6,1.6,14,14,0,0,0,5.83-1.18,10.78,10.78,0,0,0,6.31-8.1h-4.56a6.57,6.57,0,0,1-2.57,4.22,8.41,8.41,0,0,1-5.2,1.57,8.26,8.26,0,0,1-5.82-2.21q-2.37-2.22-2.52-6.64h20.67a12.33,12.33,0,0,0,.19-2.35m-40.44-11.91a10.18,10.18,0,0,0-5.82,1.69,8.81,8.81,0,0,0-3.5,4.85V916.24h-4.29v34.84h4.29v-13.7q0-4.38,2.11-6.67a7.36,7.36,0,0,1,5.65-2.28,7.08,7.08,0,0,1,5.37,2.07,8.25,8.25,0,0,1,2,5.93v14.65h4.28v-15q0-5.46-2.77-8.36a9.67,9.67,0,0,0-7.3-2.89M1546,947.31a4.43,4.43,0,0,1-3.18-.92,4.83,4.83,0,0,1-.92-3.41V929h6.69v-3.72h-6.69v-6.45h-4.33v6.45h-3.86V929h3.86v13.93q0,4.44,2,6.31t5.9,1.89h3.21v-3.77ZM1514.74,937h-16.53a8.84,8.84,0,0,1,2.59-6.43,8.48,8.48,0,0,1,5.93-2.19,9,9,0,0,1,4.1,1,6.9,6.9,0,0,1,3,2.87,8.82,8.82,0,0,1,.94,4.8m4.33-.28a12.17,12.17,0,0,0-1.48-5.94,11.1,11.1,0,0,0-4.29-4.28,13,13,0,0,0-6.57-1.6,13.29,13.29,0,0,0-6.59,1.6,11.33,11.33,0,0,0-4.49,4.61,14.62,14.62,0,0,0-1.63,7.07,14.47,14.47,0,0,0,1.63,7,11.34,11.34,0,0,0,4.49,4.59,13.39,13.39,0,0,0,6.59,1.6,14,14,0,0,0,5.84-1.18,10.78,10.78,0,0,0,6.31-8.1h-4.57a6.55,6.55,0,0,1-2.56,4.22,8.42,8.42,0,0,1-5.21,1.57,8.24,8.24,0,0,1-5.81-2.21q-2.37-2.22-2.52-6.64h20.67a12.33,12.33,0,0,0,.19-2.35m-31.64,10.59a4.44,4.44,0,0,1-3.18-.92c-.61-.61-.91-1.75-.91-3.41V929H1490v-3.72h-6.68v-6.45H1479v6.45h-3.87V929H1479v13.93c0,3,.64,5.06,2,6.31s3.27,1.89,5.91,1.89h3.2v-3.77ZM1467.8,937h-16.52a8.8,8.8,0,0,1,2.58-6.43,8.5,8.5,0,0,1,5.94-2.19,9,9,0,0,1,4.09,1,6.9,6.9,0,0,1,3,2.87,8.73,8.73,0,0,1,.94,4.8m4.33-.28a12.06,12.06,0,0,0-1.48-5.94,11.1,11.1,0,0,0-4.29-4.28,12.94,12.94,0,0,0-6.56-1.6,13.26,13.26,0,0,0-6.59,1.6,11.29,11.29,0,0,0-4.5,4.61,14.73,14.73,0,0,0-1.62,7.07,14.58,14.58,0,0,0,1.62,7,11.3,11.3,0,0,0,4.5,4.59,13.37,13.37,0,0,0,6.59,1.6,14.07,14.07,0,0,0,5.84-1.18,10.79,10.79,0,0,0,6.3-8.1h-4.56a6.61,6.61,0,0,1-2.57,4.22,8.41,8.41,0,0,1-5.2,1.57,8.26,8.26,0,0,1-5.82-2.21q-2.37-2.22-2.51-6.64h20.66a12.33,12.33,0,0,0,.19-2.35m-34.93,14.36h4.28V916.24h-4.28Zm-18.69-22.37a8.37,8.37,0,0,1,6.38,2.52,11.36,11.36,0,0,1,0,13.89,8.37,8.37,0,0,1-6.38,2.52,8.76,8.76,0,0,1-4.52-1.18,8.16,8.16,0,0,1-3.16-3.32,10.49,10.49,0,0,1-1.13-5,10.64,10.64,0,0,1,1.13-5,8,8,0,0,1,3.16-3.32,9,9,0,0,1,4.52-1.16m1.22-3.81a10.54,10.54,0,0,0-6.38,1.91,9.69,9.69,0,0,0-3.6,5v-6.59h-4.28v38.09h4.28V944.49a9.69,9.69,0,0,0,3.6,5,10.54,10.54,0,0,0,6.38,1.91,11.79,11.79,0,0,0,6.12-1.6,11.11,11.11,0,0,0,4.22-4.59,15.28,15.28,0,0,0,1.53-7,15.44,15.44,0,0,0-1.53-7.07,11.11,11.11,0,0,0-4.22-4.61,11.69,11.69,0,0,0-6.12-1.6m-30.93-.09a10.07,10.07,0,0,0-5.75,1.71,9.36,9.36,0,0,0-3.62,4.88,9,9,0,0,0-3.46-4.92,10.53,10.53,0,0,0-11.3-.05,8.38,8.38,0,0,0-3.37,4.68v-5.88H1357v25.85h4.28v-13.7c0-2.89.69-5.08,2-6.57a7.09,7.09,0,0,1,5.49-2.24,6.6,6.6,0,0,1,5.08,2,8.23,8.23,0,0,1,1.88,5.83v14.65h4.29v-13.7q0-4.33,2.05-6.57a7,7,0,0,1,5.43-2.24,6.59,6.59,0,0,1,5.11,2,8.31,8.31,0,0,1,1.86,5.83v14.65h4.29v-15q0-5.46-2.76-8.36a9.56,9.56,0,0,0-7.27-2.89m-50.33,3.86a8.94,8.94,0,0,1,4.26,1,7.78,7.78,0,0,1,3.15,3.18,12.19,12.19,0,0,1,0,10.55,7.82,7.82,0,0,1-3.15,3.17,9.24,9.24,0,0,1-8.52,0,7.78,7.78,0,0,1-3.16-3.17,12.19,12.19,0,0,1,0-10.55,7.74,7.74,0,0,1,3.16-3.18,8.94,8.94,0,0,1,4.26-1m0-3.77a13.67,13.67,0,0,0-6.66,1.6,11.63,11.63,0,0,0-4.64,4.61,14.2,14.2,0,0,0-1.7,7.07,14.06,14.06,0,0,0,1.7,7,11.64,11.64,0,0,0,4.64,4.59,14.66,14.66,0,0,0,13.32,0,11.5,11.5,0,0,0,4.61-4.59,14.16,14.16,0,0,0,1.68-7,14.3,14.3,0,0,0-1.68-7.07,11.49,11.49,0,0,0-4.61-4.61,13.67,13.67,0,0,0-6.66-1.6m-29.52,0a13.26,13.26,0,0,0-6.59,1.6,11.29,11.29,0,0,0-4.5,4.61,14.73,14.73,0,0,0-1.62,7.07,14.58,14.58,0,0,0,1.62,7,11.3,11.3,0,0,0,4.5,4.59,13.37,13.37,0,0,0,6.59,1.6,12.63,12.63,0,0,0,8.19-2.62,11.06,11.06,0,0,0,4-7.08h-4.52a6.72,6.72,0,0,1-2.56,4.38,9,9,0,0,1-9.33.56,7.57,7.57,0,0,1-3-3.18,13,13,0,0,1,0-10.59,7.57,7.57,0,0,1,3-3.18,9.12,9.12,0,0,1,9.33.54,6.62,6.62,0,0,1,2.56,4.36h4.52a11.11,11.11,0,0,0-4-7.06,12.58,12.58,0,0,0-8.19-2.64" transform="translate(-53.03 -147.46)"/></g><line class="cls-2" x1="318.08" y1="232.21" x2="1193.3" y2="232.21"/><polygon class="cls-3" points="1207.95 232.22 1191.47 216.89 1191.47 247.54 1207.95 232.22"/><g class="cls-4"><path class="cls-5" d="M84.41,391.89h13m0,22.95h-13m13,45.71h-13m0-22.85h13m0-68.76h-13M208.1,460.55H146.89m0-22.85H208.1M208,414.84H146.89m0-22.95H208m8.49,130.94h7.35a11.71,11.71,0,0,0,11.77-11.77V490m-116.13,0v21.08a11.71,11.71,0,0,0,11.77,11.77h7.36m77.88,11.28V522.83H138.56v11.28M57,490v21.08a11.71,11.71,0,0,0,11.77,11.77h7.36m21.38,0H76.08v11.28M97.46,346H68.72A11.72,11.72,0,0,0,57,357.46V490H97.46M208,368.94H146.89M208,346H146.89m-27.46-17.66V490H235.56V328.33a11.71,11.71,0,0,0-11.77-11.77H131.2a11.71,11.71,0,0,0-11.77,11.77Zm159.49,194.5H257.54M298.05,490H257.54m0-75.14h13m0-22.95h-13m13,45.81h-13m0,22.85h13M257.54,346h28.74a11.73,11.73,0,0,1,11.77,11.47v153.6a11.73,11.73,0,0,1-11.77,11.77h-7.36v11.28M257.54,368.94h13m19.23-45.12a44.82,44.82,0,0,0-38.11-42,27.63,27.63,0,0,0,1-7.6,26.87,26.87,0,0,0-27-27A25.74,25.74,0,0,0,209,252.86a55.9,55.9,0,0,0-9.07-11.78,54.05,54.05,0,0,0-76.46,0,52,52,0,0,0-15.84,38.21c0,.71,0,1.41,0,2.11A42.84,42.84,0,0,0,78,294.49,42.79,42.79,0,0,0,65,323.82" transform="translate(-53.03 -147.46)"/><path class="cls-6" d="M1936.62,483.05c-.44-3.1-1-6.15-1.75-9.08a94.32,94.32,0,0,0-6.65-18.55,91.17,91.17,0,0,0-5.06-9.08,85.82,85.82,0,0,0-15.43-18.55,84.52,84.52,0,0,0-10.33-8.11,80,80,0,0,0-32.79-12.92,81.66,81.66,0,0,0-12.42-.95h-72.9a87.69,87.69,0,0,0-12.36.9,81,81,0,0,0-32.85,13,84.52,84.52,0,0,0-10.33,8.11,89.15,89.15,0,0,0-15.44,18.55,81.23,81.23,0,0,0-4.94,9.08,90.15,90.15,0,0,0-6.7,18.55c-.72,2.93-1.32,6-1.76,9.08a92.21,92.21,0,0,0-1.05,14.21v4.4h243.81v-4.4a92.21,92.21,0,0,0-1.05-14.21" transform="translate(-53.03 -147.46)"/><path class="cls-7" d="M1696.44,499H1935.1v-1.76a90.8,90.8,0,0,0-1-13.8c-.41-2.91-1-5.88-1.71-8.85a91.5,91.5,0,0,0-6.46-18,86.16,86.16,0,0,0-4.9-8.8,86.26,86.26,0,0,0-25-25.91,77,77,0,0,0-31.76-12.5,79.06,79.06,0,0,0-12-.94h-72.9a86.07,86.07,0,0,0-12,.88,78.07,78.07,0,0,0-31.78,12.56,82.61,82.61,0,0,0-10,7.88,86.4,86.4,0,0,0-15,18,76,76,0,0,0-4.77,8.76,88.64,88.64,0,0,0-6.54,18.08c-.72,3-1.3,5.94-1.71,8.82a91.52,91.52,0,0,0-1,13.83Zm241.23,5.28h-243.8a2.6,2.6,0,0,1-2.57-2.64v-4.4a98,98,0,0,1,1.06-14.63c.43-3,1-6.16,1.81-9.3a93.85,93.85,0,0,1,6.9-19.1,82.17,82.17,0,0,1,5.07-9.3,91.53,91.53,0,0,1,15.9-19.11,88.36,88.36,0,0,1,10.63-8.36,83.22,83.22,0,0,1,33.87-13.36,90.64,90.64,0,0,1,12.75-.93h72.9a83.57,83.57,0,0,1,12.79,1,82,82,0,0,1,33.83,13.32,91.19,91.19,0,0,1,26.53,27.46,94.76,94.76,0,0,1,5.18,9.31,97.16,97.16,0,0,1,6.84,19.09,94.75,94.75,0,0,1,1.81,9.34,97,97,0,0,1,1.07,14.59v4.4a2.6,2.6,0,0,1-2.57,2.64" transform="translate(-53.03 -147.46)"/><path class="cls-7" d="M1923.16,449.28H1708.31a88.89,88.89,0,0,1,15.44-18.55h184a85.58,85.58,0,0,1,15.43,18.55" transform="translate(-53.03 -147.46)"/><path class="cls-7" d="M1897.4,419.68H1734.08a80.36,80.36,0,0,1,45.21-13.87h72.9a80.1,80.1,0,0,1,45.21,13.87" transform="translate(-53.03 -147.46)"/><path class="cls-7" d="M1934.87,476.91h-238.2a90.15,90.15,0,0,1,6.7-18.55h224.85a94.32,94.32,0,0,1,6.65,18.55" transform="translate(-53.03 -147.46)"/><path class="cls-7" d="M1937.67,500.2v4.28H1693.86V500.2a92.21,92.21,0,0,1,1.05-14.21h241.71a92.21,92.21,0,0,1,1.05,14.21" transform="translate(-53.03 -147.46)"/><path class="cls-8" d="M1908,248.31c0,51.76-40.92,93.76-91.41,93.76s-91.36-42-91.36-93.76c0-36.82,20.66-68.74,50.76-84.07a89.2,89.2,0,0,1,78.72-1.19c31.43,14.77,53.29,47.42,53.29,85.26" transform="translate(-53.03 -147.46)"/><path class="cls-7" d="M1816.58,157.12a85.55,85.55,0,0,0-39.45,9.47c-30.44,15.51-49.34,46.82-49.34,81.71,0,50.25,39.83,91.13,88.79,91.13s88.84-40.88,88.84-91.13c0-35.53-20.33-68.06-51.79-82.85a85.4,85.4,0,0,0-37.05-8.33m0,187.59c-51.8,0-93.93-43.25-93.93-96.41,0-36.91,20-70,52.19-86.43a91.72,91.72,0,0,1,81-1.21c33.27,15.64,54.77,50.05,54.77,87.64,0,53.16-42.16,96.41-94,96.41" transform="translate(-53.03 -147.46)"/><path class="cls-6" d="M1758,284.84c0,11.77-9.3,21.32-20.77,21.32s-20.77-9.55-20.77-21.32,9.29-21.32,20.77-21.32,20.77,9.55,20.77,21.32" transform="translate(-53.03 -147.46)"/><path class="cls-7" d="M1737.26,266.16a18.69,18.69,0,1,0,18.2,18.68,18.46,18.46,0,0,0-18.2-18.68m0,42.64c-12.88,0-23.34-10.75-23.34-24s10.46-24,23.34-24,23.35,10.75,23.35,24-10.48,24-23.35,24" transform="translate(-53.03 -147.46)"/><path class="cls-6" d="M1913,284.84c0,11.77-9.31,21.32-20.78,21.32s-20.77-9.55-20.77-21.32,9.3-21.32,20.77-21.32,20.78,9.55,20.78,21.32" transform="translate(-53.03 -147.46)"/><path class="cls-7" d="M1892.23,266.16a18.69,18.69,0,1,0,18.2,18.68,18.47,18.47,0,0,0-18.2-18.68m0,42.64c-12.88,0-23.35-10.75-23.35-24s10.47-24,23.35-24,23.34,10.75,23.34,24-10.47,24-23.34,24" transform="translate(-53.03 -147.46)"/><path class="cls-6" d="M1864.6,406.76a81.43,81.43,0,0,0-12.41-.95h-1.32a38.29,38.29,0,0,0,.36-4.94V327.8h-71v73.07a36.58,36.58,0,0,0,.37,4.94h-1.35a87.69,87.69,0,0,0-12.36.9c-4.72,5.41-7.47,11.61-7.47,18.27,0,20.24,25.21,36.65,56.3,36.65s56.31-16.41,56.31-36.65c0-6.6-2.69-12.86-7.47-18.22" transform="translate(-53.03 -147.46)"/><path class="cls-7" d="M1768.23,409.19c-4.12,5-6.2,10.28-6.2,15.79,0,18.75,24.1,34,53.73,34s53.75-15.26,53.75-34a24.45,24.45,0,0,0-6.2-15.74,78.69,78.69,0,0,0-11.12-.8h-1.32a2.55,2.55,0,0,1-1.94-.9,2.69,2.69,0,0,1-.61-2.09,34.8,34.8,0,0,0,.34-4.59V330.44h-65.81v70.42a33.17,33.17,0,0,0,.34,4.59,2.77,2.77,0,0,1-.61,2.09,2.57,2.57,0,0,1-1.94.9h-1.35a85.41,85.41,0,0,0-11.06.75m47.53,55.08c-32.46,0-58.88-17.63-58.88-39.29,0-7,2.82-13.94,8.13-20a2.55,2.55,0,0,1,1.57-.85,92.56,92.56,0,0,1,11.2-.91c-.06-.81-.08-1.57-.08-2.32V327.8a2.6,2.6,0,0,1,2.57-2.64h71a2.6,2.6,0,0,1,2.57,2.64v73.06c0,.76,0,1.52-.08,2.32a84.18,84.18,0,0,1,11.27,1,2.59,2.59,0,0,1,1.51.83c5.33,6,8.15,12.89,8.15,20,0,21.66-26.42,39.29-58.89,39.29" transform="translate(-53.03 -147.46)"/><path class="cls-6" d="M1815.75,382.31h0c-42.23,0-76.47-35.14-76.47-78.49V251c0-43.35,34.24-78.49,76.47-78.49s76.47,35.14,76.47,78.49v52.82c0,43.35-34.23,78.49-76.47,78.49" transform="translate(-53.03 -147.46)"/><path class="cls-7" d="M1815.75,175.15c-40.75,0-73.9,34-73.9,75.85v52.82c0,41.82,33.15,75.85,73.9,75.85s73.91-34,73.91-75.85V251c0-41.82-33.16-75.85-73.91-75.85m0,209.8c-43.58,0-79-36.39-79-81.13V251c0-44.73,35.46-81.13,79-81.13s79,36.4,79,81.13v52.82c0,44.74-35.45,81.13-79,81.13" transform="translate(-53.03 -147.46)"/><path class="cls-8" d="M1739.29,303.82c0,43.35,34.24,78.49,76.47,78.49s76.48-35.14,76.48-78.49Z" transform="translate(-53.03 -147.46)"/><path class="cls-7" d="M1815.77,385c-43.59,0-79-36.39-79-81.13h5.14c0,41.82,33.16,75.85,73.9,75.85s73.91-34,73.91-75.85h5.14c0,44.74-35.46,81.13-79,81.13" transform="translate(-53.03 -147.46)"/><path class="cls-7" d="M1823.27,308.8h-17v-5.28H1820c-2-8.35-6.81-30.44-6.81-43.38h5.14c0,15.19,7.36,45.07,7.44,45.37a2.7,2.7,0,0,1-.47,2.27,2.53,2.53,0,0,1-2,1" transform="translate(-53.03 -147.46)"/><path class="cls-7" d="M1786.68,278.9a7.58,7.58,0,1,1-7.58-7.78,7.68,7.68,0,0,1,7.58,7.78" transform="translate(-53.03 -147.46)"/><path class="cls-7" d="M1790.48,265.08c0-.05-5.26-5.4-11.87-5.4h0c-3.82,0-7.46,1.83-10.85,5.39l-3.69-3.68c4.41-4.63,9.31-7,14.58-7,8.81,0,15.28,6.69,15.55,7Z" transform="translate(-53.03 -147.46)"/><path class="cls-7" d="M1860.09,278.9a7.58,7.58,0,1,1-7.58-7.78,7.68,7.68,0,0,1,7.58,7.78" transform="translate(-53.03 -147.46)"/><path class="cls-7" d="M1863.89,265.08c-.05-.05-5.26-5.39-11.87-5.39h0c-3.82,0-7.46,1.82-10.85,5.38l-3.69-3.68c4.41-4.63,9.31-7,14.58-7h0c8.82,0,15.28,6.69,15.55,7Z" transform="translate(-53.03 -147.46)"/><path class="cls-8" d="M1846.54,150.1h-89.43c-7.49,0-13.55,7.61-13.55,17v9.48c0,29.58,18.2,55.24,41.76,56.15,20.9.81,38.54-17.07,43.22-41.3h14.1c21.07,0,29.29-29.68,10.54-39.56a14.21,14.21,0,0,0-6.64-1.78" transform="translate(-53.03 -147.46)"/><path class="cls-7" d="M1757.11,152.74c-6.06,0-11,6.44-11,14.36v9.49c0,28.67,17.63,52.67,39.29,53.51,18.92.66,36.07-15.74,40.6-39.18a2.59,2.59,0,0,1,2.52-2.12h14.1c9.95,0,16.16-7.44,17.89-14.81,1.55-6.57.12-15.2-8.53-19.77a11.81,11.81,0,0,0-5.46-1.48Zm29.53,82.66-1.41,0c-24.4-.95-44.25-27.31-44.25-58.79V167.1c0-10.83,7.23-19.64,16.13-19.64h89.43a16.79,16.79,0,0,1,7.81,2.07c9.32,4.91,13.7,15,11.18,25.7-2.21,9.38-10.15,18.84-22.89,18.84h-12c-5.51,24.3-23.61,41.33-44,41.33" transform="translate(-53.03 -147.46)"/><path class="cls-6" d="M1835.87,336.32c0,8.08-8.84,14.63-19.74,14.63s-19.74-6.55-19.74-14.63,8.84-14.62,19.74-14.62,19.74,6.54,19.74,14.62" transform="translate(-53.03 -147.46)"/><path class="cls-7" d="M1816.13,324.34c-9.47,0-17.17,5.37-17.17,12s7.7,12,17.17,12,17.17-5.37,17.17-12-7.7-12-17.17-12m0,29.24c-12.3,0-22.31-7.74-22.31-17.26s10-17.26,22.31-17.26,22.31,7.74,22.31,17.26-10,17.26-22.31,17.26" transform="translate(-53.03 -147.46)"/><path class="cls-8" d="M1829.32,315.45l-.37-.06c-.06,0-.12,0-.19,0h-.09a12.51,12.51,0,0,0-2-.2h-21.91a12.26,12.26,0,0,0-1.94.2h-.1c-.07,0-.13,0-.19,0l-.37.06c-14.76,1.73-25.25,25-25.25,25h27.85a12.27,12.27,0,0,0,11-7,12.24,12.24,0,0,0,11,7h27.85s-10.48-23.27-25.25-25" transform="translate(-53.03 -147.46)"/><path class="cls-7" d="M1815.76,330.83a2.57,2.57,0,0,1,2.3,1.45,9.67,9.67,0,0,0,8.66,5.53h23.58c-3.51-6.34-11.51-18.6-21.27-19.73l-.23,0,.48-2.6-.59,2.58a15.09,15.09,0,0,0-2-.22h-21.91a9.81,9.81,0,0,0-1.54.17,3,3,0,0,1-.31,0l-.22,0c-10,1.16-18,13.43-21.52,19.77h23.59a9.67,9.67,0,0,0,8.66-5.53,2.58,2.58,0,0,1,2.29-1.45m38.81,12.26h-27.85a14.61,14.61,0,0,1-11-5,14.57,14.57,0,0,1-11,5H1777a2.54,2.54,0,0,1-2.16-1.22,2.7,2.7,0,0,1-.17-2.53c.45-1,11.27-24.64,27.29-26.51l.85-.11a11.27,11.27,0,0,1,2-.2h21.91a14.1,14.1,0,0,1,2.16.2h.19l-.06.37.31,2.33.29-2.62c16,1.87,26.84,25.51,27.29,26.51a2.68,2.68,0,0,1-.17,2.53,2.54,2.54,0,0,1-2.16,1.22" transform="translate(-53.03 -147.46)"/></g><rect class="cls-7" x="1753.28" y="211.44" width="20.6" height="5.28"/><rect class="cls-9" x="701.77" y="890.36" width="313.63" height="316.72"/><g class="cls-10"><path class="cls-6" d="M835,1090.3a12.89,12.89,0,1,0-13.06-12.89A13,13,0,0,0,835,1090.3" transform="translate(-53.03 -147.46)"/><path class="cls-6" d="M989.2,1090.61a13.2,13.2,0,1,0-13.07-13.2,13.13,13.13,0,0,0,13.07,13.2" transform="translate(-53.03 -147.46)"/><path class="cls-11" d="M834.72,1078.35c0,43,34.52,77.86,77.1,77.86s77.1-34.86,77.1-77.86" transform="translate(-53.03 -147.46)"/><path class="cls-6" d="M1020.18,1282.84v-44.62h-6v-7.67h14.08v44.62h5.92v7.67Zm-17.63,0-.14-3.16v-27h-5.79v-7.67h13.87v30.12h5.65v7.67Zm6.48-44.34a5,5,0,0,1-7.11,0,5.2,5.2,0,0,1-1.46-3.59,5,5,0,0,1,1.46-3.66,5,5,0,0,1,7.11,0,5.22,5.22,0,0,1,1.46,3.59,5,5,0,0,1-1.46,3.66m-24.32,29.42a21.19,21.19,0,0,0-2.86-1.26,11.63,11.63,0,0,0-4.11-.71,9.89,9.89,0,0,0-3.24.46,5.51,5.51,0,0,0-2.06,1.23,5,5,0,0,0-1.74,3.87,4.51,4.51,0,0,0,1.32,3.17,4.44,4.44,0,0,0,1.54,1,6.51,6.51,0,0,0,2.3.35,11,11,0,0,0,4.94-1.34,14.86,14.86,0,0,0,3.91-2.82Zm0,14.92v-2.53a22.65,22.65,0,0,1-4.64,2.18,15.34,15.34,0,0,1-5.05.85,12,12,0,0,1-8.92-3.59,12,12,0,0,1,.63-17.6,12.15,12.15,0,0,1,4.63-2.64,19.35,19.35,0,0,1,5.75-.81,20.56,20.56,0,0,1,5.16.71l1.18.31a9.13,9.13,0,0,1,1.26.46v-4.36a4.91,4.91,0,0,0-.39-2.18,2.93,2.93,0,0,0-1-1.2,6.39,6.39,0,0,0-2.09-.88,12.74,12.74,0,0,0-3.07-.32,10.62,10.62,0,0,0-2.08.25,24.48,24.48,0,0,0-2.41.63c-.81.26-1.58.52-2.3.78l-1.85.67L967,1247.3c1.63-.66,3-1.18,4.19-1.58s2.39-.76,3.69-1.09a14.17,14.17,0,0,1,3.42-.5,23.71,23.71,0,0,1,5.81.67,14.22,14.22,0,0,1,4.64,2.08,9.92,9.92,0,0,1,3.07,3.87,12.63,12.63,0,0,1,1,5.07v19.35h5.51v7.67Zm-25-30.26a17,17,0,0,0-5.54.77,10.25,10.25,0,0,0-3.52,2,8,8,0,0,0-2,2.67,11.45,11.45,0,0,0-.69,4.5v12.67h6.76v7.67H940v-30.12h-6.27v-7.67h14.36V1249a14.5,14.5,0,0,0,1.25-.81,18.16,18.16,0,0,1,2-1.16,19.14,19.14,0,0,1,4.22-1.55,17.88,17.88,0,0,1,4.36-.35l3.48.07v7.39Zm-36,31a11,11,0,0,1-3.51-.53,6.63,6.63,0,0,1-2.76-1.79,6.53,6.53,0,0,1-1.64-2.78,12.51,12.51,0,0,1-.45-3.42v-22.38h-5.85v-7.67h5.85v-7.39l8.09-.21v7.6h6.9v7.67h-6.9v21.68a2.87,2.87,0,0,0,.21,1.41h.34l6.35-1.06v7.74ZM900,1252.72l-16.87,45h-7.87l6.34-18-10.94-27h-6.21v-7.67h11.57l1.75,4.57,7.87,19.5,6.13-16.4h-4.25v-7.67h18.19v7.67Zm-48,15.2a21.19,21.19,0,0,0-2.86-1.26A11.59,11.59,0,0,0,845,1266a9.93,9.93,0,0,0-3.24.46,5.51,5.51,0,0,0-2.06,1.23,5,5,0,0,0-1.74,3.87,4.48,4.48,0,0,0,1.33,3.17,4.31,4.31,0,0,0,1.53,1,6.51,6.51,0,0,0,2.3.35,11.11,11.11,0,0,0,5-1.34,14.81,14.81,0,0,0,3.9-2.82Zm0,14.92v-2.53a22.82,22.82,0,0,1-4.63,2.18,15.45,15.45,0,0,1-5.06.85,12,12,0,0,1-8.92-3.59,12,12,0,0,1,.63-17.6,12.15,12.15,0,0,1,4.63-2.64,19.39,19.39,0,0,1,5.75-.81,20.56,20.56,0,0,1,5.16.71l1.19.31a9.51,9.51,0,0,1,1.25.46v-4.36a5.08,5.08,0,0,0-.38-2.18,3.09,3.09,0,0,0-1-1.2,6.58,6.58,0,0,0-2.09-.88,12.8,12.8,0,0,0-3.07-.32,10.71,10.71,0,0,0-2.09.25c-.79.17-1.59.37-2.41.63s-1.58.52-2.3.78l-1.84.67-2.51-6.27c1.62-.66,3-1.18,4.18-1.58s2.39-.76,3.69-1.09a14.17,14.17,0,0,1,3.42-.5,23.8,23.8,0,0,1,5.82.67,14.26,14.26,0,0,1,4.63,2.08,9.74,9.74,0,0,1,3.07,3.87,12.63,12.63,0,0,1,1,5.07v19.35h5.51v7.67Zm-30.94-39.94a6.79,6.79,0,0,0-1.61-2.57,7.18,7.18,0,0,0-3-1.54,18.7,18.7,0,0,0-5.09-.57H804.2v17.25h7.18a17,17,0,0,0,4.77-.57,9.11,9.11,0,0,0,3.17-1.55,6.13,6.13,0,0,0,1.75-2.35,9.52,9.52,0,0,0,.62-3.7,12.93,12.93,0,0,0-.62-4.4m7.8,10.6a14.19,14.19,0,0,1-3.62,5.27,15.24,15.24,0,0,1-5.58,3.31,21.34,21.34,0,0,1-6.9,1.06H804.2v19.7H789.56v-7.67h6.28v-37h-6.28v-7.67h22.51a24.7,24.7,0,0,1,7.29,1,15.5,15.5,0,0,1,5.82,3.27,13.89,13.89,0,0,1,3.69,5.25,18.31,18.31,0,0,1,1.19,6.79,18,18,0,0,1-1.19,6.62" transform="translate(-53.03 -147.46)"/><path class="cls-6" d="M923.53,1305.28c4.75,0,8.27,3.12,8.27,8.08v4.19c0,5.8-3.71,8.39-8.69,8.39a23.33,23.33,0,0,1-7.59-1.37.59.59,0,0,1-.45-.65v-25.13a.5.5,0,0,1,.57-.57h3.24a.5.5,0,0,1,.57.57v7.32a10.63,10.63,0,0,1,4.08-.83m3.81,12.31v-4.23c0-2.9-1.55-4.16-4.27-4.16a6.65,6.65,0,0,0-3.62,1v11.25a10,10,0,0,0,3.55.53c2.72,0,4.34-1.14,4.34-4.38" transform="translate(-53.03 -147.46)"/><path class="cls-6" d="M947.76,1306.27c0-.35.19-.54.57-.54h3.25a.49.49,0,0,1,.56.54v18c0,5.87-2.64,8.89-8.42,8.89a10.71,10.71,0,0,1-7.4-2.41c-.3-.23-.3-.45-.11-.76l1.62-2.32c.19-.31.46-.39.72-.2a8.83,8.83,0,0,0,5.14,1.76c2.6,0,4.26-1.15,4.11-5a13.84,13.84,0,0,1-4,.69c-3.93,0-8.08-2.52-8.08-7.78v-10.86a.51.51,0,0,1,.57-.54h3.28a.48.48,0,0,1,.53.54v10.67c0,2.94,2,4,4.31,4a7,7,0,0,0,3.39-.77Z" transform="translate(-53.03 -147.46)"/><path class="cls-6" d="M965.62,1325.48a.5.5,0,0,1-.57-.57v-17.46a.69.69,0,0,1,.42-.69,19.2,19.2,0,0,1,7.51-1.48c5.21,0,8.76,2.44,8.76,8.53v11.1c0,.38-.19.57-.53.57h-3.28a.52.52,0,0,1-.57-.57v-11c0-3.58-1.62-4.65-4.38-4.65a15.36,15.36,0,0,0-3.55.42v15.25a.5.5,0,0,1-.57.57Z" transform="translate(-53.03 -147.46)"/><path class="cls-6" d="M1002.16,1316.94a.49.49,0,0,1-.56.53H990.12v1.07c0,2.33,1.59,3.51,4,3.51a8.89,8.89,0,0,0,5.32-1.75.51.51,0,0,1,.76.11l1.55,2.1a.51.51,0,0,1-.12.8,11.79,11.79,0,0,1-7.66,2.63c-4.27,0-8.27-2.37-8.27-7.44v-5.41c0-5.6,4.15-7.81,8.31-7.81s8.15,2.21,8.15,7.81Zm-8.15-7.78c-2.23,0-3.89,1.07-3.89,3.89v1h7.78v-1a3.56,3.56,0,0,0-3.89-3.89" transform="translate(-53.03 -147.46)"/><path class="cls-6" d="M1013.34,1321.9c.34,0,.94,0,1.55-.08.37,0,.6.19.6.53v2.9a.56.56,0,0,1-.53.61c-.64,0-1.43.08-2,.08-3.93,0-7-2-7-7v-17.43c0-.34.19-.53.57-.53h2.87a.55.55,0,0,1,.57.49l.34,4.58h4a.5.5,0,0,1,.56.53v2.79a.5.5,0,0,1-.56.53h-4v8.73c0,2.1,1.06,3.32,3,3.32" transform="translate(-53.03 -147.46)"/><path class="cls-6" d="M1025.38,1325.94a12.83,12.83,0,0,1-7.66-2.48c-.34-.19-.34-.46-.16-.76l1.44-2.48c.19-.34.42-.38.75-.15a9.71,9.71,0,0,0,5.71,1.94c2,0,3.51-.76,3.51-2.21s-1.82-1.94-3.51-2.25c-2.84-.53-7.63-1.71-7.63-6.33,0-4.23,4-6,8-6a13.5,13.5,0,0,1,6.57,1.75.5.5,0,0,1,.19.76l-1.43,2.44a.54.54,0,0,1-.76.19,10.22,10.22,0,0,0-4.79-1.25c-2.23,0-3.44.83-3.44,2.09,0,1.57,1.7,2,4.19,2.44,3.1.57,7,1.57,7,5.95s-3.47,6.33-8,6.33" transform="translate(-53.03 -147.46)"/></g><g class="cls-4"><path class="cls-5" d="M1424.59,314.53l-52.68,48.6m178.25,95.08H1387.27m37.32-61H1372m204.69,87.18h28.48v3.36a18.83,18.83,0,0,1-5.72,13.81,18.64,18.64,0,0,1-13.74,5.72H1352.25a18.84,18.84,0,0,1-13.06-5l-.74-.75a18.87,18.87,0,0,1-5.72-13.81v-3.43h28.61m128.06-124.7,57.84,41.69-29.42,7.91-21.39,21.47Zm-64.81-75.48-52.68,48.6m-26.43-70.44V420.13a10.4,10.4,0,0,0,10.32,10.26h85a9.9,9.9,0,0,0,7.28-3.05,9.72,9.72,0,0,0,3-7.21V262.32a10.19,10.19,0,0,0-10.26-10.27h-85a10.29,10.29,0,0,0-10.32,10.27Zm15.86,196.82v25.2l215.32.07L1576.59,342a11,11,0,0,0-3.41-8.09,10.83,10.83,0,0,0-8-3.48h-85.83" transform="translate(-53.03 -147.46)"/></g></svg>